<svg xmlns="http://www.w3.org/2000/svg" viewBox="0 0 298.09 237.43"><defs><style>.cls-1{fill:#ebebeb;}.cls-2{fill:#263238;}.cls-3{fill:#ff725e;}.cls-4{fill:#ffbf9d;}.cls-5{fill:#6f4439;}.cls-6{fill:#455a64;}.cls-7{fill:#e0e0e0;}</style></defs><g id="Слой_2" data-name="Слой 2"><g id="Character_3" data-name="Character 3"><path class="cls-1" d="M271.2,101.77a27.87,27.87,0,0,0-10.78,2.15,13.93,13.93,0,0,1-5.4,1.13l-7.09-.42-.35-59.43a9.66,9.66,0,0,0-9.92-9.39l-7.85,0H60.89a9.5,9.5,0,0,0-9.61,9.38v59.06H47.07A12.88,12.88,0,0,1,41.42,103C37,100.79,28.64,98,23,99,11.7,100.82.26,112.16.26,123.33c0,18.73,14.66,30.47,30,30.47a26.22,26.22,0,0,0,10.43-2.15,10.59,10.59,0,0,1,4.63-1.11l6,0V209a9.5,9.5,0,0,0,9.61,9.38H237.35a9.66,9.66,0,0,0,9.92-9.38l.31-60.82,6.2.44a13.92,13.92,0,0,1,5.83,1.32,28.05,28.05,0,0,0,16.21,2.14c11.64-1.87,20.72-11,22-22.11C299.59,114.7,287,101.77,271.2,101.77Z"/><path class="cls-2" d="M271.2,101.77l1.82.07,1,0c.37,0,.78.11,1.22.17l1.44.22c.51.07,1,.25,1.62.38a26.74,26.74,0,0,1,16.35,12.07,23.09,23.09,0,0,1,1.56,3.15,25.34,25.34,0,0,1,1.17,3.51c.17.61.23,1.26.36,1.9.05.32.11.64.17,1s0,.65.07,1c0,.66.09,1.34.1,2s-.08,1.37-.12,2.07a24,24,0,0,1-2.31,8.39A25.41,25.41,0,0,1,290,145.3a27.58,27.58,0,0,1-19.27,7.29,28,28,0,0,1-11.24-2.52,13.8,13.8,0,0,0-5.77-1.3l-6.17-.42.18-.17q-.08,14.52-.14,30.82,0,8.15-.08,16.7c0,2.85,0,5.74,0,8.66,0,1.46,0,2.93,0,4.41a9.21,9.21,0,0,1-1,4.38,10.06,10.06,0,0,1-7.2,5.26,28.66,28.66,0,0,1-4.62.18H211l-40.17,0-87.69,0H62.78c-1,0-2,0-3-.06a9.92,9.92,0,0,1-5.46-2.37,9.56,9.56,0,0,1-3.09-5.1,12.79,12.79,0,0,1-.24-3v-8.94q0-23.92,0-48.64l.26.26-6.18,0a9.21,9.21,0,0,0-3,.55c-1,.35-1.94.83-3,1.18a26,26,0,0,1-6.38,1.41,20.19,20.19,0,0,1-3.3.08,24.19,24.19,0,0,1-3.29-.27A30.06,30.06,0,0,1,3.7,138.42,31.34,31.34,0,0,1,.08,125.1a18.51,18.51,0,0,1,.69-6.86A24.53,24.53,0,0,1,2,115a28.4,28.4,0,0,1,1.68-3,33.54,33.54,0,0,1,2-2.78c.77-.84,1.48-1.73,2.32-2.5a30.73,30.73,0,0,1,5.32-4.2,27.18,27.18,0,0,1,6.08-2.91A18.24,18.24,0,0,1,26,98.52a39.88,39.88,0,0,1,12.85,3c1,.4,2,.86,3,1.32a12.64,12.64,0,0,0,3,1,15.32,15.32,0,0,0,3.18.2h3.23l-.25.26C51,84.87,51,66,51,47.62c0-1.15,0-2.28.06-3.46a9.5,9.5,0,0,1,1-3.33,9.88,9.88,0,0,1,5.09-4.53,9.51,9.51,0,0,1,3.37-.68c1.13,0,2.24,0,3.36,0H96.73l93.67,0,39.44,0h6.79a20.78,20.78,0,0,1,2.23.08,10.13,10.13,0,0,1,7.3,4.36A9.34,9.34,0,0,1,247.65,44c.15,1.4.06,2.75.1,4.1q0,4,0,7.9c.09,20.54.17,37,.22,48.6l-.07-.08,5.63.35a13.15,13.15,0,0,0,4.8-.35c1.45-.35,2.66-1,3.84-1.36a29,29,0,0,1,3.21-.86,27.1,27.1,0,0,1,4.34-.54c1,0,1.44,0,1.44,0l-1.44.06a27.94,27.94,0,0,0-4.32.58,26.09,26.09,0,0,0-3.19.88c-1.17.37-2.39,1-3.85,1.38a13.32,13.32,0,0,1-4.83.37l-5.64-.33h-.07v-.08c-.08-11.62-.2-28.06-.34-48.6q0-3.86-.06-7.9c0-1.34.05-2.72-.1-4.06a8.76,8.76,0,0,0-1.45-3.81A9.83,9.83,0,0,0,238.82,36a19.82,19.82,0,0,0-2.19-.06h-2.24l-4.55,0L190.4,36l-93.67,0H64c-2.23.05-4.51-.23-6.56.66a9.43,9.43,0,0,0-4.83,4.32,8.74,8.74,0,0,0-1,3.16c-.1,1.09-.05,2.26-.06,3.4,0,18.33,0,37.25,0,56.66v.25H48.05a15.72,15.72,0,0,1-3.27-.21,14,14,0,0,1-3.16-1c-1-.47-2-.92-3-1.32A39.31,39.31,0,0,0,26,99a17.81,17.81,0,0,0-6.44,1.06,26.82,26.82,0,0,0-6,2.87,29.78,29.78,0,0,0-5.24,4.13c-.82.76-1.53,1.63-2.28,2.46a30.87,30.87,0,0,0-2,2.73,27.22,27.22,0,0,0-1.64,2.94,24,24,0,0,0-1.17,3.16,17.73,17.73,0,0,0-.67,6.69,31,31,0,0,0,3.55,13.09,29.6,29.6,0,0,0,22.06,15.07,23.33,23.33,0,0,0,3.24.26,19.35,19.35,0,0,0,3.23-.08A25.93,25.93,0,0,0,38.94,152c1-.34,2-.81,3-1.18a9.36,9.36,0,0,1,3.18-.58l6.19,0h.26V208.1a12,12,0,0,0,.23,2.89,9.06,9.06,0,0,0,2.93,4.84,9.48,9.48,0,0,0,5.17,2.24c.94.08,1.93.06,2.91.06H83.09l87.69,0,40.17,0h23.69a29.77,29.77,0,0,0,4.55-.17,9.67,9.67,0,0,0,6.91-5,8.8,8.8,0,0,0,1-4.21c0-1.47,0-2.94,0-4.4q0-4.38,0-8.66.06-8.55.1-16.7.09-16.29.18-30.82V148l.17,0,6.17.43a14.21,14.21,0,0,1,5.88,1.33,27.68,27.68,0,0,0,11.11,2.52,27.38,27.38,0,0,0,19.1-7.19,25.21,25.21,0,0,0,5.59-7.49,23.51,23.51,0,0,0,2.31-8.3c0-.7.08-1.38.12-2s-.06-1.35-.09-2c0-.33,0-.66-.07-1s-.11-.64-.16-1c-.13-.63-.19-1.27-.35-1.88A25.05,25.05,0,0,0,296,118a22.76,22.76,0,0,0-1.54-3.13,26.67,26.67,0,0,0-16.21-12.07c-.58-.14-1.1-.32-1.62-.4l-1.43-.22c-.44-.07-.84-.15-1.22-.19l-1,0Z"/><path class="cls-3" d="M233.53,201.69c-.72-1.64-2.48-6.61-3.8-7.81-5.95-5.41-11.79-6.78-18.32-11.47l1.32,52.83c2,2.83,6.11,2.5,9.33,1.32s5.66-3.94,7.33-6.94a41.17,41.17,0,0,0,5.52-19.19A26.43,26.43,0,0,0,233.53,201.69Z"/><path class="cls-3" d="M182.52,148c-6.27-3.85-26.84-7.5-31.46-7.91l-5.76-4.73-40.59-2.45-5.95,8.21L78,146.69a28,28,0,0,0-14,8.82l-12.39,9.74,0,42.18c0,6.49,3.32,10.81,9.81,10.81L186,217.93c7.63,13.41,17.3,20.53,33.64,19.38l-2.43-54.4S191.35,153.45,182.52,148Z"/><path class="cls-2" d="M186.36,168.3a1.71,1.71,0,0,1,.09.5c0,.39.08.87.14,1.44.12,1.26.25,3.07.38,5.32.26,4.49.45,10.7.34,17.56s-.43,13.07-.7,17.56c-.15,2.18-.28,4-.37,5.31-.05.57-.09,1-.13,1.44a1.56,1.56,0,0,1-.08.5,2.91,2.91,0,0,1,0-.51q0-.58,0-1.44c.05-1.34.12-3.14.2-5.32.18-4.49.45-10.69.55-17.55s0-13.05-.19-17.54c-.09-2.18-.16-4-.21-5.31,0-.58,0-1.06,0-1.45A2.91,2.91,0,0,1,186.36,168.3Z"/><path class="cls-2" d="M83.25,206.21c-.14,0-2.87-9.25-6.11-20.75s-5.75-20.87-5.61-20.9,2.88,9.25,6.11,20.76S83.39,206.18,83.25,206.21Z"/><path class="cls-2" d="M137,165l-.28-.11-.77-.38c-.68-.35-1.65-.87-2.87-1.6a63.36,63.36,0,0,1-9.44-6.94l.37-.2a48.73,48.73,0,0,1,.63,12.08l0,.45-.37-.26-1.92-1.33-2-1.44A83.4,83.4,0,0,1,104,148.66c-1.78-2.4-3.08-4.44-3.95-5.87-.43-.71-.74-1.28-1-1.66a4.26,4.26,0,0,1-.3-.6,3,3,0,0,1,.39.54c.27.42.62,1,1,1.62.93,1.38,2.27,3.39,4.07,5.75a87.72,87.72,0,0,0,16.39,16.38l1.93,1.43,1.91,1.33-.4.19a49.6,49.6,0,0,0-.55-12l-.1-.63.47.43a68.45,68.45,0,0,0,9.28,7.05c1.19.76,2.14,1.32,2.79,1.7A7.63,7.63,0,0,1,137,165Z"/><path class="cls-2" d="M150.57,140.12a1.65,1.65,0,0,1,.07.48c0,.32.06.79.08,1.4.05,1.22.08,3,0,5.16a67.51,67.51,0,0,1-.79,7.61c-.23,1.42-.52,2.91-.87,4.44a15.13,15.13,0,0,1-1.79,4.56,7,7,0,0,1-2.29,2.28l-.4.24v-.47c.09-4,.17-7.74.24-10.89l.4.09a46.18,46.18,0,0,1-3.49,6.4,17.73,17.73,0,0,1-1.23,1.6,3,3,0,0,1-.53.48,3.8,3.8,0,0,1,.43-.57c.27-.37.68-.91,1.13-1.65a52.89,52.89,0,0,0,3.31-6.43l.42-.95,0,1c0,3.15-.09,6.86-.14,10.89l-.39-.22a6.58,6.58,0,0,0,2.11-2.12,14.62,14.62,0,0,0,1.73-4.4c.36-1.51.65-3,.9-4.4.48-2.82.74-5.39.89-7.55s.18-3.92.19-5.14A14.58,14.58,0,0,1,150.57,140.12Z"/><path class="cls-2" d="M219.18,226.22a7.66,7.66,0,0,1-1.46.46,24.3,24.3,0,0,1-4.1.63,21.83,21.83,0,0,1-6.15-.44,17.43,17.43,0,0,1-3.49-1.12,13.14,13.14,0,0,1-3.37-2,10.6,10.6,0,0,1-2.4-3.16,16.75,16.75,0,0,1-1.29-3.43,24.49,24.49,0,0,1-.72-6.12c0-1.76.09-3.17.17-4.14a7.78,7.78,0,0,1,.18-1.51,8.12,8.12,0,0,1,0,1.52c0,1-.06,2.38,0,4.12a26,26,0,0,0,.82,6,16.84,16.84,0,0,0,1.29,3.32,10,10,0,0,0,2.28,3,15.74,15.74,0,0,0,6.62,3.09,22.91,22.91,0,0,0,6,.54A45.71,45.71,0,0,0,219.18,226.22Z"/><path class="cls-2" d="M201.86,187.14c.06.09-1.3,1-3.18,2.73a30.78,30.78,0,0,0-3,3.35,29.5,29.5,0,0,0-5,9.82,29.43,29.43,0,0,0-.92,4.42c-.33,2.57-.24,4.18-.34,4.18a5.46,5.46,0,0,1-.11-1.13,9.39,9.39,0,0,1,0-1.33,16.67,16.67,0,0,1,.1-1.76,26.14,26.14,0,0,1,.83-4.51,29.55,29.55,0,0,1,2-5.25,29.86,29.86,0,0,1,3-4.73,25.78,25.78,0,0,1,3.16-3.33c.48-.45,1-.8,1.37-1.12a12.82,12.82,0,0,1,1.08-.77A5,5,0,0,1,201.86,187.14Z"/><path class="cls-4" d="M202.34,187.43l9-60.54,16.31,2.48s3.86,50.89,3.14,66.38c-.22,4.84.12,12.95-3.16,18.24-5.59,9-22,9-27.09-.28h0c-2.64-4-1.5-9.61-.94-12.47Z"/><path class="cls-4" d="M229.06,132.94l2.74-12L234,105.32,234.12,92s-.39-1.39-2.2-.76-1.79,7.91-1.79,7.91l-.78,5.31s-1.75,3.88-2,3.48.15-7.71.15-7.71l.07-15.84a2.06,2.06,0,0,0-2.36-1.56c-1.11.12-2.09,1.5-2.4,3.79s-.09,6.3-.24,7.6-.77,8.89-.77,8.89L220,85s.14-5.74-2.33-5.4S216,84.27,215.75,86s.82,14-.1,17.2-1.11,1.46-1.11,1.46l-.51-10c-.23-4.42-1.34-7.18-3.11-7.85s-1.24,9.58-1.24,9.58l.4,14.26-1.63,4.2-2.27-4.51s.92-5.15-1.86-7.91-4.08-.53-4.08-.53l2.06,21c.77,3.52,8.67,11.63,8.67,11.63l-2.3,20.21,20.9,2.87Z"/><path class="cls-5" d="M223.23,124.84A23.52,23.52,0,0,1,221,122c-1.36-1.66-3.56-4-6.82-4.54a6.08,6.08,0,0,0-3.94.61l-.4.23-.22-.45c-1-2-2.06-3.75-2.68-5s-.95-2.06-.84-2.1a11,11,0,0,1,1.29,1.83,56.4,56.4,0,0,1,3,5l-.62-.22a6.73,6.73,0,0,1,4.51-.77,9.37,9.37,0,0,1,4.51,2.07,14.88,14.88,0,0,1,2.69,3A10.64,10.64,0,0,1,223.23,124.84Z"/><path class="cls-4" d="M104.61,204.91c-2.86-2.52-7.48,3.54-7.48,3.54-.9-1.89-6.88-1.68-7.8,1-.6-1.39-.5-2.23-1.74-3.09a4.84,4.84,0,0,0-4.31-.69A3.45,3.45,0,0,0,81,209.23a5.78,5.78,0,0,0-6.25-2,5.79,5.79,0,0,0-3.84,4.58,2.11,2.11,0,0,0-.08.79A1.12,1.12,0,0,0,71,213c.31.47.69.89,1,1.39.1.18.2.38.29.57a10.3,10.3,0,0,1,.84,2.82,9,9,0,0,0,.19,1.38,5.08,5.08,0,0,0,.45.78c.89,1.7.91,3.8,1,5.67.12,2.11.34,4.33,1.6,6s3.9,2.53,5.53,1.18a2.76,2.76,0,0,0,2.32,2.82,4,4,0,0,0,3.56-1.47,7.37,7.37,0,0,0,1.53-3.67,3,3,0,0,0,3.29,2.67,4.7,4.7,0,0,0,3.63-2.7,10.76,10.76,0,0,0,.92-4.6c0-1.58.73-6.12,1-7.67,0,0,2.59,0,3.49,0l.69-1.7c1-2.7,1.84-4.43,2.59-6.86C105.49,207.76,105.8,206,104.61,204.91Z"/><path class="cls-4" d="M65.35,211.09a4.53,4.53,0,0,0-3.46,1.51c-.92,1.23-.87,4.12-.61,5.64,0,0,4.49,0,4.49,0h1.11c.88.51.87,2.38,1.29,3.31A3.47,3.47,0,0,0,72.7,223a4.66,4.66,0,0,0,2.43-4.38A7.19,7.19,0,0,0,72.88,214,10.1,10.1,0,0,0,65.35,211.09Z"/><path class="cls-5" d="M81,208.7c.34,0,.81,5.37,1.06,12s.18,12-.15,12-.82-5.36-1.07-12S80.65,208.72,81,208.7Z"/><path class="cls-4" d="M89.35,209.11c.32,0,1.07,3.57,1,8.1s-1,8.19-1.35,8.16,0-3.66.15-8.13S89,209.15,89.35,209.11Z"/><path class="cls-5" d="M97.51,209.49c.34,0,.85,4,.65,9s-.59,9-.92,9-.49-4.06-.3-9S97.18,209.52,97.51,209.49Z"/><path class="cls-5" d="M68,211.7c0-.14.83-.41,2.12.05a6.77,6.77,0,0,1,3.65,3.56,13.63,13.63,0,0,1,1.26,4.88c0,1.5-1.06,2-1.1,1.84s.43-.7.24-1.79a25.13,25.13,0,0,0-1.5-4.39,7.41,7.41,0,0,0-2.91-3.32C68.79,212,68,211.89,68,211.7Z"/><path class="cls-2" d="M132.11,17.81A8,8,0,0,0,123,11a10.18,10.18,0,0,0-13.48-4.12c-2.19,1.21-3.84,3.21-6,4.51s-4.44,1.79-6.6,2.83S92.73,17,92.45,19.4c-.3,2.65,1.81,5.09,4.28,6.08s5.24.86,7.9.71a2.78,2.78,0,0,0-.82,3.56,5.62,5.62,0,0,0,3.06,2.47,12.16,12.16,0,0,0,12.46-2.3l5-3.82A8,8,0,0,0,132.11,17.81Z"/><path class="cls-3" d="M119.66,34.46a2.63,2.63,0,0,1-3.51-.07,3.55,3.55,0,0,1-.84-3.58,5.51,5.51,0,0,1,2.38-3,13.35,13.35,0,0,1,3.56-1.51,25.47,25.47,0,0,1,5.87-1.11,4.79,4.79,0,0,1,2.09.26,2,2,0,0,1,1.27,1.56c.08,1-.79,1.78-1.59,2.37a60.92,60.92,0,0,1-9.5,5.77"/><path class="cls-2" d="M116.75,34c-4.72-5.27-16.47-4.56-19.28-1.14a9,9,0,0,0-11.76,3.82L73.2,39.27c-2.13.45-4.37.95-6,2.38s-2.43,4.1-1.09,5.83c-4.41,1.11-6.18,7.65-2.94,10.84a4.72,4.72,0,0,0,.66,6.85A47.35,47.35,0,0,0,55.66,79c-.8,2.11-1.44,4.46-.67,6.58s3.54,3.59,5.37,2.29a5.54,5.54,0,0,0-.3,6c-2.12,0-2.77,3.3-1.33,4.85s3.8,1.72,5.92,1.69,4.4-.13,6.13,1.09a1.93,1.93,0,0,1-.7,1.34,8.68,8.68,0,0,0-2,11.82c.25.36.48.68.68,1C70,117.39,73,119,74.85,120c4.77,2.53,7.62,2.08,13,2.89-1.48,3.43,7.13,11.11,17.1,3.69,19.75,5.46,34,7.58,54.49,7.77,2.92,0,6.44-.34,7.75-2.95,2.37.65,4.93-.44,6.7-2.14a21.33,21.33,0,0,0,4-6.15,12.74,12.74,0,0,0,9.25-11.41,15.74,15.74,0,0,0,6-11.16c4.94-1.46,7.69-7.83,5.39-12.43a55.81,55.81,0,0,0-6-17.29c3.36-.7,4.65-5.21,3.29-8.36s-4.39-5.19-7.27-7.05c2.5.68,4.71-2.45,4.13-5s-2.83-4.28-5-5.63a46.92,46.92,0,0,0-10.35-4.71c-1.16-4.42-6.76-9.48-10.88-11.47-16.61-8-28.27-10.07-49.61,5.33"/><path class="cls-4" d="M103.92,60.68c-.23-3.51-.81-7,2.66-7.5L142,42.5c11.42-1.73,19.68,12,20.93,23.53,1.39,12.75,2.57,28.38,1.49,38a29.23,29.23,0,0,1-19.21,24.52s.44,11.73.44,11.73c-1.47,9-3.75,19.17-7.41,22.78-12.53-2.34-33-29.89-33-29.89Z"/><path class="cls-2" d="M144.39,95.2c0-.15,1.61-.51,4.26-1,.67-.1,1.31-.26,1.4-.73a3.44,3.44,0,0,0-.54-2l-2.23-5.06c-3.11-7.21-5.4-13.15-5.11-13.27s3.05,5.62,6.16,12.83q1.13,2.66,2.15,5.09a3.93,3.93,0,0,1,.47,2.64,1.73,1.73,0,0,1-1.06,1,4.94,4.94,0,0,1-1.15.21C146.07,95.27,144.4,95.35,144.39,95.2Z"/><path class="cls-5" d="M145.2,128.54s-10.44-.66-23.58-7.77c0,0,4.45,12.11,23.75,13.59Z"/><path class="cls-2" d="M133.08,65.69c-.23.73-2.89.51-6,1s-5.57,1.48-6,.85c-.2-.3.21-1,1.19-1.74a10.62,10.62,0,0,1,9.13-1.43C132.57,64.8,133.17,65.34,133.08,65.69Z"/><path class="cls-2" d="M158.55,65.25c-.44.62-2.29.08-4.49.15s-4,.59-4.49,0c-.2-.3.07-.91.85-1.52a6.51,6.51,0,0,1,7.24-.1C158.46,64.34,158.74,65,158.55,65.25Z"/><path class="cls-2" d="M171.55,75.25A13.19,13.19,0,0,0,168.36,67a48.12,48.12,0,0,1-3.56-3.43c-2.16-2.84-1.85-6.78-2.77-10.22a14.52,14.52,0,0,0-9-9.75c-3.6-1.28-7.68-1.11-11.06-2.9-2.5-1.32-4.4-3.62-7-4.8-5-2.28-10.81.29-15.54,3.11-.94,3.76,1.44,7,3.73,10.13a13.43,13.43,0,0,0,9.88,5.37c3,.18,6.5-.5,8.61,1.64s1.36,6.21,3.19,8.79c2.6,3.69,8.53,2.28,12.43,4.56,3,1.76,4.28,5.36,5.8,8.5s4.14,6.41,7.62,6.25A38.82,38.82,0,0,0,171.55,75.25Z"/><path class="cls-2" d="M126.94,45.83a68,68,0,0,0-25.7,4.65c-2.43,1-4.95,2.16-6.34,4.37-1.21,1.95-1.36,4.37-1.33,6.66.09,7.19,3,16,5.74,22.64l9,5.37C115.2,87.88,112,75.94,111.68,70a14.14,14.14,0,0,0,8.25-12.49A15.6,15.6,0,0,0,126.94,45.83Z"/><path class="cls-4" d="M108.16,86.93c-.27-4.11-5.32-4.9-8.85-2.78-1.94,1.16-3.4,3.47-3.15,7.83.68,11.64,12.23,8.56,12.23,8.23S108.49,91.75,108.16,86.93Z"/><path class="cls-3" d="M104.57,96s-.19.16-.52.33a2,2,0,0,1-1.52.12c-1.25-.38-2.4-2.27-2.58-4.36a6.7,6.7,0,0,1,.4-2.94,2.36,2.36,0,0,1,1.43-1.65A1,1,0,0,1,103,88c.18.32.12.55.18.57s.24-.21.12-.68a1.4,1.4,0,0,0-.5-.71,1.56,1.56,0,0,0-1.14-.23,2.87,2.87,0,0,0-2,1.93,6.93,6.93,0,0,0-.51,3.29c.21,2.34,1.54,4.46,3.25,4.85a2.19,2.19,0,0,0,1.84-.41C104.57,96.29,104.62,96,104.57,96Z"/><path class="cls-6" d="M103.28,100.9s0,0,0,.15a1.53,1.53,0,0,1-.16.45,2.69,2.69,0,0,1-1.34,1.21,7.21,7.21,0,0,1-2.88.6,10.17,10.17,0,0,1-1.87-.12,6.78,6.78,0,0,1-2-.61l.14-.07a5.8,5.8,0,0,1-9.22,3.68l.2,0a2.44,2.44,0,0,1-1.53,1,3.27,3.27,0,0,1-1.88-.16,3.06,3.06,0,0,1-1.52-1.23,4,4,0,0,1-.59-1.92A5.91,5.91,0,0,1,81.82,100a17.41,17.41,0,0,1,3.07-3l0,.27a4.12,4.12,0,0,1-1.85-2.76,6,6,0,0,1,.33-3.44,9.22,9.22,0,0,1,2-2.9,28.18,28.18,0,0,1,2.76-2.34l0,.27A4.33,4.33,0,0,1,87,82.72a6.23,6.23,0,0,1,1.31-3.46c1.5-1.91,3.67-3,5.67-4l-.09.2a7.73,7.73,0,0,1,8.39-9.55l-.18.2a6.94,6.94,0,0,1,6.49-8.09l-.15.15a6.56,6.56,0,0,1,2.64-5.08A6.39,6.39,0,0,1,116,51.77l-.14.12a6.44,6.44,0,0,1,1-3,8.36,8.36,0,0,1,1.76-2.14,6.68,6.68,0,0,1,4-1.72l.44,0c.14,0,.28,0,.41,0a5.55,5.55,0,0,1,.74.09,7.05,7.05,0,0,1,1.11.31l.65.28c.14.06.22.09.21.1l-.22-.08-.66-.24a7.73,7.73,0,0,0-1.11-.28c-.22,0-.47,0-.73-.07l-.4,0-.43,0a6.6,6.6,0,0,0-3.87,1.74,8.39,8.39,0,0,0-1.71,2.1,6.33,6.33,0,0,0-.89,2.88V52l-.13,0a6.14,6.14,0,0,0-4.67,1.33,6.28,6.28,0,0,0-2.51,4.87v.14h-.14a6.27,6.27,0,0,0-4.68,2.34,6.36,6.36,0,0,0-1.49,5.39l0,.22-.23,0a7.39,7.39,0,0,0-8,9.14l0,.13-.13.07c-2,1-4.13,2-5.55,3.87a6,6,0,0,0-1.24,3.26,4,4,0,0,0,1,3.11l.14.14-.16.12c-1.9,1.46-3.8,3-4.69,5.1a5.6,5.6,0,0,0-.31,3.23A3.77,3.77,0,0,0,85.08,97l.2.12-.18.15a17.16,17.16,0,0,0-3,2.93,5.62,5.62,0,0,0-1.22,3.68,3.12,3.12,0,0,0,1.91,2.89,2.55,2.55,0,0,0,3.08-.74l.08-.13.12.09a5.61,5.61,0,0,0,5.86.56,5.72,5.72,0,0,0,3-4.06l0-.13.12.06a6.57,6.57,0,0,0,2,.62,9,9,0,0,0,1.83.14,7,7,0,0,0,2.84-.55,2.61,2.61,0,0,0,1.35-1.14C103.23,101.11,103.26,100.89,103.28,100.9Z"/><path class="cls-6" d="M58.92,88.45a3.51,3.51,0,0,1-.44-.7,6,6,0,0,1-.61-2.3,5.84,5.84,0,0,1,1-3.66A6.16,6.16,0,0,1,63,79.11l-.09.14A7.93,7.93,0,0,1,64,73.5a7.79,7.79,0,0,1,2.27-2.42,17.89,17.89,0,0,1,3.19-1.5A6.66,6.66,0,0,0,71,68.67,3.88,3.88,0,0,0,72,67.24c.52-1.12.69-2.44,1.34-3.64a7.07,7.07,0,0,1,7.09-3.52l-.2.19A9.33,9.33,0,0,1,90.59,49.7l-.19.19a8.18,8.18,0,0,1,12.73-7.66l-.19,0A11.18,11.18,0,0,1,107,39.76a17.09,17.09,0,0,1,4.18-1,19.63,19.63,0,0,1,6.9.46,13.86,13.86,0,0,1,4.1,1.71,8.45,8.45,0,0,1,1,.68l.31.26s-.44-.33-1.3-.87a14.39,14.39,0,0,0-4.1-1.61,19.47,19.47,0,0,0-6.84-.39,17,17,0,0,0-4.11,1,11.2,11.2,0,0,0-3.95,2.44l-.08.09-.11-.07a7.88,7.88,0,0,0-12.22,7.38l0,.22-.22,0a9,9,0,0,0-9.94,10.19l0,.23-.23,0a6.77,6.77,0,0,0-6.75,3.34c-.62,1.12-.79,2.43-1.33,3.61a4.39,4.39,0,0,1-1.15,1.54,7,7,0,0,1-1.61,1,18.52,18.52,0,0,0-3.14,1.46,7.5,7.5,0,0,0-2.21,2.32,7.8,7.8,0,0,0-1.06,5.56l0,.12-.12,0A6,6,0,0,0,59,81.89a5.79,5.79,0,0,0-1,3.55,6.19,6.19,0,0,0,.55,2.28C58.77,88.21,58.94,88.44,58.92,88.45Z"/><path class="cls-6" d="M170.28,91.6a1.18,1.18,0,0,1,0-1,2.19,2.19,0,0,1,.68-1,4.06,4.06,0,0,1,1.44-.73,6.61,6.61,0,0,0,1.81-.76,3.51,3.51,0,0,0,1.31-1.87,6.94,6.94,0,0,0,.3-2.66c0-1-.19-2-.2-3.07,0-2.21.92-4.45,1.48-6.88a9.64,9.64,0,0,0,.16-3.83,4.66,4.66,0,0,0-2.11-3.27A17.49,17.49,0,0,0,171,65.22a6.84,6.84,0,0,1-2.09-1,4.65,4.65,0,0,1-1.47-1.84,22.62,22.62,0,0,1-1.23-4.58,7.69,7.69,0,0,0-.8-2.21,3.54,3.54,0,0,0-1.72-1.5,12.58,12.58,0,0,0-3.22-.44,5.14,5.14,0,0,1-1.63-.41,3.19,3.19,0,0,1-1.29-1.09,11.43,11.43,0,0,1-1.22-3,7.22,7.22,0,0,0-1.46-2.63,7.07,7.07,0,0,0-5.07-2.43,7.29,7.29,0,0,0-5,1.79l-.15.14-.09-.19a11.09,11.09,0,0,0-6.91-6,10.15,10.15,0,0,0-3.89-.34,9.23,9.23,0,0,0-3.2.89,8.06,8.06,0,0,0-3.4,3.13,7.16,7.16,0,0,0-.58,1.09l-.14.29c0,.06,0,.1,0,.09s0,0,0-.1l.11-.3a7.34,7.34,0,0,1,.55-1.12,8.12,8.12,0,0,1,3.4-3.24,9.24,9.24,0,0,1,3.25-.94,10.43,10.43,0,0,1,4,.31,11.3,11.3,0,0,1,7.12,6.08l-.24-.05a7.49,7.49,0,0,1,5.15-1.89,7.33,7.33,0,0,1,5.32,2.52,7.65,7.65,0,0,1,1.54,2.74A11.3,11.3,0,0,0,157.86,52a3.4,3.4,0,0,0,2.67,1.34,12.91,12.91,0,0,1,3.32.47,4,4,0,0,1,1.89,1.65,8,8,0,0,1,.85,2.31,22.11,22.11,0,0,0,1.19,4.51A4.44,4.44,0,0,0,169.14,64a6.93,6.93,0,0,0,2,.92,17.13,17.13,0,0,1,4.15,1.43,4.48,4.48,0,0,1,1.53,1.53,6,6,0,0,1,.72,2,9.84,9.84,0,0,1-.18,4c-.59,2.47-1.52,4.68-1.51,6.82,0,1.07.13,2.09.16,3.06a7.2,7.2,0,0,1-.33,2.74,3.72,3.72,0,0,1-1.4,1.94,6.59,6.59,0,0,1-1.87.75,3.94,3.94,0,0,0-1.41.68,2.17,2.17,0,0,0-.68.91A1.42,1.42,0,0,0,170.28,91.6Z"/><path class="cls-6" d="M192.88,73.56l-.12-.22c-.08-.16-.18-.38-.32-.65-.28-.6-.69-1.44-1.2-2.53s-1.12-2.45-2-4a10.45,10.45,0,0,0-3.9-4.18c-.95-.51-2-.85-3.13-1.33a8,8,0,0,1-1.59-.93,4.06,4.06,0,0,1-1.19-1.52c-.55-1.21-.56-2.58-1-3.83a3.21,3.21,0,0,0-1.12-1.59,6.3,6.3,0,0,0-1.87-.87,12.37,12.37,0,0,1-2.06-.78,3.78,3.78,0,0,1-1.59-1.65,17.1,17.1,0,0,1-1-4.52,5.45,5.45,0,0,0-.77-2.13,2.89,2.89,0,0,0-1.85-1.22c-1.53-.32-3.17.22-4.88,0a4.16,4.16,0,0,1-2.24-1.19,10.72,10.72,0,0,1-1.45-2,22.24,22.24,0,0,0-1.28-2,4.55,4.55,0,0,0-1.71-1.47,6.91,6.91,0,0,0-4.4,0,10.23,10.23,0,0,1-4.42.39A12.08,12.08,0,0,1,144,33.62a19.49,19.49,0,0,0-3.42-1.91,12,12,0,0,0-6.91-.22,13,13,0,0,0-5.12,2.64,14.32,14.32,0,0,0-2.83,3.34,16,16,0,0,0-1.2,2.51c-.12.28-.21.5-.27.67a1.59,1.59,0,0,1-.11.23s0-.08.07-.24l.24-.69a15.08,15.08,0,0,1,1.16-2.55A14.07,14.07,0,0,1,128.39,34a13,13,0,0,1,5.18-2.73,12.19,12.19,0,0,1,7.08.19,20.21,20.21,0,0,1,3.49,1.91,11.44,11.44,0,0,0,3.74,1.7,10.09,10.09,0,0,0,4.29-.4,15,15,0,0,1,2.26-.39,4.83,4.83,0,0,1,2.36.37,4.74,4.74,0,0,1,1.84,1.57,20.69,20.69,0,0,1,1.3,2,10.82,10.82,0,0,0,1.4,1.93,3.78,3.78,0,0,0,2,1.09c1.59.26,3.23-.28,4.9.06a3.25,3.25,0,0,1,2.06,1.36,6,6,0,0,1,.83,2.27,16.84,16.84,0,0,0,1,4.43,3.39,3.39,0,0,0,1.45,1.5,11,11,0,0,0,2,.77,6.71,6.71,0,0,1,2,.93,3.54,3.54,0,0,1,1.22,1.74c.45,1.32.46,2.67,1,3.81a4.79,4.79,0,0,0,2.63,2.32c1.06.48,2.16.83,3.13,1.36a10.55,10.55,0,0,1,3.95,4.3c.84,1.52,1.41,2.9,1.91,4l1.15,2.55.28.67A.76.76,0,0,1,192.88,73.56Z"/><path class="cls-6" d="M180.49,61.38a.71.71,0,0,1,.21,0,1.32,1.32,0,0,1,.62.14,2.5,2.5,0,0,1,1.16,2.06,6.19,6.19,0,0,1-.25,1.74,7.19,7.19,0,0,0-.3,2,4.48,4.48,0,0,0,.82,2.15c.45.7,1,1.39,1.49,2.22a3.35,3.35,0,0,1,.29,2.94c-.37,1-1.09,1.82-1.44,2.82a4.37,4.37,0,0,0,.32,3.21c.45,1.06,1.1,2.09,1.54,3.28a5.18,5.18,0,0,1,.38,1.89,4.81,4.81,0,0,1-.44,1.93,22.6,22.6,0,0,1-2.22,3.32,5.31,5.31,0,0,0-1.22,3.68,17.16,17.16,0,0,0,1.4,3.93,6,6,0,0,1,.44,2.14,4.75,4.75,0,0,1-.55,2.1,17.64,17.64,0,0,1-2.51,3.29,9.35,9.35,0,0,0-2,3.3,28.47,28.47,0,0,1-1.21,3.62,4.37,4.37,0,0,1-1.18,1.48,5.45,5.45,0,0,1-1.65.79,12.72,12.72,0,0,0-1.61.58,5.71,5.71,0,0,0-1.35.91,12.14,12.14,0,0,0-1.91,2.49c-.53.87-1,1.72-1.58,2.49a8,8,0,0,1-4.06,3,8.58,8.58,0,0,1-3.8.37,7.27,7.27,0,0,1-2.32-.68,5.46,5.46,0,0,1-.73-.42,8.55,8.55,0,0,0,3.06,1,8.64,8.64,0,0,0,3.73-.41,7.82,7.82,0,0,0,3.91-3c.54-.75,1-1.6,1.56-2.48a11.85,11.85,0,0,1,1.94-2.56,5.7,5.7,0,0,1,1.42-1,16.09,16.09,0,0,1,1.64-.6,4.85,4.85,0,0,0,1.55-.75A3.88,3.88,0,0,0,176.7,113a30.66,30.66,0,0,0,1.18-3.58A9.63,9.63,0,0,1,180,106a17.49,17.49,0,0,0,2.46-3.22,4.54,4.54,0,0,0,.5-1.94,5.43,5.43,0,0,0-.41-2,17.46,17.46,0,0,1-1.42-4,4.44,4.44,0,0,1,.28-2.11,8.18,8.18,0,0,1,1-1.81,22.4,22.4,0,0,0,2.19-3.26,4.59,4.59,0,0,0,.42-1.79,5.17,5.17,0,0,0-.35-1.78c-.42-1.14-1.07-2.17-1.53-3.27a4.64,4.64,0,0,1-.31-3.42c.39-1.08,1.12-1.9,1.47-2.83a3.09,3.09,0,0,0-.26-2.72c-.44-.81-1-1.5-1.46-2.22a4.77,4.77,0,0,1-.83-2.26,7.23,7.23,0,0,1,.34-2.07,6.43,6.43,0,0,0,.27-1.69,2.47,2.47,0,0,0-1.05-2A1.47,1.47,0,0,0,180.49,61.38Z"/><path class="cls-5" d="M136,99.11a1.59,1.59,0,0,1,2-.87l7.29,2.68.81.3a17.47,17.47,0,0,1-1.61,4.27,4.55,4.55,0,0,1-3.16,2.23,5.15,5.15,0,0,1-3.07-.77c-1.48-.93-2.9-2-3.23-3.68C134.83,102.05,135.55,100.25,136,99.11Z"/><path class="cls-7" d="M96.4,99a5.76,5.76,0,0,0-1.74,1,7.91,7.91,0,0,0-2.83,4.66,8.41,8.41,0,0,0,.09,3.82,9.42,9.42,0,0,0,2.14,3.83,9.53,9.53,0,0,0,4,2.66,8.85,8.85,0,0,0,5.2.11,9.45,9.45,0,0,0,4.44-2.71,8.49,8.49,0,0,0,2.11-4.35,9,9,0,0,0-2.29-7.66,8,8,0,0,0-2.65-1.71,8.26,8.26,0,0,0-2.3-.6,5.26,5.26,0,0,0-1.5,0,1.71,1.71,0,0,0-.49.16,6.42,6.42,0,0,1,2,0,8.33,8.33,0,0,1,2.22.66,7.84,7.84,0,0,1,2.52,1.7,8.77,8.77,0,0,1,2.12,7.37,8.14,8.14,0,0,1-2,4.13,9.1,9.1,0,0,1-4.23,2.57,8.39,8.39,0,0,1-4.94-.1,9.35,9.35,0,0,1-6-6.17,8.18,8.18,0,0,1-.14-3.66,7.89,7.89,0,0,1,2.63-4.58A16.83,16.83,0,0,1,96.4,99Z"/><path class="cls-2" d="M133.08,84a2.53,2.53,0,0,1-2.33,2.65,2.42,2.42,0,0,1-2.7-2.16,2.54,2.54,0,0,1,2.32-2.66A2.43,2.43,0,0,1,133.08,84Z"/><path class="cls-2" d="M156.57,84a2.51,2.51,0,0,1-2.32,2.65,2.42,2.42,0,0,1-2.71-2.16,2.54,2.54,0,0,1,2.33-2.66A2.42,2.42,0,0,1,156.57,84Z"/><path class="cls-2" d="M158.28,74.06c-.24.38-2.17-.93-4.65-.66s-4.13,1.92-4.44,1.6c-.15-.14.06-.81.77-1.56a5.65,5.65,0,0,1,7.26-.76C158.07,73.28,158.4,73.89,158.28,74.06Z"/><path class="cls-2" d="M134.57,76.1c-.34.39-2.47-1.26-5.45-1.23s-5.16,1.64-5.49,1.25c-.16-.18.18-.88,1.13-1.63A7.18,7.18,0,0,1,129.14,73a7,7,0,0,1,4.35,1.47C134.41,75.23,134.73,75.93,134.57,76.1Z"/><path class="cls-2" d="M143,106.81s-.2.32-.8.59a4.52,4.52,0,0,1-2.71.23,7.14,7.14,0,0,1-3.56-1.9,4.38,4.38,0,0,1-1.22-2.15,5.71,5.71,0,0,1,.07-2.63,11,11,0,0,1,.92-2.39,1.8,1.8,0,0,1,1.06-1,2.12,2.12,0,0,1,1.32.21l3.62,1.46a17.39,17.39,0,0,1,3.27,1.54,16.23,16.23,0,0,1-3.47-1l-3.68-1.3c-.74-.31-1.09-.27-1.43.45a10.94,10.94,0,0,0-.84,2.22,4.17,4.17,0,0,0,.9,4.1,7,7,0,0,0,3.17,1.85,4.61,4.61,0,0,0,2.48,0C142.69,107,143,106.75,143,106.81Z"/><path class="cls-2" d="M191.67,25.5a14.52,14.52,0,0,0-3.18-1.84,11.14,11.14,0,0,0-4.19-.75A10.32,10.32,0,0,0,179,24.45l-.25.16-.16-.26a9.61,9.61,0,0,0-5.83-4.29,9.79,9.79,0,0,0-8.19,1.3l-.31.22-.22-.3a15.72,15.72,0,0,0-9.95-6A15,15,0,0,0,145,16.61a15.62,15.62,0,0,0-6.31,5.6l-.1.16h-.19A23.65,23.65,0,0,0,129,24.7,24.64,24.64,0,0,0,122.74,29a33.18,33.18,0,0,0-4.28,5.16s.05-.15.18-.41.34-.67.66-1.16a22.52,22.52,0,0,1,3.14-3.9,24.11,24.11,0,0,1,6.3-4.5,23.84,23.84,0,0,1,9.63-2.51l-.29.17a16.17,16.17,0,0,1,6.57-5.91,15.59,15.59,0,0,1,9.54-1.45,16.33,16.33,0,0,1,10.43,6.36l-.52-.08a10.44,10.44,0,0,1,8.81-1.35,10.18,10.18,0,0,1,6.16,4.66l-.41-.1a10.72,10.72,0,0,1,5.64-1.51,11.17,11.17,0,0,1,4.31.91A9.69,9.69,0,0,1,191,24.81,3.84,3.84,0,0,1,191.67,25.5Z"/><path class="cls-2" d="M112.76,21.44a7,7,0,0,1-2.91.7,10.53,10.53,0,0,1-7.66-2.75,9.59,9.59,0,0,1-2.84-5A10.85,10.85,0,0,1,100,7.72a9.88,9.88,0,0,1,5.35-5.12,10.52,10.52,0,0,1,8-.07l-.45.11a7.52,7.52,0,0,1,4.38-2.5,8,8,0,0,1,4.25.36,7,7,0,0,1,3.22,2.62,7.78,7.78,0,0,1,.67,7.57l-.53-.48a6.41,6.41,0,0,1,6-.12,6.59,6.59,0,0,1,3.54,4.17,8.48,8.48,0,0,1-2.32,8.37A10.53,10.53,0,0,1,127,25.29a8.74,8.74,0,0,1-1.53.2,2,2,0,0,1-.53,0c0-.06.72-.08,2-.42a10.7,10.7,0,0,0,4.87-2.75,8,8,0,0,0,2.05-7.87,6,6,0,0,0-3.24-3.73,5.7,5.7,0,0,0-5.32.13l-1.07.65.54-1.12a7,7,0,0,0-.64-6.82,6.31,6.31,0,0,0-2.87-2.32,7.13,7.13,0,0,0-3.81-.31,6.74,6.74,0,0,0-3.93,2.22l-.18.22-.27-.11a9.87,9.87,0,0,0-7.42,0,9.25,9.25,0,0,0-5,4.71,10.22,10.22,0,0,0-.67,6.23A9.17,9.17,0,0,0,102.55,19a10.42,10.42,0,0,0,7.29,2.84A15.93,15.93,0,0,0,112.76,21.44Z"/><path class="cls-2" d="M57.39,51.7s-.09-.14-.22-.44a7.45,7.45,0,0,1-.45-1.35,12.48,12.48,0,0,1,3.94-12.4,13,13,0,0,1,9.82-3l-.38.2a15.39,15.39,0,0,1,7.83-7.39,14.86,14.86,0,0,1,8.17-.95,15.36,15.36,0,0,1,6.92,3l-.39,0a16.85,16.85,0,0,1,8.28-2,17.46,17.46,0,0,1,6.49,1.32,15.51,15.51,0,0,1,3.71,2.15,6.12,6.12,0,0,1,1.12,1,22.37,22.37,0,0,0-5-2.79A17.66,17.66,0,0,0,100.91,28,16.5,16.5,0,0,0,93,30l-.21.11L92.58,30a14.78,14.78,0,0,0-6.6-2.8,14.34,14.34,0,0,0-7.74.91,14.83,14.83,0,0,0-7.47,7l-.11.25-.27,0A12.38,12.38,0,0,0,61.08,38a11.88,11.88,0,0,0-4,6.64,13,13,0,0,0-.08,5.2C57.2,51.06,57.45,51.68,57.39,51.7Z"/></g></g></svg>