<svg xmlns="http://www.w3.org/2000/svg" viewBox="0 0 199.85 201.43"><defs><style>.cls-1{fill:#e0e0e0;}.cls-2{fill:#ffbf9d;}.cls-3{fill:#ff9a6c;}.cls-4{fill:#263238;}.cls-5{fill:#455a64;}.cls-6{fill:#ff8c32;}</style></defs><g id="Слой_2" data-name="Слой 2"><g id="Character_1" data-name="Character 1"><path class="cls-1" d="M194.86,133a10.52,10.52,0,0,0-4.63,1.11,26.27,26.27,0,0,1-10.44,2.15c-15.28,0-29.95-9.05-29.95-27.78,0-11.17,11.44-22.51,22.71-24.38,5.67-.94,14,1.83,18.46,4a13,13,0,0,0,5.64,1.32h2.76l.18-61.61c0-4.19-3.73-7.59-7.14-7.59H9.8C4,20.17.25,23.57.25,27.76V91.32l7.35-.39a14.48,14.48,0,0,0,5-.89c3.18-1.17,6.5-3.21,10.15-3.21,15.66,0,26.57,8.84,25.94,23.22-.55,12.67-9.93,22.56-23.83,23.45a28.4,28.4,0,0,1-13.23-2.65,15.67,15.67,0,0,0-6-1.35l-5.36.11v62.23c0,5.15,4.59,9.33,10.25,9.33H189.34c5.66,0,10.25-4.18,10.25-9.33v-58.9Z"/><path class="cls-2" d="M76,123,75.06,48.3C74.23,29.72,84.35,13.74,103,13.43l1.72.07a33.25,33.25,0,0,1,31.87,31.92c.63,16.11,1.12,33.92.66,42.53-1,17.83-18.91,19.86-18.91,19.86s-.11,10.85-.1,16.09l-5.66,11.31-4.83-2.65Z"/><path class="cls-3" d="M118.29,107a43.09,43.09,0,0,1-22.94-7.82s5,13.63,22.9,12.76Z"/><path class="cls-4" d="M128.78,60a2.55,2.55,0,0,1-2.56,2.47A2.43,2.43,0,0,1,123.69,60a2.55,2.55,0,0,1,2.55-2.47A2.45,2.45,0,0,1,128.78,60Z"/><path class="cls-4" d="M132.42,52.28c-.33.32-2.2-1.18-4.94-1.29s-4.81,1.18-5.09.83c-.14-.15.21-.74,1.11-1.34a7,7,0,0,1,4.09-1.08,6.65,6.65,0,0,1,3.91,1.45C132.32,51.53,132.58,52.14,132.42,52.28Z"/><path class="cls-4" d="M104.54,59.46A2.55,2.55,0,0,1,102,61.93a2.44,2.44,0,0,1-2.53-2.41A2.55,2.55,0,0,1,102,57.05,2.44,2.44,0,0,1,104.54,59.46Z"/><path class="cls-4" d="M105.53,51.81c-.33.32-2.21-1.19-4.94-1.29s-4.81,1.18-5.09.83c-.14-.16.2-.74,1.1-1.34a7,7,0,0,1,4.1-1.08,6.77,6.77,0,0,1,3.91,1.44C105.43,51.06,105.69,51.67,105.53,51.81Z"/><path class="cls-4" d="M114.49,73.28c0-.16,1.71-.38,4.48-.62.71,0,1.37-.16,1.51-.63a3.47,3.47,0,0,0-.38-2.09c-.59-1.73-1.2-3.53-1.85-5.42-2.56-7.71-4.38-14-4.07-14.13s2.64,6.06,5.2,13.77q.91,2.85,1.76,5.44a4.07,4.07,0,0,1,.25,2.76,1.75,1.75,0,0,1-1.19,1,4.91,4.91,0,0,1-1.2.12C116.22,73.49,114.49,73.43,114.49,73.28Z"/><path class="cls-4" d="M106.77,43.27c-.4.69-3-.16-6.27-.36s-6,.19-6.25-.55c-.13-.35.44-1,1.61-1.48a10.9,10.9,0,0,1,9.53.7C106.47,42.26,107,43,106.77,43.27Z"/><path class="cls-4" d="M132.88,44.23c-.59.61-2.8-.1-5.49-.2s-5,.29-5.47-.38c-.22-.32.15-.93,1.16-1.49a9.13,9.13,0,0,1,8.83.46C132.84,43.28,133.14,43.93,132.88,44.23Z"/><path class="cls-2" d="M76,60.72c-.29-.15-12.1-4.13-12.22,8.08S75.92,78.6,76,78.25,76,60.72,76,60.72Z"/><path class="cls-3" d="M72.26,73.59c-.05,0-.21.15-.58.31a2.13,2.13,0,0,1-1.59,0c-1.28-.49-2.35-2.55-2.39-4.75a7.06,7.06,0,0,1,.63-3,2.45,2.45,0,0,1,1.61-1.62,1.08,1.08,0,0,1,1.25.6c.16.34.08.59.15.61s.26-.21.17-.71a1.37,1.37,0,0,0-.48-.77,1.58,1.58,0,0,0-1.17-.32,3,3,0,0,0-2.24,1.87,7.31,7.31,0,0,0-.77,3.4c.06,2.46,1.3,4.77,3.06,5.3a2.25,2.25,0,0,0,1.94-.31C72.24,73.89,72.3,73.61,72.26,73.59Z"/><path class="cls-4" d="M105.88,75c.42,0,.44,2.78,2.85,4.76s5.39,1.66,5.41,2c0,.17-.66.55-1.92.59a7,7,0,0,1-4.52-1.56,6.05,6.05,0,0,1-2.21-4C105.38,75.65,105.69,75,105.88,75Z"/><path class="cls-4" d="M161.18,28.5a2.88,2.88,0,0,0-1.34-1.7c-1.39-.84-3-.75-4.56-.8a25.69,25.69,0,0,1-11.14-2.93,12.33,12.33,0,0,0,3.31-2.27c2-1.94,3.17-4.94,2.29-7.59A1.68,1.68,0,0,0,148.8,12c-.79-.25-1.49.52-2.05,1.13-1.84,2-3.53,2.86-6.24,2.56a10.85,10.85,0,0,1-4.63-1.43l-.15-.17-1.84-1.91h0c-4.54-4.61-8.45-7.81-12.5-9.49C115.45.25,105.49-.83,99.26.73S87.38,7.26,86.45,13.62c-3.46-3-8.69-3-13-1.36l-.11,0c-4.75,1.63-7.49,6.6-8.94,11.4-.08.27-.15.53-.22.8a18.89,18.89,0,0,1-6.43,6.14c-.46.26-1,.58-1,1.1a1.53,1.53,0,0,0,.79,1.27,9.37,9.37,0,0,0,3.81,1.63,20.59,20.59,0,0,1-1.6,3.31c-.55.9-1.19,2-.74,2.92a2,2,0,0,0,2.08.93,5.82,5.82,0,0,0,2.21-1l-1.62,3.77a11,11,0,0,0,5.14-.29c1,4.52,1.61,12.88,2.74,16,3.24.09,4-.25,5.66.31,2.11.73,1.26,4.46,4,3.43,1.41-.53,3.62-5.81,4.1-7.23A69.71,69.71,0,0,0,86.7,27.2a22.43,22.43,0,0,1,7-4.91l-.21.19c5-1.68,10.68-3.32,15.39-.92,3.65,1.86,5.77,5.69,8.48,8.77,5.14,5.82,11,9,18.76,9.39.63,5.4.74,14.21.95,19.24l4.41-10v0c.35-.59.65-1.18.93-1.77l.1-.18v0c.45-.95.88-1.9,1.44-2.84l.05,0c2.7,2.44,6.76-1.19,4.64-4.15a7.07,7.07,0,0,0-1.5-1.54,5,5,0,0,0,4.72,1.28,3.89,3.89,0,0,0,2.8-3.83,3.31,3.31,0,0,0-1.94-2.68A11.15,11.15,0,0,0,159.07,32C160.34,31.26,161.59,30.09,161.18,28.5Z"/><path class="cls-5" d="M92.05,15.74a13.29,13.29,0,0,0-1.81,1.62,12.75,12.75,0,0,0-2.81,5.9,21.71,21.71,0,0,0-.51,4.53c0,1.65.08,3.41.19,5.27a47.3,47.3,0,0,1,.07,5.86A22.1,22.1,0,0,1,86.74,42a6.45,6.45,0,0,1-1.3,3,2.69,2.69,0,0,1-2.53.82,4,4,0,0,1-2.25-1.31A9.11,9.11,0,0,1,79,39.94l.37.05a14.85,14.85,0,0,1-2.22,3.72,5.28,5.28,0,0,1-3.49,1.85,3.47,3.47,0,0,1-1.84-.34A2.93,2.93,0,0,1,70.57,44a3.11,3.11,0,0,1-.36-1.59A2.23,2.23,0,0,1,70.8,41l.19.17A11.57,11.57,0,0,1,67.12,44a10.63,10.63,0,0,1-1.2.45,1.89,1.89,0,0,1-.43.1,2.5,2.5,0,0,1,.41-.17c.27-.11.66-.26,1.16-.51A11.68,11.68,0,0,0,70.8,41l.18.18a2.29,2.29,0,0,0-.15,2.65A2.64,2.64,0,0,0,72,44.93a3,3,0,0,0,1.67.29,5,5,0,0,0,3.25-1.76A14.53,14.53,0,0,0,79,39.82l.27-.57.11.62A8.92,8.92,0,0,0,81,44.23a3.53,3.53,0,0,0,2,1.17,2.3,2.3,0,0,0,2.16-.69,6.08,6.08,0,0,0,1.19-2.79,21.28,21.28,0,0,0,.44-3,48.7,48.7,0,0,0,0-5.81c-.09-1.86-.19-3.63-.15-5.29a22.16,22.16,0,0,1,.57-4.6,12.48,12.48,0,0,1,3-5.94A7.24,7.24,0,0,1,92.05,15.74Z"/><path class="cls-5" d="M147.12,33.75s0,0-.14.12l-.45.32a6.4,6.4,0,0,1-.76.48,11.11,11.11,0,0,1-1.1.56A15.84,15.84,0,0,1,137,36.52a20.24,20.24,0,0,1-10.74-4.11,34.93,34.93,0,0,1-9.14-10.78c-1.28-2.18-2.31-4.41-3.45-6.47a23.62,23.62,0,0,0-3.94-5.48,12.06,12.06,0,0,0-5.11-3.19,8.81,8.81,0,0,0-2.71-.34,9.08,9.08,0,0,0-2.49.45,10.2,10.2,0,0,0-3.75,2.2,10.37,10.37,0,0,0-2.05,2.59,12,12,0,0,0-.95,2.67s0-.06,0-.19,0-.33.09-.54a8.48,8.48,0,0,1,.7-2,10.1,10.1,0,0,1,2-2.69,10.42,10.42,0,0,1,3.82-2.31,9.53,9.53,0,0,1,2.57-.49,8.64,8.64,0,0,1,2.82.33A12.43,12.43,0,0,1,110,9.4,24.19,24.19,0,0,1,114,15c1.16,2.08,2.2,4.3,3.46,6.46a35,35,0,0,0,9,10.68A20.11,20.11,0,0,0,137,36.22a16,16,0,0,0,7.58-1.14A24.82,24.82,0,0,0,147.12,33.75Z"/><path class="cls-5" d="M148.84,25.92a3.33,3.33,0,0,1-.65.44,13.35,13.35,0,0,1-1.9.94,19,19,0,0,1-3,.95,21.46,21.46,0,0,1-3.85.47,21.19,21.19,0,0,1-3.86-.31,19.2,19.2,0,0,1-3.05-.82,14.46,14.46,0,0,1-1.95-.87c-.44-.24-.68-.38-.66-.41s1,.45,2.7,1a22.87,22.87,0,0,0,3,.72,22.61,22.61,0,0,0,3.79.27,22.87,22.87,0,0,0,3.78-.42,22.53,22.53,0,0,0,3-.85C147.84,26.41,148.8,25.85,148.84,25.92Z"/><path class="cls-6" d="M191.07,177s-30.78-46.75-39.87-48.79l-8.1-2.31h0l-24.54-6.66s.18,9.46-13.5,9.76c-15.75.34-29-13.5-29-13.5s-32.74,10.2-39.62,15.74S40.93,201,40.93,201H160.74l-.09-.7Z"/><path class="cls-6" d="M36.16,131.22a35.86,35.86,0,0,0-13.24,21.45C20,167.08,14.05,201,14.05,201l50.08,0s-2.3-20.92-2.3-22.5-8.67-35.87-9.19-36.66S36.16,131.22,36.16,131.22Z"/><path class="cls-4" d="M43.8,132c-.13.23,3.58,2.1,7.17,5.64s5.6,7.15,5.82,7-1.5-4-5.24-7.61S43.85,131.84,43.8,132Z"/><path class="cls-4" d="M57.91,201a9.9,9.9,0,0,1-.06-1.74c0-1.2,0-2.8,0-4.73,0-4,0-9.51,0-15.61s-.24-11.61-.37-15.61c-.06-1.93-.11-3.52-.15-4.73a13.06,13.06,0,0,1,0-1.74,10.06,10.06,0,0,1,.2,1.73c.09,1.12.2,2.73.32,4.73.22,4,.44,9.51.52,15.61s0,11.63-.11,15.63c-.06,2-.13,3.61-.19,4.73A13.55,13.55,0,0,1,57.91,201Z"/><polygon class="cls-2" points="183.32 182.96 189.34 201.17 160.74 200.98 160.65 200.28 183.32 182.96"/><path class="cls-4" d="M153.85,152.5c.14,0,1.7,10.72,3.48,24s3.1,24,3,24.06-1.7-10.72-3.48-24S153.71,152.52,153.85,152.5Z"/><path class="cls-4" d="M148,20.17l2.05,0,6,0,23.24-.05h8c1.41,0,2.84,0,4.32,0A9,9,0,0,1,196,21.39a8,8,0,0,1,3.11,3.55,6.8,6.8,0,0,1,.57,2.4c.05.84,0,1.65,0,2.49q0,5,0,10.43c0,14.42-.07,30.87-.11,49.11v.18h-.18c-1.14,0-2.27,0-3.43,0a12.77,12.77,0,0,1-3.45-.66c-1.13-.37-2.16-1-3.24-1.4s-2.18-.88-3.31-1.27a42.77,42.77,0,0,0-7-1.79,23.36,23.36,0,0,0-3.64-.34,13.27,13.27,0,0,0-3.66.36,28.53,28.53,0,0,0-13.24,7.16,28.82,28.82,0,0,0-5,6,22.7,22.7,0,0,0-3,7.35,23.68,23.68,0,0,0,0,8.1c.11.68.19,1.36.33,2l.54,2a14.22,14.22,0,0,0,.68,2,20.13,20.13,0,0,0,.82,1.92,25.31,25.31,0,0,0,11.94,11.66,33.52,33.52,0,0,0,4,1.64,38.21,38.21,0,0,0,4.25,1.05,35.63,35.63,0,0,0,8.82.56,26.26,26.26,0,0,0,8.65-2.2,10.46,10.46,0,0,1,4.52-1h4.84v.24q0,19.44,0,40v18.14a12.06,12.06,0,0,1-.2,2.66,9.29,9.29,0,0,1-2.61,4.64,10.54,10.54,0,0,1-4.65,2.66,11.58,11.58,0,0,1-2.68.4c-.9,0-1.78,0-2.67,0H92.86L10,201.4a10.63,10.63,0,0,1-8.6-4.78A9,9,0,0,1,0,191.79V167.35q0-19.29,0-37.74v-.23H.25l4.35-.09A14.49,14.49,0,0,1,9,129.7,26.92,26.92,0,0,1,13,131.17a36.47,36.47,0,0,0,4,1.32,24.12,24.12,0,0,0,8.31.72,27.06,27.06,0,0,0,8-1.85,23.57,23.57,0,0,0,12-10.39,25.2,25.2,0,0,0,2.85-15.21A21.05,21.05,0,0,0,46,98.49a20.41,20.41,0,0,0-4.84-5.72,22.47,22.47,0,0,0-6.43-3.66,29.53,29.53,0,0,0-3.5-1.1c-.59-.16-1.19-.24-1.79-.37a13.59,13.59,0,0,0-1.79-.28l-1.8-.2c-.6-.06-1.2-.06-1.8-.08a12.24,12.24,0,0,0-3.53.2,37.07,37.07,0,0,0-6.59,2.46,18,18,0,0,1-3.35,1.09,18.67,18.67,0,0,1-3.47.32l-6.8.36H.06v-.2c0-20.56,0-39.17,0-55.52,0-2,0-4,0-6a29.05,29.05,0,0,1,.07-3,7,7,0,0,1,1-2.75,8.35,8.35,0,0,1,4.33-3.5A14.65,14.65,0,0,1,10.82,20l19.15,0,26.52.05,6.89,0,2.35,0-2.35,0-6.89,0L30,20.27l-19.15,0a14.21,14.21,0,0,0-5.26.54,8.07,8.07,0,0,0-4.18,3.38,6.87,6.87,0,0,0-.92,2.65C.36,27.8.41,28.8.4,29.78v6c0,16.35,0,35,0,55.52l-.2-.19L7,90.76a17.67,17.67,0,0,0,3.41-.32,16.9,16.9,0,0,0,3.27-1.07,38.79,38.79,0,0,1,6.67-2.49A12.64,12.64,0,0,1,24,86.67c.6,0,1.21,0,1.81.08l1.82.2a16,16,0,0,1,1.82.29c.6.12,1.21.21,1.81.36a31.76,31.76,0,0,1,3.55,1.12,22.76,22.76,0,0,1,6.54,3.72,20.65,20.65,0,0,1,5,5.84,21.36,21.36,0,0,1,2.37,7.42,25.59,25.59,0,0,1-2.89,15.49,24,24,0,0,1-12.22,10.6,27.45,27.45,0,0,1-8.18,1.88,24.46,24.46,0,0,1-8.46-.72,34.89,34.89,0,0,1-4.09-1.34,27.11,27.11,0,0,0-4-1.45,14,14,0,0,0-4.23-.4l-4.35.09.23-.24q0,18.42,0,37.74,0,9.66,0,19.51c.13,3.24-.57,6.74,1.33,9.49A10.11,10.11,0,0,0,10,200.89l82.83,0H187a19.14,19.14,0,0,0,5.21-.39,9.56,9.56,0,0,0,6.91-6.93,12,12,0,0,0,.19-2.55v-7.82q0-5.19,0-10.32,0-20.5,0-40l.23.23-4.6,0a9.86,9.86,0,0,0-4.33.94,26.55,26.55,0,0,1-8.8,2.24,36.54,36.54,0,0,1-8.94-.58,39.28,39.28,0,0,1-4.31-1.06,36.35,36.35,0,0,1-4.08-1.67,25.78,25.78,0,0,1-12.14-11.88c-.35-.61-.54-1.31-.83-2a13.09,13.09,0,0,1-.68-2l-.55-2c-.14-.69-.22-1.38-.34-2.07a24.06,24.06,0,0,1,0-8.25,23,23,0,0,1,3.08-7.48,29.44,29.44,0,0,1,5.08-6.11,28.82,28.82,0,0,1,13.44-7.24,13.94,13.94,0,0,1,3.75-.38,23.78,23.78,0,0,1,3.69.36,42.39,42.39,0,0,1,7.05,1.82c1.13.39,2.24.82,3.33,1.28s2.12,1,3.21,1.39a12.43,12.43,0,0,0,3.34.65c1.13,0,2.29,0,3.42,0l-.18.18c.07-18.24.13-34.69.18-49.11q0-5.4,0-10.43c0-.83,0-1.67,0-2.47a6.52,6.52,0,0,0-.55-2.32,7.71,7.71,0,0,0-3-3.45,8.89,8.89,0,0,0-4.22-1.29c-1.46,0-2.91,0-4.31,0h-8l-23.24-.05-6,0Z"/></g></g></svg>