<svg xmlns="http://www.w3.org/2000/svg" viewBox="0 0 273.93 213.76"><defs><style>.cls-1{fill:#e0e0e0;}.cls-2{fill:#263238;}.cls-3{fill:#ffbf9d;}.cls-4{fill:#ff9a6c;}.cls-5{fill:#455a64;}.cls-6{fill:#13097b;}.cls-7{fill:#fff;}</style></defs><g id="Слой_2" data-name="Слой 2"><g id="Character_4" data-name="Character 4"><path class="cls-1" d="M237.1.21H59.7A10.09,10.09,0,0,0,49.61,10.3V75.7H45.19a13.59,13.59,0,0,1-5.93-1.43,27.22,27.22,0,1,0-.82,49.45,13.71,13.71,0,0,1,5.49-1.21h5.68v63.78A10.08,10.08,0,0,0,59.7,196.37H237.1a8.21,8.21,0,0,0,8.22-8.21V8.42A8.22,8.22,0,0,0,237.1.21Z"/><path class="cls-2" d="M237.1.21l.56,0a4.82,4.82,0,0,1,.68.06,5.7,5.7,0,0,1,.94.2,8.16,8.16,0,0,1,5,3.86,8.56,8.56,0,0,1,1.09,4.59c0,1.75,0,3.67,0,5.74,0,4.15,0,8.94,0,14.33,0,21.57.05,52.76.08,91.31,0,19.28,0,40.39,0,63.06,0,1.41,0,2.83,0,4.26a11.51,11.51,0,0,1-.17,2.18,8.46,8.46,0,0,1-7.86,6.76l-17.85,0H182.42l-80,0H60.15a10.73,10.73,0,0,1-5.31-1.21,10.46,10.46,0,0,1-4-3.76,10.34,10.34,0,0,1-1.51-5.28V159q0-18.47,0-36.51l.25.26H45.29c-.72,0-1.44,0-2.14,0a12.14,12.14,0,0,0-2.08.31,12.7,12.7,0,0,0-2,.64c-.65.26-1.32.56-2,.81a26.19,26.19,0,0,1-4.15,1.19,26.76,26.76,0,0,1-4.28.52,17.17,17.17,0,0,1-2.15,0c-.71,0-1.43-.06-2.14-.13a30.25,30.25,0,0,1-8.21-2.27,30.91,30.91,0,0,1-7.08-4.64,31.28,31.28,0,0,1-5.3-6.52,29.67,29.67,0,0,1-3.06-7.77c-.16-.67-.24-1.36-.36-2l-.16-1c0-.35-.05-.7-.07-1L0,98.73l.11-2.07A27.24,27.24,0,0,1,6,81.61a27.36,27.36,0,0,1,32.44-8A19,19,0,0,0,42,75a13.13,13.13,0,0,0,3.75.42h3.82l-.23.24c0-19,0-37.32,0-54.8V14.39c0-1.08,0-2.15,0-3.23a12.57,12.57,0,0,1,.28-3.23A10.32,10.32,0,0,1,53,2.48,10.92,10.92,0,0,1,55.72.8,11,11,0,0,1,58.81,0C67.15,0,75.2,0,83.06,0l81.77.06,53.26.06,14.14,0,3.64,0,1.23,0-1.23,0-3.64,0-14.14,0L164.83.36,83.06.41c-7.84,0-16,0-24.22.06a10.51,10.51,0,0,0-3,.72,10.67,10.67,0,0,0-2.6,1.62A9.86,9.86,0,0,0,50.1,8a12.5,12.5,0,0,0-.27,3.13v3.23q0,3.24,0,6.51c0,17.48,0,35.78,0,54.8v.24H45.79a13.73,13.73,0,0,1-3.87-.43,18.75,18.75,0,0,1-3.63-1.42,28.29,28.29,0,0,0-3.62-1.29A26.91,26.91,0,0,0,.62,96.7l-.11,2,.1,2c0,.34,0,.68.06,1l.16,1c.12.67.2,1.35.36,2a29.36,29.36,0,0,0,3,7.62,30.43,30.43,0,0,0,5.21,6.4,30.4,30.4,0,0,0,6.94,4.56,29.86,29.86,0,0,0,8.06,2.22c.7.06,1.4.08,2.1.12a16.51,16.51,0,0,0,2.11,0,27.06,27.06,0,0,0,4.2-.51,26.54,26.54,0,0,0,4.07-1.16c.67-.25,1.3-.53,2-.82A15.36,15.36,0,0,1,41,122.6a14.37,14.37,0,0,1,2.17-.32c.74,0,1.45,0,2.17,0h4.58v.26q0,18,0,36.51,0,11,0,21.92c0,1.82,0,3.63,0,5.44A9.83,9.83,0,0,0,55.09,195a10.18,10.18,0,0,0,5.06,1.16H182.42l37.24,0,17.83,0a8,8,0,0,0,6.77-4.42,8.06,8.06,0,0,0,.68-2,10.45,10.45,0,0,0,.16-2.1v-4.26c0-22.67,0-43.78,0-63.06,0-38.55.07-69.74.09-91.31,0-5.39,0-10.18,0-14.33,0-2.07,0-4,0-5.74A8.37,8.37,0,0,0,244.2,4.4,8.14,8.14,0,0,0,239.27.54a7.38,7.38,0,0,0-.93-.21,5.3,5.3,0,0,0-.68-.08Z"/><path class="cls-2" d="M193.85,109.4c-.43-12.08-.88-24.21-3.2-36.07s-5.24-23.42-12.71-32.95l-69.89,3.71c-2.69,10.71-5.41,21.67-4.29,32.65,1.09,10.66,5.77,21,5,31.64-.53,7.55-3.74,14.61-6.11,21.8s-3.89,15.18-1.07,22.21a9.3,9.3,0,0,0,3.34,4.54c2,1.27,4.47,1.32,6.82,1.33q41.91.06,83.79-1.91Q194.7,132.88,193.85,109.4Z"/><path class="cls-2" d="M183.2,70.38a52.61,52.61,0,0,1-16.95,39.85l-7.57-21.81"/><path class="cls-2" d="M126.09,27c6.5-3.54,14.36-4,21.62-2.6s14,4.72,20.46,8.41c3.6,2.07,7.19,4.34,9.77,7.58,4.72,5.9,9.39,15.6,9.85,23.13.37,6.09-2,21.33-4.57,26.86-2.37,5.08-13.49,8.94-19,10.19L113.88,42.35A25.34,25.34,0,0,1,126.09,27Z"/><path class="cls-2" d="M117.41,34.84l12.07-2.15c-6.6,15.63-8.39,51.35-12.16,67.87-4.45-6.42-14.79-26-14.24-33.74S103.06,33.51,117.41,34.84Z"/><path class="cls-3" d="M174.64,60.79A20.53,20.53,0,0,0,159.25,42l-27.92-7.08c-12-1.29-20,13.4-20.83,25.39-.87,13.31-1.41,27.37.16,37.31,3.14,20,18.55,22.57,18.55,22.57s0,4.61,0,10.45l.32.73c7.14,16.75,30.73,17.52,39,1.28h0l6.21-71.56C174.72,60.73,174.67,61.34,174.64,60.79Z"/><path class="cls-2" d="M114.36,75.29a2.57,2.57,0,0,0,2.48,2.6,2.47,2.47,0,0,0,2.66-2.31A2.57,2.57,0,0,0,117,73,2.45,2.45,0,0,0,114.36,75.29Z"/><path class="cls-2" d="M113.52,68.14c.32.33,2.28-1.1,5-1.09s4.81,1.4,5.11,1.06c.15-.15-.18-.75-1.06-1.39a7.14,7.14,0,0,0-4.09-1.27,6.89,6.89,0,0,0-4,1.28C113.66,67.38,113.37,68,113.52,68.14Z"/><path class="cls-2" d="M139.62,74.94a2.57,2.57,0,0,0,2.48,2.6,2.47,2.47,0,0,0,2.66-2.31,2.57,2.57,0,0,0-2.48-2.59A2.45,2.45,0,0,0,139.62,74.94Z"/><path class="cls-2" d="M139.87,68.14c.32.33,2.28-1.1,5-1.09s4.81,1.4,5.11,1.06c.15-.15-.17-.75-1.06-1.39a7.06,7.06,0,0,0-4.09-1.27,6.89,6.89,0,0,0-4,1.28C140,67.38,139.72,68,139.87,68.14Z"/><path class="cls-2" d="M131.2,89.8c0-.16-1.71-.46-4.51-.82-.7-.08-1.38-.22-1.49-.7a3.53,3.53,0,0,1,.47-2.08l2.11-5.36c2.93-7.63,5.05-13.9,4.74-14s-2.94,6-5.86,13.61c-.71,1.88-1.38,3.67-2,5.39a4.1,4.1,0,0,0-.38,2.76,1.76,1.76,0,0,0,1.17,1,4.67,4.67,0,0,0,1.2.17C129.44,89.94,131.19,90,131.2,89.8Z"/><path class="cls-4" d="M155.87,113.08s-6.54,13.72-26.66,11.81v-4.7A50.93,50.93,0,0,0,155.87,113.08Z"/><path class="cls-2" d="M140.74,58.17c.27.75,3,.4,6.3.8s5.88,1.28,6.32.61c.19-.32-.26-1-1.32-1.75a11.14,11.14,0,0,0-9.62-1.08C141.23,57.23,140.63,57.81,140.74,58.17Z"/><path class="cls-2" d="M114.43,59.7c.48.63,2.4,0,4.7,0s4.24.43,4.69-.23c.2-.32-.11-.94-1-1.54a6.86,6.86,0,0,0-7.57.22C114.48,58.75,114.21,59.39,114.43,59.7Z"/><path class="cls-2" d="M116,42.06c1.22-3,4.55-4.82,7.81-5a17.15,17.15,0,0,1,9.27,2.69c12,6.88,18.13,23.49,30,30.61,2.91,1.75,6.7.15,9.17,2.46s4.08,6,2.71,9.12a27.94,27.94,0,0,0,4.11-6.9,9.41,9.41,0,0,0-.34-7.79c-1-1.76-2.83-3.11-3.32-5.08-.44-1.74.25-3.55.17-5.34a11.53,11.53,0,0,0-1.84-5.1c-4.63-8.15-11-15.52-19.22-20.1a34.27,34.27,0,0,0-17.64-4.54A26.13,26.13,0,0,0,120,33.74c-2.64,2.45-5.43,5-4,8.32"/><path class="cls-3" d="M171.89,75.32c.21-.57,10.7-4.33,10.84,6.75.13,10.76-10.79,8.64-10.82,8.33S171.89,75.32,171.89,75.32Z"/><path class="cls-4" d="M175.22,86.29s.19.13.51.28a1.92,1.92,0,0,0,1.41,0c1.14-.43,2.08-2.24,2.12-4.18a6.23,6.23,0,0,0-.55-2.68,2.18,2.18,0,0,0-1.44-1.43,1,1,0,0,0-1.11.53c-.14.3-.07.51-.12.53s-.24-.18-.16-.62a1.24,1.24,0,0,1,.42-.68,1.44,1.44,0,0,1,1-.28,2.63,2.63,0,0,1,2,1.65,6.28,6.28,0,0,1,.68,3c0,2.17-1.14,4.21-2.7,4.68a2.05,2.05,0,0,1-1.73-.27C175.24,86.55,175.18,86.31,175.22,86.29Z"/><path class="cls-5" d="M176.2,69.79a4.87,4.87,0,0,1-.65-.36c-.42-.26-1.06-.61-1.82-1.15A37.66,37.66,0,0,1,167.88,63a104.12,104.12,0,0,1-7.15-9.23A84.93,84.93,0,0,0,151.8,42.7,34.28,34.28,0,0,0,146,38.17a28.44,28.44,0,0,0-6.23-2.81A30.76,30.76,0,0,0,128.33,34a29.73,29.73,0,0,0-7.69,1.49c-.89.27-1.54.57-2,.74a3.68,3.68,0,0,1-.71.25,4.74,4.74,0,0,1,.67-.34,18.34,18.34,0,0,1,2-.83,28.24,28.24,0,0,1,7.72-1.66,30.87,30.87,0,0,1,11.64,1.32,27.73,27.73,0,0,1,6.34,2.83,33.6,33.6,0,0,1,5.86,4.59,81.52,81.52,0,0,1,9,11.15,113.68,113.68,0,0,0,7,9.26,40.49,40.49,0,0,0,5.7,5.37c.74.55,1.36.92,1.76,1.21A4.76,4.76,0,0,1,176.2,69.79Z"/><path class="cls-2" d="M173.48,72.84c.17,2.93.3,6-1.07,8.65s-4.81,4.39-7.38,2.93c-2.1-1.19-2.73-3.86-3.08-6.24-1-6.85-1.5-13.78-2.59-20.63Z"/><path class="cls-5" d="M118.63,36.93c0,.07,1-.17,2.69-.23a18.57,18.57,0,0,1,7.17,1.3A23.92,23.92,0,0,1,133,40.3a47.28,47.28,0,0,1,4.63,3.52,54.84,54.84,0,0,1,9.07,9.71c1.38,1.92,2.59,3.9,3.91,5.72a27.29,27.29,0,0,0,4.35,4.86,47.87,47.87,0,0,0,9.15,6.08c2.77,1.46,5.08,2.48,6.68,3.18l1.85.79a3,3,0,0,0,.67.23,2.64,2.64,0,0,0-.61-.34l-1.81-.89c-1.56-.77-3.85-1.85-6.58-3.34a49.92,49.92,0,0,1-9-6.13,26.57,26.57,0,0,1-4.23-4.78c-1.3-1.81-2.51-3.79-3.9-5.73a54.94,54.94,0,0,0-9.2-9.79,49.61,49.61,0,0,0-4.73-3.51,23.16,23.16,0,0,0-4.61-2.28,18,18,0,0,0-7.33-1.13,12.39,12.39,0,0,0-2,.27A3.7,3.7,0,0,0,118.63,36.93Z"/><path class="cls-3" d="M205.09,166.09l32.15,34.24c5.3,5.64,9.15,10.81,16.67,12.78,5.26,1.38,13.53.66,16.25-2.81,3.74-4.76,5.53-14.53,1.43-20.82s-32.87-34.29-32.87-34.29l-33.63,10.9"/><path class="cls-6" d="M249.61,163.11s-33.4-39.62-46.09-39.62c0,0-8,14-8.3,21.71s25.7,43.53,25.7,43.53Z"/><path class="cls-6" d="M214,176l-10.61-52.59-34.35-.36c-12.65,14.31-25.57,24.56-40.3,8.1L92.61,145.37l9.4,51.07,109.08-.07C215.34,182.38,214,176,214,176Z"/><path class="cls-6" d="M68.29,196.37c0-2.11,12.1-46,24.32-51l9.44,14.48,2.67,36.57Z"/><path class="cls-2" d="M220.92,188.73a6.36,6.36,0,0,1-.9-1c-.55-.65-1.32-1.62-2.26-2.83-1.88-2.41-4.39-5.81-7.18-9.54s-5.39-7.07-7.33-9.42c-1-1.18-1.76-2.13-2.31-2.78a7.18,7.18,0,0,1-.82-1,5.92,5.92,0,0,1,1,.91c.6.61,1.44,1.53,2.44,2.68,2,2.3,4.67,5.61,7.46,9.34s5.27,7.17,7.07,9.64l2.12,2.93A6.62,6.62,0,0,1,220.92,188.73Z"/><path class="cls-2" d="M97.62,196.9a7.74,7.74,0,0,1-.39-1.27c-.23-.82-.5-2-.79-3.51a73.87,73.87,0,0,1-1.26-11.83,72.81,72.81,0,0,1,.67-11.87c.22-1.51.43-2.72.62-3.55a6.58,6.58,0,0,1,.32-1.28,6.09,6.09,0,0,1-.12,1.31c-.13.84-.28,2.06-.45,3.57a86.24,86.24,0,0,0,.58,23.58c.24,1.5.46,2.71.63,3.54A7.51,7.51,0,0,1,97.62,196.9Z"/><path class="cls-2" d="M96.59,133c0,.14.38.24,1.08.22a7.89,7.89,0,0,0,2.94-.75,12.4,12.4,0,0,0,3.89-2.89,15.77,15.77,0,0,0,3.25-5.54,27.3,27.3,0,0,0,1.36-7.48c.15-2.69.1-5.48,0-8.44-.24-5.9-.94-12.32-1.72-19s-1.5-13-1.78-18.72a108.53,108.53,0,0,1,.18-15.2c.76-8.63,2.57-13.79,2-14-.13,0-.38.22-.73.79-.17.29-.37.65-.59,1.08s-.43.95-.68,1.53a48.65,48.65,0,0,0-2.85,10.24,84.13,84.13,0,0,0-1.08,15.71,190.93,190.93,0,0,0,1.49,19.06c.78,6.69,1.58,13,2,18.74.21,2.87.38,5.62.38,8.11a26.7,26.7,0,0,1-.74,6.74,13.77,13.77,0,0,1-5.15,7.9C97.93,132.39,96.54,132.64,96.59,133Z"/><path class="cls-4" d="M132.82,95.08a5,5,0,0,1,4.38-2,4.54,4.54,0,0,1,3.2,1.55,2.85,2.85,0,0,1,.35,3.26,3.35,3.35,0,0,1-3.58,1.05,10.6,10.6,0,0,1-3.61-2,3.05,3.05,0,0,1-.82-.78.91.91,0,0,1,0-1"/><path class="cls-2" d="M139.59,90.1c-.45,0-.34,3-2.82,5.17s-5.68,2-5.69,2.43c0,.19.73.55,2.08.53a7.44,7.44,0,0,0,4.75-1.85A6.46,6.46,0,0,0,140.09,92C140.15,90.8,139.79,90.07,139.59,90.1Z"/><path class="cls-2" d="M191.43,77.76c3.79,13.75.58,32.13,4.32,43.18s6.47,23.3,2.24,34.16l-5.84-12.84a16.46,16.46,0,0,1-1.25,15.9c-3.12,4.61-18.84,8.54-24.43,8.28-5.65-29.82-4.09-52.62,5.67-75.67l7.54,8.33,6.79-2.9Z"/><path class="cls-5" d="M132,74.25a21.78,21.78,0,0,1,.49-3.13,12.08,12.08,0,0,1,1.45-3.39,12.83,12.83,0,0,1,8.67-6,12.89,12.89,0,0,1,6.71.56,12.32,12.32,0,0,1,3.23,1.73A14,14,0,0,1,154,65.28a13.65,13.65,0,0,1,1.25,1.47,12.55,12.55,0,0,1,0,15A16.28,16.28,0,0,1,154,83.22a15.11,15.11,0,0,1-1.45,1.22,12,12,0,0,1-3.23,1.73,13,13,0,0,1-6.71.57,12.82,12.82,0,0,1-5.4-2.37,12.65,12.65,0,0,1-3.27-3.6,12.25,12.25,0,0,1-1.45-3.4,21.78,21.78,0,0,1-.49-3.12,1.66,1.66,0,0,0,0,.21c0,.16,0,.36,0,.61a5.53,5.53,0,0,0,.08,1,8.68,8.68,0,0,0,.24,1.34,12.16,12.16,0,0,0,1.41,3.47,13.1,13.1,0,0,0,8.8,6.19,13.22,13.22,0,0,0,6.91-.55,12,12,0,0,0,3.33-1.77,13.71,13.71,0,0,0,1.5-1.26A14.45,14.45,0,0,0,155.55,82a12.93,12.93,0,0,0,0-15.47A14.45,14.45,0,0,0,154.26,65a13.71,13.71,0,0,0-1.5-1.26A12.3,12.3,0,0,0,149.43,62a13.22,13.22,0,0,0-6.91-.55,13.05,13.05,0,0,0-5.5,2.47,12.83,12.83,0,0,0-3.3,3.72,12.16,12.16,0,0,0-1.41,3.47,8.79,8.79,0,0,0-.24,1.35,5.43,5.43,0,0,0-.08,1c0,.25,0,.46,0,.62A1.66,1.66,0,0,0,132,74.25Z"/><path class="cls-5" d="M102.9,73.69a20.85,20.85,0,0,1,.48-3.13,12.38,12.38,0,0,1,1.45-3.39,12.86,12.86,0,0,1,15.38-5.41,12,12,0,0,1,3.23,1.74,13.78,13.78,0,0,1,1.45,1.22,14.69,14.69,0,0,1,1.25,1.47,12.58,12.58,0,0,1,0,15,14.69,14.69,0,0,1-1.25,1.47,15.11,15.11,0,0,1-1.45,1.22,11.74,11.74,0,0,1-3.23,1.73,12.86,12.86,0,0,1-15.38-5.4,12.51,12.51,0,0,1-1.45-3.39,20.85,20.85,0,0,1-.48-3.13.67.67,0,0,0,0,.21c0,.16,0,.36,0,.61a6.63,6.63,0,0,0,.08,1,8.81,8.81,0,0,0,.25,1.34,12.15,12.15,0,0,0,1.4,3.48,13,13,0,0,0,8.81,6.18,13.17,13.17,0,0,0,6.9-.54,12.64,12.64,0,0,0,3.34-1.77,16,16,0,0,0,1.49-1.26,13.45,13.45,0,0,0,1.29-1.52,12.91,12.91,0,0,0,0-15.46,14.57,14.57,0,0,0-1.29-1.52,16,16,0,0,0-1.49-1.26,12.64,12.64,0,0,0-3.34-1.77,13.17,13.17,0,0,0-6.9-.54,13,13,0,0,0-8.81,6.18,12.22,12.22,0,0,0-1.4,3.47,9.15,9.15,0,0,0-.25,1.35,6.53,6.53,0,0,0-.08,1c0,.25,0,.45,0,.61A.67.67,0,0,0,102.9,73.69Z"/><path class="cls-5" d="M128.58,72.09s.2-.17.5-.4a2.46,2.46,0,0,1,2.73-.21c.33.18.52.35.56.31s-.06-.28-.4-.55a2.31,2.31,0,0,0-1.59-.48,2.24,2.24,0,0,0-1.49.72C128.6,71.8,128.53,72.07,128.58,72.09Z"/><path class="cls-5" d="M157.48,71a80.26,80.26,0,0,0,7.86,1.85,78.43,78.43,0,0,0,7.94,1.46c0-.11-3.5-.94-7.86-1.86A76.59,76.59,0,0,0,157.48,71Z"/><path class="cls-7" d="M151.52,83.28a2,2,0,0,0,.78-.33,7,7,0,0,0,1.7-1.54,10.63,10.63,0,0,0,1.71-2.93,11.71,11.71,0,0,0,.75-4.08,12.58,12.58,0,0,0-2.2-7.12,10.44,10.44,0,0,0-1.49-1.74,3.3,3.3,0,0,0-.66-.51,22.21,22.21,0,0,1,1.9,2.41,12.91,12.91,0,0,1,2,7,12,12,0,0,1-.69,3.95,11.65,11.65,0,0,1-1.59,2.89,8,8,0,0,1-1.56,1.58C151.78,83.13,151.5,83.24,151.52,83.28Z"/><path class="cls-7" d="M145.82,85.3a4.93,4.93,0,0,0,2.33-.34,4.84,4.84,0,0,0,2.09-1.08,11.34,11.34,0,0,0-2.22.69A11.77,11.77,0,0,0,145.82,85.3Z"/><path class="cls-7" d="M115.54,62.44c0,.07.88.07,2.24.37A12.8,12.8,0,0,1,126.29,69c.69,1.22.95,2,1,2a2,2,0,0,0-.13-.61,9.33,9.33,0,0,0-.64-1.55,11.94,11.94,0,0,0-8.7-6.39,10,10,0,0,0-1.68-.14A1.48,1.48,0,0,0,115.54,62.44Z"/><path class="cls-7" d="M126.65,77.19a3.66,3.66,0,0,0,.86-2A3.51,3.51,0,0,0,127.4,73c-.11,0-.09,1-.3,2.12A17.91,17.91,0,0,0,126.65,77.19Z"/><path class="cls-2" d="M155.8,169.88c.23.14,1.06-.65,2.23-2.34a34.52,34.52,0,0,0,3.81-7.79,61.19,61.19,0,0,0,2.91-12.47,148.76,148.76,0,0,0,1.11-15.45c.17-5.44.33-10.56.72-15.18a84.62,84.62,0,0,1,1.81-12.1c1.55-6.79,3.65-10.68,3.09-11-.23-.13-1,.67-2.19,2.38a35.43,35.43,0,0,0-3.69,7.84,62.75,62.75,0,0,0-2.78,12.49c-.62,4.77-.89,10-1.06,15.45s-.34,10.54-.77,15.15a81.28,81.28,0,0,1-1.93,12.07C157.42,165.69,155.24,169.54,155.8,169.88Z"/><path class="cls-1" d="M180,89.87s.24.21.6.65a4.22,4.22,0,0,1,.88,2.19,3.76,3.76,0,0,1-1.16,3.16A4.14,4.14,0,0,1,176.4,97a4.47,4.47,0,0,1-3.11-2.7,4.94,4.94,0,0,1,0-3.44A3.24,3.24,0,0,1,174.75,89a2.85,2.85,0,0,1,.85-.23s-.08,0-.24,0a1.61,1.61,0,0,0-.68.12A3.35,3.35,0,0,0,173,90.72a5.17,5.17,0,0,0-.08,3.68,4.82,4.82,0,0,0,3.36,3,4.44,4.44,0,0,0,2.4-.07,4.64,4.64,0,0,0,1.9-1.16,4.29,4.29,0,0,0,1.05-1.72,4.09,4.09,0,0,0,.13-1.75,4.15,4.15,0,0,0-1.05-2.25A1.93,1.93,0,0,0,180,89.87Z"/><path class="cls-3" d="M248.53,119.49l-1-13L244.83,90l-4.14-13.49s-.84-1.27-2.48-.06.69,8.56.69,8.56l.89,5.62s-.55,4.47-.92,4.14-2.29-7.84-2.29-7.84l-5-16a2.2,2.2,0,0,0-2.9-.84c-1.09.47-1.64,2.18-1.24,4.59s1.91,6.4,2.18,7.77,2,9.23,2,9.23l-7.56-17.73s-1.68-5.85-4.08-4.72-.27,5.22,0,7.06,5.28,13.92,5.36,17.43-.67,1.84-.67,1.84-2.07-5.59-3.71-10-3.64-6.84-5.64-7,1.77,10.08,1.77,10.08l4.93,14.3-.32,4.75-3.75-3.84s-.69-5.49-4.39-7.42-4.32.76-4.32.76l8.75,20.6c1.9,3.31,12.51,9,12.51,9L234.7,148l22.18-3.69Z"/><path class="cls-4" d="M240,112.63c-.1.12-1.25-.81-3.19-2.13s-4.91-3-8.39-2.43a6.47,6.47,0,0,0-3.81,1.86l-.33.35-.37-.38c-1.6-1.7-3.29-3.14-4.31-4.21s-1.62-1.78-1.52-1.85a12.23,12.23,0,0,1,1.89,1.44,59.83,59.83,0,0,1,4.66,4.06l-.69,0a7.15,7.15,0,0,1,4.34-2.2,10,10,0,0,1,5.25.68,15.88,15.88,0,0,1,3.68,2.16A11.59,11.59,0,0,1,240,112.63Z"/><polygon class="cls-3" points="243.21 195.26 231.35 129.33 249.3 121.55 273.53 194.22 243.21 195.26"/><path class="cls-4" d="M244.88,195.87a16.72,16.72,0,0,1-.79-2.66c-.46-1.73-1.08-4.24-1.81-7.35-1.47-6.21-3.35-14.83-5.28-24.37s-3.58-18.21-4.71-24.49c-.53-3-1-5.55-1.31-7.45a19.73,19.73,0,0,1-.36-2.75,17.22,17.22,0,0,1,.69,2.69l1.57,7.39c1.3,6.39,3,15,5,24.44s3.71,18,5,24.41c.63,3,1.15,5.51,1.54,7.4A16.37,16.37,0,0,1,244.88,195.87Z"/></g></g></svg>