<svg xmlns="http://www.w3.org/2000/svg" xmlns:xlink="http://www.w3.org/1999/xlink" viewBox="0 0 2176.59 1425.34"><defs><style>.cls-1{fill:url(#linear-gradient);}.cls-2{fill:#91b3fa;}.cls-3{fill:#bdd0fb;}.cls-4{fill:url(#linear-gradient-2);}.cls-5{fill:url(#linear-gradient-3);}.cls-6{fill:#009688;}.cls-7{fill:#ffd230;}.cls-8{fill:#ffd330;}.cls-9{fill:url(#linear-gradient-4);}.cls-10{fill:url(#linear-gradient-5);}.cls-11{fill:url(#linear-gradient-6);}.cls-12{fill:#00a99d;}.cls-13{fill:url(#linear-gradient-7);}.cls-14{fill:url(#linear-gradient-8);}.cls-15{fill:url(#linear-gradient-9);}.cls-16{fill:#fff;}.cls-17{fill:url(#linear-gradient-10);}.cls-18{fill:#f60;}.cls-19{fill:url(#linear-gradient-11);}.cls-20{fill:#ff7000;}.cls-21{fill:url(#linear-gradient-12);}.cls-22{fill:#ec671b;}.cls-23{fill:url(#linear-gradient-13);}.cls-24{fill:#f63;}.cls-25{fill:url(#linear-gradient-14);}.cls-26{fill:url(#linear-gradient-15);}.cls-27{fill:url(#linear-gradient-16);}.cls-28{fill:url(#linear-gradient-17);}.cls-29{fill:#7d97f4;}.cls-30{fill:#ffe34a;}.cls-31{fill:url(#linear-gradient-18);}.cls-32{fill:url(#linear-gradient-19);}.cls-33{fill:url(#linear-gradient-20);}.cls-34{fill:url(#linear-gradient-21);}.cls-35{fill:url(#linear-gradient-22);}.cls-36{fill:url(#linear-gradient-23);}.cls-37{fill:url(#linear-gradient-24);}.cls-38{fill:url(#linear-gradient-25);}.cls-39{fill:url(#linear-gradient-26);}.cls-40{fill:url(#linear-gradient-27);}.cls-41{fill:url(#linear-gradient-28);}.cls-42{fill:url(#linear-gradient-29);}.cls-43{fill:url(#linear-gradient-30);}.cls-44{fill:url(#linear-gradient-31);}.cls-45{fill:url(#linear-gradient-32);}.cls-46{fill:url(#linear-gradient-33);}.cls-47{fill:url(#linear-gradient-34);}.cls-48{fill:url(#linear-gradient-35);}.cls-49{fill:url(#linear-gradient-36);}.cls-50{fill:url(#linear-gradient-37);}.cls-51{fill:url(#linear-gradient-38);}.cls-52{fill:url(#linear-gradient-39);}.cls-53{fill:url(#linear-gradient-40);}.cls-54{fill:url(#linear-gradient-41);}.cls-55{fill:url(#linear-gradient-42);}.cls-56{fill:url(#linear-gradient-43);}.cls-57{fill:url(#linear-gradient-44);}.cls-58{fill:url(#linear-gradient-45);}.cls-59{fill:url(#linear-gradient-46);}.cls-60{fill:url(#linear-gradient-47);}.cls-61{fill:url(#linear-gradient-48);}.cls-62{fill:url(#linear-gradient-49);}.cls-63{fill:url(#linear-gradient-50);}.cls-64{fill:url(#linear-gradient-51);}.cls-65{fill:url(#linear-gradient-52);}.cls-66{fill:#f5391f;}.cls-67{fill:url(#linear-gradient-53);}.cls-68{fill:url(#linear-gradient-54);}.cls-69{fill:url(#linear-gradient-55);}.cls-70{fill:url(#linear-gradient-56);}.cls-71{fill:url(#linear-gradient-57);}</style><linearGradient id="linear-gradient" x1="2429.39" y1="-39.94" x2="631.97" y2="1289" gradientTransform="translate(-252.59)" gradientUnits="userSpaceOnUse"><stop offset="0" stop-color="#dae3fe"/><stop offset="1" stop-color="#e9effd"/></linearGradient><linearGradient id="linear-gradient-2" x1="1478.65" y1="1165.33" x2="2010.74" y2="1165.33" gradientTransform="matrix(1, 0, 0, 1, 0, 0)" xlink:href="#linear-gradient"/><linearGradient id="linear-gradient-3" x1="1454.34" y1="632.6" x2="1859.56" y2="632.6" gradientTransform="matrix(1, 0, 0, 1, 0, 0)" xlink:href="#linear-gradient"/><linearGradient id="linear-gradient-4" x1="444.54" y1="728.37" x2="666.15" y2="581.87" gradientUnits="userSpaceOnUse"><stop offset="0" stop-color="#fe7062"/><stop offset="1" stop-color="#ff928e"/></linearGradient><linearGradient id="linear-gradient-5" x1="483.98" y1="800.63" x2="648.13" y2="692.11" xlink:href="#linear-gradient-4"/><linearGradient id="linear-gradient-6" x1="446.89" y1="867.39" x2="611.05" y2="758.87" xlink:href="#linear-gradient-4"/><linearGradient id="linear-gradient-7" x1="1312.76" y1="369.02" x2="1105.77" y2="597.01" gradientUnits="userSpaceOnUse"><stop offset="0" stop-color="#09005d"/><stop offset="1" stop-color="#1a0f91"/></linearGradient><linearGradient id="linear-gradient-8" x1="635.84" y1="548.9" x2="1081.14" y2="548.9" gradientTransform="matrix(1, 0, 0, 1, 0, 0)" xlink:href="#linear-gradient"/><linearGradient id="linear-gradient-9" x1="635.33" y1="577.72" x2="1080.63" y2="577.72" gradientTransform="matrix(1, 0, 0, 1, 0, 0)" xlink:href="#linear-gradient"/><linearGradient id="linear-gradient-10" x1="755.58" y1="793.38" x2="1063.65" y2="793.38" gradientTransform="matrix(1, 0, 0, 1, 0, 0)" xlink:href="#linear-gradient"/><linearGradient id="linear-gradient-11" x1="759.03" y1="663.35" x2="1067.1" y2="663.35" gradientTransform="matrix(1, 0, 0, 1, 0, 0)" xlink:href="#linear-gradient"/><linearGradient id="linear-gradient-12" x1="757.41" y1="917.49" x2="1065.48" y2="917.49" gradientTransform="matrix(1, 0, 0, 1, 0, 0)" xlink:href="#linear-gradient"/><linearGradient id="linear-gradient-13" x1="753.76" y1="1036.75" x2="1061.83" y2="1036.75" gradientTransform="matrix(1, 0, 0, 1, 0, 0)" xlink:href="#linear-gradient"/><linearGradient id="linear-gradient-14" x1="749.01" y1="1159.75" x2="1057.07" y2="1159.75" gradientTransform="matrix(1, 0, 0, 1, 0, 0)" xlink:href="#linear-gradient"/><linearGradient id="linear-gradient-15" x1="1051.44" y1="-254.25" x2="822.14" y2="47.39" gradientTransform="translate(-71.16 43.71) rotate(29.12)" xlink:href="#linear-gradient-7"/><linearGradient id="linear-gradient-16" x1="496.46" y1="3175.65" x2="259.76" y2="3487.02" gradientTransform="translate(516.87 -2884.86) rotate(1.01)" xlink:href="#linear-gradient-7"/><linearGradient id="linear-gradient-17" x1="466.64" y1="3194.69" x2="303.2" y2="3494.8" gradientTransform="translate(516.87 -2884.86) rotate(1.01)" xlink:href="#linear-gradient-7"/><linearGradient id="linear-gradient-18" x1="-3122.75" y1="527.32" x2="-3071.67" y2="527.32" gradientTransform="matrix(-1, 0, 0, 1, -1533.02, 0)" gradientUnits="userSpaceOnUse"><stop offset="0" stop-color="#ff928e"/><stop offset="1" stop-color="#feb3b1"/></linearGradient><linearGradient id="linear-gradient-19" x1="-3287.97" y1="951.7" x2="-3253.9" y2="951.7" gradientTransform="matrix(-1, 0, 0, 1, -1533.02, 0)" xlink:href="#linear-gradient-7"/><linearGradient id="linear-gradient-20" x1="-3284.52" y1="935.87" x2="-3270.7" y2="935.87" xlink:href="#linear-gradient-18"/><linearGradient id="linear-gradient-21" x1="-3215.51" y1="951.16" x2="-3162.05" y2="951.16" gradientTransform="matrix(-1, 0, 0, 1, -1533.02, 0)" xlink:href="#linear-gradient-7"/><linearGradient id="linear-gradient-22" x1="-3214.7" y1="929.73" x2="-3200.96" y2="929.73" xlink:href="#linear-gradient-18"/><linearGradient id="linear-gradient-23" x1="-3293.1" y1="807.83" x2="-3199.41" y2="807.83" gradientTransform="matrix(-1, 0, 0, 1, -1533.02, 0)" xlink:href="#linear-gradient-7"/><linearGradient id="linear-gradient-24" x1="1652.04" y1="568.88" x2="1707.54" y2="691.87" xlink:href="#linear-gradient-7"/><linearGradient id="linear-gradient-25" x1="-3075.36" y1="330.64" x2="-3073.86" y2="450.64" xlink:href="#linear-gradient-18"/><linearGradient id="linear-gradient-26" x1="-3027.67" y1="330.05" x2="-3026.17" y2="450.04" xlink:href="#linear-gradient-18"/><linearGradient id="linear-gradient-27" x1="-3131.25" y1="455.48" x2="-3238.14" y2="651.87" xlink:href="#linear-gradient-18"/><linearGradient id="linear-gradient-28" x1="-2850.6" y1="1119.07" x2="-2897.83" y2="1181.56" gradientTransform="matrix(-0.82, -0.58, -0.58, 0.82, -51.64, -2066.56)" xlink:href="#linear-gradient-18"/><linearGradient id="linear-gradient-29" x1="-2886.67" y1="1134.15" x2="-2830.25" y2="1134.15" gradientTransform="matrix(-0.82, -0.58, -0.58, 0.82, -51.64, -2066.56)" xlink:href="#linear-gradient-7"/><linearGradient id="linear-gradient-30" x1="-2919.78" y1="1168.56" x2="-2881.89" y2="1129.69" gradientTransform="matrix(-0.82, -0.58, -0.58, 0.82, -51.64, -2066.56)" xlink:href="#linear-gradient-18"/><linearGradient id="linear-gradient-31" x1="-1799.66" y1="891.02" x2="-1767.13" y2="972.62" gradientTransform="matrix(-1, 0, 0, 1, -847.46, 0)" xlink:href="#linear-gradient-7"/><linearGradient id="linear-gradient-32" x1="-2004.99" y1="-117.04" x2="-1944.9" y2="19.69" gradientTransform="matrix(-0.92, -0.39, -0.39, 0.92, -851.77, 288.13)" xlink:href="#linear-gradient-18"/><linearGradient id="linear-gradient-33" x1="-1680.75" y1="1413.42" x2="-1653.16" y2="1413.42" gradientTransform="matrix(-1, 0, 0, 1, -847.46, 0)" gradientUnits="userSpaceOnUse"><stop offset="0" stop-color="#4042e2"/><stop offset="1" stop-color="#4f52ff"/></linearGradient><linearGradient id="linear-gradient-34" x1="-1797.3" y1="1522.19" x2="-1757.61" y2="1058.26" gradientTransform="matrix(-1, 0, 0, 1, -847.46, 0)" xlink:href="#linear-gradient-18"/><linearGradient id="linear-gradient-35" x1="-1808.9" y1="1408.38" x2="-1764.27" y2="1408.38" xlink:href="#linear-gradient-33"/><linearGradient id="linear-gradient-36" x1="-1717.45" y1="1529.1" x2="-1677.75" y2="1065.04" gradientTransform="matrix(-1, 0, 0, 1, -847.46, 0)" xlink:href="#linear-gradient-18"/><linearGradient id="linear-gradient-37" x1="-1827.59" y1="1008.6" x2="-1690.61" y2="1484.22" gradientTransform="matrix(-1, 0, 0, 1, -847.46, 0)" xlink:href="#linear-gradient-7"/><linearGradient id="linear-gradient-38" x1="-1801.65" y1="1064.9" x2="-1794.2" y2="1010.35" gradientTransform="matrix(-1, 0, 0, 1, -847.46, 0)" xlink:href="#linear-gradient-18"/><linearGradient id="linear-gradient-39" x1="6824.06" y1="3960" x2="6918.53" y2="3960" gradientTransform="matrix(0.45, 0.89, 0.89, -0.45, -5623.48, -3332.89)" xlink:href="#linear-gradient-18"/><linearGradient id="linear-gradient-40" x1="-1820.47" y1="994.57" x2="-1755.42" y2="878.78" gradientTransform="matrix(-1, 0, 0, 1, -847.46, 0)" xlink:href="#linear-gradient-18"/><linearGradient id="linear-gradient-41" x1="-1806.48" y1="893.74" x2="-1773.95" y2="975.34" gradientTransform="matrix(-1, 0, 0, 1, -847.46, 0)" xlink:href="#linear-gradient-7"/><linearGradient id="linear-gradient-42" x1="-1806.63" y1="1002.35" x2="-1741.57" y2="886.57" gradientTransform="matrix(-1, 0, 0, 1, -847.46, 0)" xlink:href="#linear-gradient-18"/><linearGradient id="linear-gradient-43" x1="2058.02" y1="795.85" x2="2018.12" y2="918.15" gradientTransform="matrix(1, 0, 0, 1, 0, 0)" xlink:href="#linear-gradient-18"/><linearGradient id="linear-gradient-44" x1="2049.58" y1="1230.47" x2="2133.65" y2="1230.47" gradientTransform="matrix(1, 0, 0, 1, 0, 0)" xlink:href="#linear-gradient-18"/><linearGradient id="linear-gradient-45" x1="2165.14" y1="1042.45" x2="2123.5" y2="1313.09" gradientTransform="matrix(1, 0, 0, 1, 0, 0)" xlink:href="#linear-gradient-33"/><linearGradient id="linear-gradient-46" x1="2077.04" y1="1028.9" x2="2035.4" y2="1299.54" gradientTransform="matrix(1, 0, 0, 1, 0, 0)" xlink:href="#linear-gradient-33"/><linearGradient id="linear-gradient-47" x1="1998.56" y1="1236.72" x2="2047.25" y2="1236.72" gradientTransform="matrix(1, 0, 0, 1, 0, 0)" xlink:href="#linear-gradient-18"/><linearGradient id="linear-gradient-48" x1="2391.69" y1="803.26" x2="2076.66" y2="1055.29" xlink:href="#linear-gradient-7"/><linearGradient id="linear-gradient-49" x1="2013.32" y1="918.24" x2="2043.11" y2="918.24" gradientTransform="matrix(1, 0, 0, 1, 0, 0)" xlink:href="#linear-gradient-18"/><linearGradient id="linear-gradient-50" x1="2060.67" y1="879.74" x2="2277.53" y2="894.48" gradientTransform="matrix(1, 0, 0, 1, 0, 0)" xlink:href="#linear-gradient-18"/><linearGradient id="linear-gradient-51" x1="2096.31" y1="866.67" x2="2019.98" y2="1019.33" xlink:href="#linear-gradient-7"/><linearGradient id="linear-gradient-52" x1="1893.68" y1="867.3" x2="1988.99" y2="867.3" gradientTransform="matrix(1, 0, 0, 1, 0, 0)" xlink:href="#linear-gradient-18"/><linearGradient id="linear-gradient-53" x1="1708.89" y1="188.84" x2="1646.89" y2="106.84" gradientTransform="matrix(1, 0, 0, 1, 0, 0)" xlink:href="#linear-gradient-33"/><linearGradient id="linear-gradient-54" x1="1699.72" y1="41.08" x2="1661.72" y2="108.08" gradientTransform="matrix(1, 0, 0, 1, 0, 0)" xlink:href="#linear-gradient-33"/><linearGradient id="linear-gradient-55" x1="2333.5" y1="-581.7" x2="2117.48" y2="-329.68" gradientTransform="matrix(1, 0, 0, 1, 0, 0)" xlink:href="#linear-gradient-33"/><linearGradient id="linear-gradient-56" x1="-1827.6" y1="1948.1" x2="-1792.78" y2="1948.1" gradientTransform="matrix(0.01, -1, -1, -0.01, 3735.31, -1672.02)" xlink:href="#linear-gradient-7"/><linearGradient id="linear-gradient-57" x1="-1821.9" y1="1989.21" x2="-1798.9" y2="1989.21" gradientTransform="matrix(0.01, -1, -1, -0.01, 3735.31, -1672.02)" xlink:href="#linear-gradient-7"/></defs><g id="Слой_2" data-name="Слой 2"><g id="Illustration"><path class="cls-1" d="M2138.71,582.85C2080.94,502.23,1958.52,459,1955.34,338.2c-2.07-78.51,33.58-121.07-23.47-188.09C1794-11.9,1581.48-30.88,1400,36.8s-326.33,203.27-528,195.1c-109.82-4.46-211.86-56.56-320.56-66.34-33.49-3-64.78-.42-94.05,7.07-109.69,28.09-206.54,133.57-243,250.76-29.57,95,8.21,188.78-38.22,281.8-49.47,99.15-146.91,168-171.46,282.5-29.47,137.39,83.11,256.87,204,260.6,77,2.38,219.65-9.91,285-57.39,79.62-57.81,177.46,88.84,270.28,91.06,176.64,4.21,449.72-42.25,624.09-14,149.41,24.24,180.67-4.1,332.09.45,111.21,3.35,205.58,4.86,265.76-115.89C2058,1008.23,2259.87,752,2138.71,582.85Z"/><path class="cls-2" d="M485.91,639.9s-133.55-35.75-189.52-192C242,296,202,76.76,14.59,44.42A7.34,7.34,0,0,0,7.2,55.67c20.74,31.69,71.21,115.1,95.28,209.73C133.2,386.2,267.57,661.08,485.91,639.9Z"/><path class="cls-3" d="M63.41,92.87l.77.33.62.3c.42.19.81.39,1.19.59.78.39,1.53.8,2.28,1.21q2.25,1.23,4.4,2.56c1.46.86,2.86,1.8,4.28,2.7s2.79,1.88,4.14,2.87A189.91,189.91,0,0,1,96.78,116,213.48,213.48,0,0,1,124,145.32a254.19,254.19,0,0,1,21.72,33.51A269.81,269.81,0,0,1,162,215.23a328.8,328.8,0,0,1,11.26,38.15l2.13,9.71,1.8,9.77c.61,3.28,1.13,6.43,1.71,9.65s1.11,6.41,1.77,9.6a588.91,588.91,0,0,0,20.08,75.47l3.18,9.25,3.37,9.18c1.1,3.07,2.3,6.1,3.5,9.13s2.34,6.08,3.62,9.08c4.93,12.08,10.34,23.95,16,35.7s11.84,23.25,18.29,34.6,13.44,22.38,20.73,33.21,15.14,21.28,23.33,31.45,16.93,19.9,26.07,29.24a316.29,316.29,0,0,0,29.07,26.3,280.27,280.27,0,0,0,32.24,22.38,280.94,280.94,0,0,1-32.85-21.6,316.92,316.92,0,0,1-29.85-25.68A389.6,389.6,0,0,1,290.53,541q-12.66-15.12-24.11-31.21t-21.55-33.05c-6.71-11.31-13.13-22.81-19.11-34.53s-11.53-23.67-16.68-35.79c-1.34-3-2.52-6.08-3.79-9.11s-2.51-6.09-3.67-9.17L198.08,379l-3.35-9.29A595.38,595.38,0,0,1,173.3,293.6c-.72-3.22-1.35-6.46-2-9.7l-1.85-9.68-1.83-9.55-2.15-9.47a322,322,0,0,0-11.27-37.11,262.2,262.2,0,0,0-36.95-67.62c-4-5.07-8-10.05-12.42-14.74S96,126.41,91.26,122.12A181.4,181.4,0,0,0,76.39,110c-2.59-1.88-5.22-3.69-7.9-5.38-1.34-.86-2.69-1.67-4-2.46-.68-.38-1.36-.77-2-1.12-.34-.19-.68-.37-1-.52l-.48-.25-.36-.16-.32-.15a3.87,3.87,0,0,1,3.17-7.07Z"/><path class="cls-2" d="M965.4,331.42a2.11,2.11,0,0,1-1.68-3.38c1.7-2.25,3.47-4.49,5.25-6.67a2.1,2.1,0,0,1,3.26,2.66c-1.75,2.14-3.48,4.34-5.15,6.55A2.09,2.09,0,0,1,965.4,331.42Z"/><path class="cls-2" d="M1358.61,421.47a2.1,2.1,0,0,1-2.06-1.69c-1.12-5.58-2.46-11.19-4-16.66a2.1,2.1,0,0,1,4-1.14c1.58,5.58,3,11.29,4.08,17a2.1,2.1,0,0,1-1.65,2.47A2,2,0,0,1,1358.61,421.47Zm-13.4-43.3a2.11,2.11,0,0,1-1.94-1.28c-2.23-5.22-4.7-10.43-7.34-15.48a2.1,2.1,0,1,1,3.73-2c2.69,5.15,5.21,10.46,7.48,15.78A2.1,2.1,0,0,1,1346,378,2.19,2.19,0,0,1,1345.21,378.17Zm-22-39.66a2.13,2.13,0,0,1-1.73-.9c-3.25-4.69-6.72-9.29-10.31-13.68a2.11,2.11,0,0,1,3.26-2.67c3.66,4.48,7.2,9.17,10.51,13.95a2.1,2.1,0,0,1-.53,2.92A2.06,2.06,0,0,1,1323.24,338.51Zm-333.5-34.27a2.1,2.1,0,0,1-1.45-3.63c4.21-4,8.63-7.84,13.15-11.49a2.11,2.11,0,0,1,2.64,3.28c-4.43,3.58-8.77,7.37-12.9,11.27A2.09,2.09,0,0,1,989.74,304.24Zm304-.12a2.09,2.09,0,0,1-1.45-.58c-4.12-3.9-8.45-7.7-12.88-11.27A2.1,2.1,0,1,1,1282,289c4.51,3.64,8.92,7.51,13.13,11.49a2.1,2.1,0,0,1-1.45,3.63Zm-268-27.48a2.11,2.11,0,0,1-1.11-3.9c5-3.05,10.06-5.94,15.2-8.59a2.1,2.1,0,0,1,1.93,3.74c-5,2.6-10.06,5.43-14.92,8.43A2,2,0,0,1,1025.7,276.64Zm232.08-.12a2.11,2.11,0,0,1-1.1-.31c-4.82-3-9.84-5.79-14.92-8.39a2.11,2.11,0,1,1,1.92-3.75c5.17,2.65,10.29,5.53,15.21,8.56a2.1,2.1,0,0,1-1.11,3.89ZM1066.5,256.87a2.11,2.11,0,0,1-.72-4.09c5.45-2,11-3.76,16.63-5.31a2.11,2.11,0,1,1,1.12,4.06c-5.48,1.51-11,3.27-16.32,5.21A2.22,2.22,0,0,1,1066.5,256.87Zm150.45,0a2.21,2.21,0,0,1-.71-.12c-5.35-1.93-10.84-3.68-16.33-5.19a2.1,2.1,0,1,1,1.12-4.05c5.59,1.54,11.19,3.31,16.64,5.28a2.1,2.1,0,0,1-.72,4.08Zm-44-11-.31,0c-5.62-.81-11.35-1.4-17-1.77a2.1,2.1,0,0,1-2-2.23,2.14,2.14,0,0,1,2.23-2c5.8.37,11.64,1,17.37,1.8a2.11,2.11,0,0,1-.29,4.19Zm-62.51,0a2.11,2.11,0,0,1-.29-4.19c5.74-.81,11.58-1.41,17.37-1.78a2.13,2.13,0,0,1,2.23,2,2.1,2.1,0,0,1-2,2.23c-5.67.36-11.41,1-17,1.75A1.51,1.51,0,0,1,1110.47,245.87Z"/><path class="cls-2" d="M1362.75,457.81a2.1,2.1,0,0,1-2.1-2c-.09-2.76-.22-5.56-.41-8.32a2.11,2.11,0,0,1,2-2.25,2.14,2.14,0,0,1,2.24,2c.2,2.81.34,5.67.42,8.48a2.1,2.1,0,0,1-2,2.17Z"/><path class="cls-2" d="M1300.52,618.63a2.09,2.09,0,0,1-1.5-3.56c1.94-2,3.85-4.05,5.68-6.09a2.12,2.12,0,0,1,3-.16,2.1,2.1,0,0,1,.15,3C1306,613.87,1304,616,1302,618A2.1,2.1,0,0,1,1300.52,618.63Z"/><path class="cls-2" d="M1142,685.81h-1.9a2.11,2.11,0,0,1,0-4.21H1142c5,0,10-.17,15-.51a2.14,2.14,0,0,1,2.24,2,2.11,2.11,0,0,1-2,2.24C1152.19,685.63,1147.06,685.81,1142,685.81Zm-29.45-2h-.28c-5.65-.76-11.34-1.75-16.93-2.94a2.1,2.1,0,0,1,.88-4.11c5.48,1.16,11.07,2.13,16.61,2.88a2.1,2.1,0,0,1-.28,4.18Zm72-2.17a2.1,2.1,0,0,1-.4-4.17c5.49-1.08,11-2.39,16.4-3.89a2.1,2.1,0,0,1,1.13,4c-5.49,1.54-11.12,2.87-16.72,4A2,2,0,0,1,1184.52,681.67Zm-115.37-8.15a2.09,2.09,0,0,1-.69-.12c-5.4-1.87-10.78-4-16-6.25a2.1,2.1,0,1,1,1.68-3.86c5.12,2.23,10.4,4.3,15.7,6.14a2.1,2.1,0,0,1-.69,4.09Zm158-4.86a2.11,2.11,0,0,1-.82-4c5.14-2.15,10.28-4.55,15.28-7.12a2.1,2.1,0,1,1,1.93,3.74c-5.1,2.62-10.34,5.06-15.58,7.26A2.1,2.1,0,0,1,1227.19,668.66ZM1028.7,654.72a2.1,2.1,0,0,1-1.07-.29c-4.9-2.91-9.75-6-14.41-9.34a2.1,2.1,0,0,1,2.42-3.44c4.58,3.22,9.34,6.31,14.14,9.16a2.1,2.1,0,0,1-1.08,3.91Zm237.68-7.39a2.1,2.1,0,0,1-1.19-3.84c4.62-3.16,9.19-6.53,13.56-10a2.1,2.1,0,0,1,2.62,3.29c-4.45,3.56-9.1,7-13.81,10.2A2.08,2.08,0,0,1,1266.38,647.33Zm-273.5-19.15a2.08,2.08,0,0,1-1.42-.55c-4.2-3.84-8.32-7.89-12.23-12.06a2.1,2.1,0,1,1,3.07-2.88c3.84,4.09,7.88,8.07,12,11.83a2.09,2.09,0,0,1,.13,3A2.07,2.07,0,0,1,992.88,628.18Zm-29.73-33.24a2.12,2.12,0,0,1-1.71-.87c-2.63-3.63-5.2-7.39-7.63-11.19-.66-1-1.3-2-1.94-3.08a2.1,2.1,0,0,1,3.58-2.21c.63,1,1.26,2,1.9,3,2.39,3.73,4.91,7.42,7.5,11a2.11,2.11,0,0,1-1.7,3.34Zm-22.52-38.51a2.12,2.12,0,0,1-1.92-1.23c-2.37-5.19-4.57-10.53-6.54-15.89a2.11,2.11,0,0,1,4-1.45c1.92,5.26,4.08,10.5,6.41,15.59a2.11,2.11,0,0,1-1,2.79A2.07,2.07,0,0,1,940.63,556.43Zm-14.35-42.24a2.11,2.11,0,0,1-2-1.63C923,507,921.88,501.32,921,495.67a2.1,2.1,0,1,1,4.16-.62c.83,5.54,1.88,11.12,3.13,16.57a2.1,2.1,0,0,1-1.58,2.52A2.42,2.42,0,0,1,926.28,514.19Z"/><path class="cls-2" d="M920.77,469.84a2.1,2.1,0,0,1-2.1-2.06c-.07-2.8-.08-5.65,0-8.49a2.14,2.14,0,0,1,2.14-2.07,2.12,2.12,0,0,1,2.07,2.14c-.05,2.78,0,5.58,0,8.33a2.1,2.1,0,0,1-2,2.15Z"/><path class="cls-2" d="M973.67,438.71a2.64,2.64,0,0,0,1.12,2.87l27,17.71a140.76,140.76,0,0,0,6.55,45.09L987.51,529a2.65,2.65,0,0,0-.25,3.07l19.82,33.28a2.66,2.66,0,0,0,2.82,1.24l31.59-6.57A140.78,140.78,0,0,0,1078,587.28l2.7,32.18a2.65,2.65,0,0,0,2,2.35l37.55,9.51a2.65,2.65,0,0,0,2.87-1.12l17.7-27a140.54,140.54,0,0,0,45.1-6.55l24.65,20.83a2.65,2.65,0,0,0,3.07.25l33.27-19.82a2.66,2.66,0,0,0,1.24-2.82l-6.57-31.59A140.68,140.68,0,0,0,1268.83,527l32.18-2.71a2.64,2.64,0,0,0,2.35-2l9.52-37.54a2.67,2.67,0,0,0-1.12-2.87l-27-17.71a140.57,140.57,0,0,0-6.54-45.1L1299,394.4a2.64,2.64,0,0,0,.26-3.06l-19.82-33.28a2.66,2.66,0,0,0-2.82-1.24l-31.59,6.57a140.72,140.72,0,0,0-36.54-27.23L1205.81,304a2.64,2.64,0,0,0-2-2.35l-37.54-9.51a2.65,2.65,0,0,0-2.87,1.11l-17.7,27a140.49,140.49,0,0,0-45.1,6.54L1076,306a2.65,2.65,0,0,0-3.07-.26l-33.28,19.82a2.66,2.66,0,0,0-1.24,2.82l6.58,31.6a140.55,140.55,0,0,0-27.24,36.53l-32.18,2.71a2.65,2.65,0,0,0-2.35,2Z"/><path class="cls-3" d="M1143.27,499.27h0a37.56,37.56,0,1,1,26.56-11A37.3,37.3,0,0,1,1143.24,499.27Zm0-68.79a31.24,31.24,0,0,0,0,62.47h0a31.24,31.24,0,0,0,0-62.47Z"/><path class="cls-3" d="M1144.24,558.45a96.72,96.72,0,0,1-91.76-65.84l6-2a90.43,90.43,0,0,0,103,59.88l.21,0,.21,0A90.3,90.3,0,1,0,1064.59,419l-5.56-3a96.63,96.63,0,1,1,85.21,142.45Z"/><path class="cls-3" d="M2082.54,1046.75c-46.39,57.9-330.12,383.8-683.76,172.49,0,0,131.56-262.64,679.79-182.63A6.28,6.28,0,0,1,2082.54,1046.75Z"/><path class="cls-4" d="M2010.32,1065.43c-20.88,11.24-42,22-63.16,32.65s-42.51,21-63.94,31.07-43,20-64.66,29.57-43.49,18.85-65.43,27.83c-43.9,17.89-88.36,34.51-133.64,48.67q-33.93,10.72-68.61,18.93a596,596,0,0,1-70.13,12.57,1.89,1.89,0,1,1-.42-3.75h0a596.41,596.41,0,0,0,69.74-12.23q34.55-8,68.45-18.61c45.22-14,89.67-30.38,133.59-48.07q32.91-13.33,65.47-27.55t64.72-29.3q32.18-15,64-30.81c21.22-10.52,42.35-21.24,63.24-32.37h0a.8.8,0,1,1,.76,1.41Z"/><path class="cls-2" d="M1472.1,1088.17s21.83-107.37,150.18-196.76C1741.36,808.48,2031.4,619.26,2112,500a5.88,5.88,0,0,1,10.71,4.24c-11.54,67.44-53.72,234.06-200.49,380.66C1732.94,1073.9,1472.1,1088.17,1472.1,1088.17Z"/><path class="cls-3" d="M2050.85,613.32a252.21,252.21,0,0,1-18,41.62c-.88,1.67-1.73,3.37-2.63,5l-2.81,4.94-5.64,9.87-6,9.63c-2,3.19-4,6.47-6.19,9.53a535.09,535.09,0,0,1-57.26,70.6c-5,5.68-10.66,10.79-16.08,16.1s-10.77,10.71-16.58,15.58l-17.11,15c-2.8,2.57-5.85,4.83-8.81,7.2l-8.94,7-8.93,7-4.48,3.51-4.63,3.3-18.54,13.2c-3.11,2.17-6.15,4.46-9.31,6.54l-9.45,6.26-18.92,12.52c-25.37,16.47-50.85,32.76-76.72,48.41-12.88,7.93-25.88,15.64-38.83,23.42l-39.11,22.92c-26.08,15.25-52.17,30.45-77.71,46.46-6.44,3.92-12.67,8.15-19,12.27-3.18,2-6.21,4.25-9.29,6.41s-6.18,4.3-9.19,6.55c-5.91,4.64-12,9.07-17.59,14.1-5.86,4.74-11.06,10.16-16.44,15.41l0,0a.9.9,0,0,1-1.29-1.24,268.07,268.07,0,0,1,33.45-30.81c3-2.35,6.06-4.55,9.09-6.83s6-4.58,9.2-6.69c6.23-4.3,12.4-8.71,18.76-12.8,25.3-16.65,51.29-32.09,77.12-47.76l38.76-23.46c12.88-7.86,25.82-15.64,38.62-23.63q38.54-23.77,76.42-48.53l18.86-12.51,9.44-6.25c3.14-2.08,6.16-4.3,9.26-6.44l18.44-13,4.62-3.25,4.45-3.45,8.9-6.94a665.34,665.34,0,0,0,67.59-59.62,530.83,530.83,0,0,0,58.33-68.74c2.29-3,4.25-6.2,6.41-9.29l6.33-9.35,5.94-9.6,3-4.81c1-1.62,1.85-3.28,2.78-4.92,1.82-3.29,3.75-6.53,5.49-9.88l5.13-10.07a222.71,222.71,0,0,0,9-20.74.12.12,0,0,1,.14-.08A.13.13,0,0,1,2050.85,613.32Z"/><path class="cls-3" d="M1894,257.09c.17-6.95-9.1-9.51-12.49-3.45-32.82,58.55-123.67,209.4-223.67,276.93C1495.06,640.51,1354,848.87,1407.77,987.46,1407.77,987.46,1875.16,1013.32,1894,257.09Z"/><path class="cls-5" d="M1859.52,343.62c-.64,1.91-1.36,3.55-2,5.3l-2.15,5.14-4.41,10.22c-3,6.79-6,13.55-9.09,20.31q-9.27,20.24-19,40.26c-13,26.69-26.62,53-40.69,79.18s-28.77,51.92-44,77.4l-5.7,9.56-5.83,9.48c-3.91,6.31-7.7,12.69-11.72,18.93L1703,638.21l-12.21,18.62c-32.8,49.49-68.2,97.32-106.86,142.44-1.21,1.41-2.39,2.84-3.62,4.23l-3.71,4.15-7.43,8.3-7.42,8.31c-2.51,2.73-5.09,5.4-7.63,8.11l-7.66,8.09c-2.57,2.68-5.05,5.45-7.72,8l-15.79,15.71a788.23,788.23,0,0,1-67.42,58.17.71.71,0,0,1-1-.13.72.72,0,0,1,.12-1h0a844.34,844.34,0,0,0,66.23-59.15l15.58-15.81c2.64-2.6,5.08-5.39,7.62-8.08l7.55-8.14c2.5-2.73,5.05-5.41,7.52-8.16l7.32-8.35,7.32-8.35,3.66-4.17c1.21-1.4,2.37-2.84,3.56-4.26l14.24-17c4.71-5.71,9.27-11.55,13.91-17.31,2.3-2.9,4.64-5.77,6.9-8.7l6.74-8.82,6.74-8.83c2.26-2.93,4.5-5.88,6.66-8.88,17.71-23.74,34.48-48.16,51-72.75,32.84-49.3,63.16-100.27,91.82-152.13q21.45-38.94,41.37-78.69,10-19.86,19.56-39.92c3.17-6.7,6.32-13.4,9.39-20.14l4.56-10.14,2.22-5.09c.7-1.69,1.47-3.44,2.05-5l0-.15a.7.7,0,0,1,.91-.42A.71.71,0,0,1,1859.52,343.62Z"/><path class="cls-6" d="M791.48,476.29c40-42.16,60.31-98.06,60.31-156.18V190.56l-329.5-9.89-329.5,9.89V320.11c0,58.12,20,114,60,156.18l169.14,179.5c17.55,18.5,17,47.5-.58,66L253.06,901.29c-40,42.16-60.27,98.06-60.27,156.17V1187l329.5,9.89,329.5-9.89V1057.46c0-58.11-20.31-114-60.31-156.17L622.17,721.79c-17.55-18.5-18-47.5-.49-66Z"/><path class="cls-3" d="M677,855.38s-87.39-63.21-100.54-166.59C589.57,585.41,677,522.2,677,522.2c211.1-148.36,132.2-331.61,132.2-331.61l-288-9.92-286.65,9.92S156.28,373.84,367.38,522.2c0,0,88,63.21,101.22,166.59C455.36,792.17,367.38,855.38,367.38,855.38,156.28,1003.73,234.49,1187,234.49,1187l286.65,9.91,288-9.91S888.06,1003.73,677,855.38Z"/><path class="cls-7" d="M460.69,561.28a115.21,115.21,0,0,1,46,57.56c.57,1.57,1.1,4.8,1.59,6.34,1.93,6.09,7.58,11.91,14,11.91h.18c10,0,19-8.2,22.53-17.6a113.93,113.93,0,0,1,44.71-55.67C743.93,463.34,774.16,361.09,774.16,361.09h-497S307.28,461.09,460.69,561.28Z"/><path class="cls-8" d="M591.9,987.15c-21.19-13.82-37.56-35.24-46.72-58.81-1.08-2.78-2.07-6.2-2.94-8.91a16.37,16.37,0,0,0-15.3-11.5A24.74,24.74,0,0,0,503.61,924c-9,24.37-25.63,47.75-47.39,61.94-162.1,105.7-193.88,216.14-193.88,216.14h523S753.57,1092.66,591.9,987.15Z"/><path class="cls-9" d="M535.87,676.27a12.52,12.52,0,1,1-12.52-12.52A12.52,12.52,0,0,1,535.87,676.27Z"/><path class="cls-10" d="M551.63,762a9.27,9.27,0,1,1-9.27-9.27A9.27,9.27,0,0,1,551.63,762Z"/><path class="cls-11" d="M514.54,828.8a9.27,9.27,0,1,1-9.27-9.27A9.27,9.27,0,0,1,514.54,828.8Z"/><rect class="cls-12" x="129.79" y="127.09" width="785" height="94" rx="45.76"/><rect class="cls-6" x="129.79" y="1179.09" width="785" height="94" rx="45.76"/><path class="cls-13" d="M582.05,451.45l514.53,9A53.32,53.32,0,0,1,1148.93,512l24.88,746.64a39.31,39.31,0,0,1-39.27,40.62l-589.9.36a37.31,37.31,0,0,1-37.34-38l13.18-750.77A60.52,60.52,0,0,1,582.05,451.45Z"/><path class="cls-2" d="M631,1288.74h0l-66-2a41,41,0,0,1-39.57-41.52l1.75-99.63a1.68,1.68,0,1,1,3.36.06l-1.75,99.63a37.62,37.62,0,0,0,36.31,38.1l66,2a1.68,1.68,0,0,1-.09,3.36Z"/><path class="cls-2" d="M529.41,1116.43a1.66,1.66,0,0,1-1.63-1.7l.28-16.14a1.67,1.67,0,0,1,1.71-1.65h0a1.69,1.69,0,0,1,1.64,1.71l-.28,16.13a1.7,1.7,0,0,1-1.71,1.66Z"/><path class="cls-2" d="M583.74,445.43c70.1,10.76,311.2,44.47,511.23,32.64a16.27,16.27,0,0,1,17.24,15.64l26.66,750a18.69,18.69,0,0,1-17.91,19.36c-84.11,3.5-430.46,16.64-553.65,1.55a14.82,14.82,0,0,1-13-14.9l9.19-787.1A17.57,17.57,0,0,1,583.74,445.43Z"/><path class="cls-3" d="M590.92,465c67.46,10.35,299.48,42.8,492,31.41a15.64,15.64,0,0,1,16.58,15l25.66,721.75a18,18,0,0,1-17.24,18.63c-80.94,3.37-414.25,16-532.8,1.49A14.26,14.26,0,0,1,562.6,1239l8.85-757.47A16.9,16.9,0,0,1,590.92,465Z"/><path class="cls-14" d="M1077.33,559.69a3.7,3.7,0,0,0,3.8-3.93l-.11-2.39a4.4,4.4,0,0,0-4.2-4.1L638.08,538.11c-2.2-.06-2.9,1.33-1.56,3.07l6,7.74a9.4,9.4,0,0,0,6.43,3.25Z"/><path class="cls-15" d="M637.58,566.93c-2.2-.06-2.91,1.33-1.57,3.07l6,7.74A9.42,9.42,0,0,0,648.4,581l428.42,7.52a3.7,3.7,0,0,0,3.8-3.93l-.11-2.39a4.39,4.39,0,0,0-4.19-4.1Z"/><path class="cls-16" d="M709.31,830.19h-.16l-57.92.31c-8.34,0-15.32-5.6-16.22-13.13l-5.81-48.51a10.69,10.69,0,0,1,2.41-8.09,12.86,12.86,0,0,1,8.89-4.55h0c4.88-.4,11.6-1.08,19-1.82,16.1-1.61,34.34-3.44,45.07-3.73h.24c7.68-.12,14.35,4.46,16.29,11.2,3.18,11.13,3.23,32.26,3,54.77C724,824,717.39,830.07,709.31,830.19Zm-68.42-69.26a8.1,8.1,0,0,0-5.62,2.83,6,6,0,0,0-1.38,4.53l5.81,48.52c.62,5.14,5.56,9,11.51,9l57.91-.3h.12c5.54-.08,10.06-4.05,10.12-8.88.23-22.15.19-42.9-2.82-53.42-1.33-4.65-6.42-8-11.85-7.77-10.55.28-29.5,2.18-44.73,3.7-7.42.75-14.17,1.42-19.07,1.83Z"/><path class="cls-3" d="M647.18,765.72c12.16-1,38.56-4.09,51.1-4.44,5.31-.14,10,3,11.33,7.59,2.55,8.91,2.5,26.76,2.32,43.22,0,4.94-4.52,8.94-10,9l-46.29.24c-5.69,0-10.47-3.78-11.07-8.83l-4.65-38.76C639.39,769.7,642.68,766.09,647.18,765.72Z"/><path class="cls-17" d="M758.64,779a2.85,2.85,0,0,0-2.92,3.82l5.9,21.12a5.5,5.5,0,0,0,5.08,3.79l293.09-4.34a3.91,3.91,0,0,0,3.85-4.06l-.5-13.6a4.23,4.23,0,0,0-4.14-4Z"/><path class="cls-18" d="M649.76,773.3h0a8.88,8.88,0,0,1,12.31,3.15l11.73,20.31a2.85,2.85,0,0,0,5.09-.3L706.29,733a3.16,3.16,0,0,1,6.06,1.28c0,19.29-4.58,56-35,87.19,0,0-17.08-6.35-31.21-36.19A9.32,9.32,0,0,1,649.76,773.3Z"/><path class="cls-16" d="M712.76,700.16h-.16l-57.91.3c-8.35,0-15.32-5.6-16.22-13.13l-5.81-48.51a10.69,10.69,0,0,1,2.4-8.08,12.89,12.89,0,0,1,8.9-4.56h0c4.88-.4,11.59-1.08,19-1.82,16.1-1.61,34.34-3.44,45.07-3.73h.24c7.67-.12,14.35,4.47,16.28,11.21,3.19,11.12,3.24,32.25,3,54.76C727.46,694,720.84,700,712.76,700.16ZM644.35,630.9a8.1,8.1,0,0,0-5.62,2.83,6,6,0,0,0-1.38,4.54l5.81,48.51c.61,5.14,5.56,9,11.5,9l57.92-.3h.11c5.54-.08,10.07-4.05,10.12-8.88.24-22.14.2-42.89-2.81-53.41-1.34-4.66-6.42-8.06-11.85-7.78-10.56.28-29.51,2.18-44.73,3.7-7.42.75-14.17,1.42-19.07,1.83Z"/><path class="cls-3" d="M650.64,635.69c12.15-1,38.55-4.09,51.09-4.43,5.31-.15,10,3,11.34,7.58,2.55,8.91,2.49,26.76,2.32,43.23-.06,4.93-4.53,8.93-10.06,9l-46.28.24c-5.69,0-10.47-3.78-11.08-8.83l-4.64-38.76C642.85,639.67,646.14,636.06,650.64,635.69Z"/><path class="cls-19" d="M762.1,649a2.86,2.86,0,0,0-2.93,3.82l5.91,21.12a5.48,5.48,0,0,0,5.08,3.79l293.09-4.34a3.91,3.91,0,0,0,3.85-4.06l-.5-13.6a4.25,4.25,0,0,0-4.15-4Z"/><path class="cls-20" d="M653.22,643.27h0a8.89,8.89,0,0,1,12.31,3.15l11.72,20.31a2.86,2.86,0,0,0,5.1-.3l27.39-63.49a3.17,3.17,0,0,1,6.07,1.28c0,19.3-4.58,56-34.95,87.19,0,0-17.09-6.35-31.21-36.18A9.32,9.32,0,0,1,653.22,643.27Z"/><path class="cls-16" d="M711.15,954.3H711l-57.92.3c-8.35,0-15.32-5.6-16.22-13.13L631,893a10.65,10.65,0,0,1,2.41-8.08,12.87,12.87,0,0,1,8.89-4.56h0c4.88-.4,11.6-1.07,19-1.81,16.1-1.62,34.34-3.44,45.07-3.74h.24c7.68-.12,14.35,4.47,16.28,11.21,3.19,11.13,3.24,32.25,3,54.76C725.84,948.14,719.23,954.18,711.15,954.3ZM642.73,885a8.1,8.1,0,0,0-5.62,2.83,6,6,0,0,0-1.38,4.54l5.81,48.51c.62,5.14,5.56,9,11.51,9l57.91-.3h.12c5.53-.08,10.06-4.05,10.11-8.88.24-22.14.2-42.89-2.81-53.41-1.34-4.66-6.42-8-11.85-7.78-10.56.29-29.5,2.18-44.73,3.71-7.42.74-14.17,1.41-19.07,1.82Z"/><path class="cls-3" d="M649,889.83c12.16-1,38.56-4.09,51.09-4.43,5.32-.15,10,3,11.34,7.58,2.55,8.92,2.5,26.76,2.32,43.23,0,4.93-4.52,8.93-10,9l-46.29.24c-5.69,0-10.47-3.78-11.07-8.82l-4.65-38.77C641.23,893.81,644.52,890.2,649,889.83Z"/><path class="cls-21" d="M760.48,903.13a2.84,2.84,0,0,0-2.92,3.81l5.9,21.12a5.49,5.49,0,0,0,5.08,3.79l293.09-4.34a3.9,3.9,0,0,0,3.85-4l-.5-13.6a4.24,4.24,0,0,0-4.14-4Z"/><path class="cls-22" d="M651.6,897.41h0a8.89,8.89,0,0,1,12.31,3.15l11.73,20.31a2.85,2.85,0,0,0,5.09-.3l27.39-63.49a3.17,3.17,0,0,1,6.07,1.28c0,19.3-4.58,56-35,87.2,0,0-17.08-6.36-31.21-36.19A9.32,9.32,0,0,1,651.6,897.41Z"/><path class="cls-16" d="M707.49,1073.56h-.15l-57.92.3c-8.35,0-15.32-5.6-16.22-13.13l-5.81-48.51a10.69,10.69,0,0,1,2.4-8.08,12.87,12.87,0,0,1,8.9-4.56h0c4.87-.4,11.58-1.08,19-1.82C673,996.24,692,994.34,702.75,994c7.62-.15,14.57,4.4,16.52,11.21,3.19,11.12,3.24,32.25,3,54.76C722.19,1067.39,715.57,1073.44,707.49,1073.56Zm-68.41-69.26a8.1,8.1,0,0,0-5.62,2.83,6,6,0,0,0-1.38,4.54l5.81,48.51c.62,5.14,5.56,9,11.5,9l57.92-.3c5.46-.18,10.18-4,10.23-8.88.24-22.15.2-42.89-2.81-53.41-1.34-4.66-6.42-7.94-11.85-7.78-10.56.28-29.52,2.18-44.75,3.71-7.42.74-14.16,1.41-19,1.82Z"/><path class="cls-3" d="M645.37,1009.09c12.15-1,38.55-4.09,51.09-4.43,5.31-.15,10,3,11.34,7.58,2.55,8.91,2.49,26.76,2.32,43.23-.06,4.93-4.53,8.93-10.06,9l-46.28.24c-5.69,0-10.47-3.78-11.08-8.83l-4.64-38.76C637.58,1013.07,640.87,1009.46,645.37,1009.09Z"/><path class="cls-23" d="M756.83,1022.38a2.86,2.86,0,0,0-2.93,3.82l5.91,21.12a5.49,5.49,0,0,0,5.08,3.79l293.09-4.34a3.91,3.91,0,0,0,3.85-4.06l-.5-13.6a4.24,4.24,0,0,0-4.15-4Z"/><path class="cls-24" d="M648,1016.67h0a8.89,8.89,0,0,1,12.31,3.15L672,1040.13a2.86,2.86,0,0,0,5.1-.3l27.39-63.49a3.17,3.17,0,0,1,6.07,1.28c0,19.29-4.58,56-34.95,87.19,0,0-17.09-6.35-31.21-36.19A9.31,9.31,0,0,1,648,1016.67Z"/><path class="cls-16" d="M702.74,1196.56h-.16l-57.92.3c-8.35,0-15.32-5.6-16.22-13.13l-5.81-48.51a10.65,10.65,0,0,1,2.41-8.08,12.87,12.87,0,0,1,8.89-4.56h0c4.88-.4,11.6-1.08,19-1.82,16.1-1.61,34.34-3.44,45.07-3.73,7.87,0,14.57,4.4,16.52,11.2,3.19,11.13,3.24,32.26,3,54.77C717.43,1190.39,710.82,1196.44,702.74,1196.56Zm-68.42-69.26a8.1,8.1,0,0,0-5.62,2.83,6,6,0,0,0-1.38,4.53l5.81,48.52c.62,5.14,5.56,9,11.51,9l57.91-.3h.12c5.53-.08,10.06-4,10.11-8.88.24-22.15.2-42.9-2.81-53.42-1.33-4.65-6.42-7.87-11.85-7.77-10.56.28-29.5,2.18-44.73,3.7-7.42.75-14.17,1.42-19.07,1.83Z"/><path class="cls-3" d="M640.61,1132.09c12.16-1,38.56-4.09,51.09-4.43,5.32-.15,10,3,11.34,7.58,2.55,8.91,2.5,26.76,2.32,43.22-.05,4.94-4.52,8.94-10.05,9l-46.29.24c-5.69,0-10.47-3.78-11.07-8.83l-4.65-38.76C632.82,1136.07,636.11,1132.46,640.61,1132.09Z"/><path class="cls-25" d="M752.07,1145.38a2.85,2.85,0,0,0-2.92,3.82l5.9,21.12a5.49,5.49,0,0,0,5.08,3.79l293.09-4.34a3.91,3.91,0,0,0,3.85-4.06l-.5-13.6a4.23,4.23,0,0,0-4.14-4Z"/><path class="cls-24" d="M643.19,1139.67h0a8.89,8.89,0,0,1,12.31,3.15l11.73,20.31a2.85,2.85,0,0,0,5.09-.3l27.39-63.49a3.17,3.17,0,0,1,6.07,1.28c0,19.29-4.58,56-34.95,87.19,0,0-17.08-6.35-31.21-36.18A9.33,9.33,0,0,1,643.19,1139.67Z"/><path class="cls-26" d="M873,354.81c-18.35-13.25-34.52-13.28-46-10.12a22.69,22.69,0,0,0-16.53,23.57l4,53.64,58.28,6.2S909,380.81,873,354.81Zm-26.43,42.75a14.56,14.56,0,1,1,14.81-14.3A14.56,14.56,0,0,1,846.58,397.56Z"/><path class="cls-2" d="M819.7,400.76a2.9,2.9,0,0,1-1.85-2.48l-.63-8.55a2.89,2.89,0,0,1,5.77-.42l.63,8.54a2.88,2.88,0,0,1-3.92,2.91ZM818.46,384a2.87,2.87,0,0,1-1.84-2.48l-.48-6.49a23.15,23.15,0,0,1,16.84-24,45,45,0,0,1,22.07-.52,2.92,2.92,0,0,1,2.19,3.45,2.89,2.89,0,0,1-3.45,2.19,39.5,39.5,0,0,0-19.27.45,17.35,17.35,0,0,0-12.61,18l.48,6.48a2.9,2.9,0,0,1-2.67,3.1A2.93,2.93,0,0,1,818.46,384Z"/><path class="cls-27" d="M734.2,455.1l.47-26.92A16.44,16.44,0,0,1,752,412.06l185.51,9.62A16,16,0,0,1,952.6,437l1.1,25.9Z"/><path class="cls-16" d="M796,423.25a1.68,1.68,0,0,1,.08-3.36l8,.14a1.68,1.68,0,0,1-.06,3.36l-8-.14Z"/><path class="cls-2" d="M743.38,448.11a2.89,2.89,0,0,1-1.85-2.74l.19-10.9a16.75,16.75,0,0,1,17-16.45l29.35.52a2.89,2.89,0,1,1-.11,5.78l-29.34-.51a11,11,0,0,0-11.16,10.77l-.19,10.89a2.89,2.89,0,0,1-2.94,2.84A3,3,0,0,1,743.38,448.11Z"/><path class="cls-28" d="M676.21,444.23l324.59,5.69a24,24,0,0,1,23.3,20.31l.24,1.59a20.61,20.61,0,0,1-20.72,23.77l-333-5.85a13.4,13.4,0,0,1-13.13-14.27l1-14.9A17.49,17.49,0,0,1,676.21,444.23Z"/><path class="cls-29" d="M1550,1343.39a5.7,5.7,0,0,0,5.75-4.34l90.78-480.6c.54-2.84-1.6-5.53-4.78-6s-6.19,1.43-6.73,4.27l-90.78,480.59c-.54,2.84,1.6,5.53,4.78,6A6.55,6.55,0,0,0,1550,1343.39Z"/><path class="cls-29" d="M1856.24,1343.4a6.4,6.4,0,0,0,1.15-.11c3.16-.57,5.21-3.32,4.57-6.14l-107-474.34a5.84,5.84,0,0,0-6.88-4.08c-3.16.57-5.2,3.32-4.56,6.14l107,474.34A5.73,5.73,0,0,0,1856.24,1343.4Z"/><path class="cls-29" d="M1619.22,977.22h155.15c3.22,0,5.84-2.33,5.84-5.21s-2.62-5.22-5.84-5.22H1619.22c-3.22,0-5.83,2.34-5.83,5.22S1616,977.22,1619.22,977.22Z"/><path class="cls-29" d="M1622,977.22h149.51a5.23,5.23,0,1,0,0-10.43H1622a5.23,5.23,0,1,0,0,10.43Z"/><path class="cls-29" d="M1619.22,1064.12h155.15c3.22,0,5.84-2.33,5.84-5.21s-2.62-5.22-5.84-5.22H1619.22c-3.22,0-5.83,2.34-5.83,5.22S1616,1064.12,1619.22,1064.12Z"/><path class="cls-29" d="M1605.14,1064.12h188.09c3.22,0,5.84-2.33,5.84-5.21s-2.62-5.22-5.84-5.22H1605.14c-3.23,0-5.84,2.34-5.84,5.22S1601.91,1064.12,1605.14,1064.12Z"/><path class="cls-29" d="M1619.22,1151h155.15c3.22,0,5.84-2.34,5.84-5.22s-2.62-5.21-5.84-5.21H1619.22c-3.22,0-5.83,2.33-5.83,5.21S1616,1151,1619.22,1151Z"/><path class="cls-29" d="M1587.17,1151h225.15c3.22,0,5.83-2.34,5.83-5.22s-2.61-5.21-5.83-5.21H1587.17c-3.22,0-5.84,2.33-5.84,5.21S1584,1151,1587.17,1151Z"/><path class="cls-29" d="M1619.22,1237.92h211.2c3.22,0,5.83-2.34,5.83-5.22s-2.61-5.21-5.83-5.21h-211.2c-3.22,0-5.83,2.33-5.83,5.21S1616,1237.92,1619.22,1237.92Z"/><path class="cls-29" d="M1572.64,1237.92h257.78c3.22,0,5.83-2.34,5.83-5.22s-2.61-5.21-5.83-5.21H1572.64c-3.23,0-5.84,2.33-5.84,5.21S1569.41,1237.92,1572.64,1237.92Z"/><path class="cls-30" d="M1622.36,558.09c52.29-4.34,66,6.48,66,6.48l-25.13,39.67s-51.38-1-88.2-29.39a89.5,89.5,0,0,0,14.74-22A69.24,69.24,0,0,0,1622.36,558.09Z"/><path class="cls-31" d="M1540.47,481.33a1.6,1.6,0,0,1,3-.61L1550.2,495a14.8,14.8,0,0,1,1.18,8.82l-2.34,8.29a14.3,14.3,0,0,0,2.92,11.38c6.13,7.67,19.19,21.67,37.77,29.39a89.5,89.5,0,0,1-14.74,22c-13.51-10.41-25.06-24.51-31.39-43.59a7,7,0,0,1-4.94-7Z"/><path class="cls-32" d="M1750.21,939.69s3.79,6,4.74,22.68a2.71,2.71,0,0,1-2.7,2.88h-29.61A1.73,1.73,0,0,1,1721,963c1.73-5.14,7-17.66,18.68-24.81Z"/><path class="cls-33" d="M1751.5,928.37l-1.67,14a2.66,2.66,0,0,1-2.31,2.33,24,24,0,0,1-6.26-.06,4.35,4.35,0,0,1-3.58-4.31V926.81Z"/><path class="cls-34" d="M1677,938.15a41.4,41.4,0,0,1,5.54,20.9,5.23,5.23,0,0,1-5.26,5.12h-46a2.21,2.21,0,0,1-1.27-4c8.71-6.11,25.81-17.53,38.19-22Z"/><path class="cls-35" d="M1681.68,923l-3.57,17.34a3.58,3.58,0,0,1-4.23,2.82,13.3,13.3,0,0,1-4-1.69,4.14,4.14,0,0,1-1.84-4.2l3.7-21Z"/><path class="cls-36" d="M1744.94,681.83s12.42,10.95,14.76,24.12-6.63,227.33-6.63,227.33-12.42,2.06-18.82-1.82c0,0-7.59-139-13.37-171.09,0,0-30.27,144-38.66,170,0,0-12,1.45-15.82-.82,0,0,7.93-186.62,17.89-219.8Z"/><path class="cls-37" d="M1721.25,755.82a1.31,1.31,0,0,0,1.27-1l5.15-19.75,11-7a1.32,1.32,0,0,0,.4-1.82,1.3,1.3,0,0,0-1.82-.4l-11.4,7.31a1.3,1.3,0,0,0-.56.78L1720,754.17a1.31,1.31,0,0,0,1.28,1.65Z"/><path class="cls-30" d="M1605.15,581.09c18.4-19.84,53.47-28.8,73.77-32.48a18.62,18.62,0,0,1,20.81,11.81c9.14,24.55,34,88.45,38.8,99.43,4,9,8.08,17.81,10.7,23.31a6.61,6.61,0,0,1-3.08,8.8c-17.08,8.23-47.82,17.54-60.28,21.18a4.28,4.28,0,0,1-5.47-4.12,13.41,13.41,0,0,0-1.9-6.87l-47.19-78.64c-29.41,32.62-55.17,35.6-75,28.46a148.31,148.31,0,0,0,6.55-30.9C1592.13,616.06,1605.15,581.09,1605.15,581.09Z"/><path class="cls-38" d="M1514.59,615.59l5.27-7c17.08,11.73,31.36,14.51,43,12.51a148.31,148.31,0,0,1-6.55,30.9C1530.29,642.57,1514.59,615.59,1514.59,615.59Z"/><path class="cls-39" d="M1518.31,615.72l-29.72,1.16-27.37-15.28c3.93-2.47,26.14,2.57,26.14,2.57s23.22-3.52,29.51-3.52c5.22,0,4.47,7.49,4.07,10-.08.52-.15.83-.15.83Z"/><path class="cls-40" d="M1651,512.18l15.68,38.26s-18,12.47-32.52,11.29l-7.82-34.41Z"/><path class="cls-6" d="M1450.42,595.32c7.21-12.71,18.06-38.7,3.14-61.52-19.48-29.79-97.2,14.85-58.49,60.79a5.22,5.22,0,0,1-4,8.56h-80.21V516.76a9.91,9.91,0,0,0-14.2-8.95c-9.28,4.43-22.09,9.49-35.33,11.39-25.55,3.65-40.72-25.56-37.39-49.89s32.53-38.94,47.13-36.5c6.78,1.13,15.79,7.05,23.5,13.08a9.93,9.93,0,0,0,16.06-7.8V353.72h77.5a7.68,7.68,0,0,0,6.09-12.34c-16.2-21.28-9.06-47.73,13.12-55.8,26.77-9.73,51.11-2.43,54.76,25.55a46.32,46.32,0,0,1-16.68,42.59h85l-3.06,84.74a9.92,9.92,0,0,0,15.38,8.64c8.63-5.64,20-11.38,32.51-13.08,26.77-3.65,51.11,18.25,51.11,41.37s-20.69,51.11-53.54,45a136.74,136.74,0,0,1-26.55-7.32,9.9,9.9,0,0,0-13.6,9.22v80.84H1455A5.23,5.23,0,0,1,1450.42,595.32Z"/><path class="cls-16" d="M1534.65,605.15H1455a7.23,7.23,0,0,1-6.28-10.82c7.3-12.87,17.42-37.7,3.21-59.44-4.23-6.46-11.94-9.5-21.73-8.56-17.28,1.66-35,14.45-41.25,29.75-5.06,12.38-2.39,25.25,7.69,37.22a7.22,7.22,0,0,1-5.55,11.85h-82.21V516.76a7.92,7.92,0,0,0-11.34-7.15c-8.75,4.19-22.08,9.59-35.9,11.57-9.88,1.41-19-1.69-26.29-9-10.15-10.1-15.53-27.45-13.37-43.18,1.45-10.66,7.89-20.68,18.11-28.21s22.66-11.44,31.33-10c6,1,14.24,5.55,24.4,13.48a7.92,7.92,0,0,0,12.83-6.22V351.72h79.5a5.68,5.68,0,0,0,4.5-9.13c-8.42-11.06-11.26-24.2-7.78-36a34.7,34.7,0,0,1,21.81-22.85c16.31-5.93,31.17-5.62,41.85.87,8.63,5.24,14,14.34,15.57,26.3a48.17,48.17,0,0,1-13.39,40.85h81.81l-3.14,86.82a7.92,7.92,0,0,0,12.28,6.89C1553,438,1564.18,433.51,1575,432a48,48,0,0,1,37.9,11.74c9.84,8.59,15.48,20.11,15.48,31.61,0,13.93-6.89,28.32-18,37.55-7.38,6.14-19.95,12.76-37.91,9.44a140.3,140.3,0,0,1-27-7.44,7.71,7.71,0,0,0-7.32.76,7.93,7.93,0,0,0-3.52,6.61Zm-101.05-83c9.55,0,17.14,3.67,21.63,10.54,6.6,10.09,15,31.78-3.07,63.61h0a3.21,3.21,0,0,0,0,3.24,3.15,3.15,0,0,0,2.79,1.6h75.69V522.31a12,12,0,0,1,5.28-9.93,11.83,11.83,0,0,1,11.07-1.14,136.78,136.78,0,0,0,26.17,7.21c16.43,3,27.9-3,34.63-8.59,10-8.36,16.54-21.89,16.54-34.47,0-10.35-5.14-20.77-14.11-28.6A44,44,0,0,0,1575.5,436c-10.18,1.39-20.85,5.69-31.69,12.78a11.93,11.93,0,0,1-12.43.42,11.73,11.73,0,0,1-6-10.81l3-82.67h-89.14l5-3.63c.78-.57,19.3-14.29,15.85-40.7-1.39-10.72-6.12-18.81-13.67-23.4-9.63-5.85-23.27-6-38.41-.53a30.7,30.7,0,0,0-19.34,20.22c-3.12,10.6-.52,22.45,7.13,32.49a9.68,9.68,0,0,1-7.69,15.55h-75.5v82.37a11.92,11.92,0,0,1-19.29,9.37c-9.49-7.41-17.31-11.8-22.6-12.68-7.55-1.26-19.18,2.55-28.3,9.27-9.34,6.88-15.21,15.95-16.52,25.53-2,14.55,2.92,30.55,12.23,39.8,6.39,6.35,14.31,9.06,22.9,7.84,13.32-1.91,26.25-7.15,34.74-11.22a11.91,11.91,0,0,1,17.07,10.76v84.39h78.21a3.18,3.18,0,0,0,2.94-1.88,3.12,3.12,0,0,0-.45-3.39c-14-16.65-12.28-31.66-8.34-41.31,6.77-16.58,25.93-30.43,44.58-32.22C1431.08,522.22,1432.36,522.16,1433.6,522.16Z"/><path class="cls-41" d="M1624.51,486.09c-.36.51-11.35,40.2-11.35,40.2l22.8,5.79L1652,496S1630.52,477.57,1624.51,486.09Z"/><path class="cls-42" d="M1643.37,501.49l-6.93,19.65a2.77,2.77,0,0,1-.37.7c-.94,1.34-4.51,5.7-8.75,1.77-3.85-3.57-7.42-6.77-10.71-7.35a2.91,2.91,0,0,0-3.31,2.09,125.81,125.81,0,0,0-3.83,19.15,2.9,2.9,0,0,0,2.36,3.13c4.45.84,13.89,2.36,21.77,1.81a2.91,2.91,0,0,0,2.45-1.69c2.17-4.75,8.83-19.14,11.3-22.87,2.32-3.49,8-3.4,10.4-3.19a2.85,2.85,0,0,0,2.15-.7c2.09-1.83,6.06-6.5.47-12.1a2.91,2.91,0,0,1,.07-4.19c2.4-2.26,5-6.27,1-11.23s-9.44-4.25-12.73-3.05a2.91,2.91,0,0,1-3.5-1.29,2.29,2.29,0,0,0-2.38-1.11,2.87,2.87,0,0,1-3.06-2.94c.06-3.24-1.1-7.33-6.71-9.07-10-3.1-16.16,6.52-16.78,13.7s10.37,9.92,16.83,9.44c4.91-.37,8.56,4.5,10,6.85A2.91,2.91,0,0,1,1643.37,501.49Z"/><path class="cls-43" d="M1644.75,525s1.61-12.46,6.8-13.07,10.22,3.65,5.07,10.64C1650.21,531.28,1644.75,525,1644.75,525Z"/><path class="cls-6" d="M1450,1085.26c6,9.51,12.25,23.16,10.73,36.81-2.75,24.81-40.81,35.84-74.17,22.06-23.82-9.85-13.61-42.2-5.83-59.89a8.46,8.46,0,0,0-7.79-11.8H1287V975.68a11.23,11.23,0,0,1,16.43-10c9,4.68,20.77,9.65,33.19,11.61,26.2,4.14,52.39-24.81,49.63-52.38s-29-48.25-56.52-46.87c-9.53.48-17.47,4.46-23.77,9.48-7.26,5.77-18,.27-18-9V794h90.87a5.92,5.92,0,0,0,4.56-9.7c-43.86-52,44.2-102.62,66.26-68.88,16.91,25.86,4.61,55.31-3.55,69.71a5.92,5.92,0,0,0,5.14,8.87h88v87.48c0,9.28-10.72,14.74-18,9-7.59-6-17.35-11.28-28.86-12.38-29-2.76-45.49,24.81-51.17,46.87s19.46,53.76,45.65,49.63a274.78,274.78,0,0,0,39-9.67,11.23,11.23,0,0,1,14.63,10.79l-.6,96.75h-82.76A8.43,8.43,0,0,0,1450,1085.26Z"/><path class="cls-6" d="M1416.64,1152.16a81.34,81.34,0,0,1-30.84-6.19,24.19,24.19,0,0,1-13.81-13.61c-5.77-14.35.57-34.52,6.91-48.92a6.26,6.26,0,0,0-.51-6,6.49,6.49,0,0,0-5.45-3H1285V975.68a13.23,13.23,0,0,1,19.36-11.75c11.42,6,22.39,9.81,32.58,11.42,10.64,1.68,22.16-2.46,31.58-11.37,11.06-10.45,17.09-25.33,15.74-38.84-2.58-25.78-27.52-46.42-54.43-45.07-8,.4-15.58,3.44-22.62,9a12.81,12.81,0,0,1-13.65,1.47,13.28,13.28,0,0,1-7.59-12V792h92.87a3.86,3.86,0,0,0,3.57-2.28,3.8,3.8,0,0,0-.54-4.13c-15.81-18.76-13.84-35.66-9.41-46.53,7.63-18.7,29.25-34.32,50.28-36.34,12.74-1.23,22.9,2.89,28.6,11.61,7.44,11.38,16.89,35.85-3.49,71.78a3.92,3.92,0,0,0,3.4,5.89h90v89.48a13.24,13.24,0,0,1-7.55,12,12.88,12.88,0,0,1-13.7-1.44c-8.9-7-18.26-11-27.81-12-26.93-2.57-43.24,22.84-49,45.38-2.6,10.1,1.78,23.31,11.17,33.64,9.26,10.18,21.31,15.24,32.23,13.51a274,274,0,0,0,38.74-9.6,13.23,13.23,0,0,1,17.24,12.71l-.61,98.74h-84.75a6.41,6.41,0,0,0-5.68,3.37,6.19,6.19,0,0,0,.15,6.38h0c5.91,9.44,12.62,23.71,11,38.1-1,9.16-6.43,16.88-15.65,22.33C1438.59,1149.64,1427.92,1152.16,1416.64,1152.16ZM1289,1070.44h83.9a10.5,10.5,0,0,1,8.8,4.77,10.36,10.36,0,0,1,.82,9.84c-4.93,11.21-12.38,32.07-6.86,45.81a20.37,20.37,0,0,0,11.63,11.42c19.66,8.13,42.85,7.68,57.71-1.1,8.09-4.79,12.83-11.47,13.7-19.33,1.48-13.25-4.86-26.63-10.43-35.53h0a10.16,10.16,0,0,1-.26-10.45,10.36,10.36,0,0,1,9.18-5.43H1538l.59-94.76a9.23,9.23,0,0,0-12-8.88,278.57,278.57,0,0,1-39.33,9.74c-12.26,1.94-25.65-3.58-35.82-14.77s-15-25.95-12.09-37.33c6.2-24.06,23.86-51.16,53.3-48.36,10.32,1,20.39,5.29,29.91,12.8a8.79,8.79,0,0,0,9.47,1,9.28,9.28,0,0,0,5.3-8.4V796h-86a7.92,7.92,0,0,1-6.88-11.86c8.3-14.63,19.8-42.88,3.62-67.62-4.84-7.41-13.67-10.9-24.87-9.82-19.66,1.89-39.84,16.45-47,33.87-4,9.85-5.76,25.21,8.76,42.44a7.91,7.91,0,0,1-6.09,13H1290v82.57a9.3,9.3,0,0,0,5.33,8.43,8.72,8.72,0,0,0,9.41-1c7.72-6.13,16.1-9.47,24.92-9.91a57,57,0,0,1,38.93,13c11.32,9.24,18.31,21.9,19.68,35.64,1.47,14.72-5,30.87-17,42.15-10.33,9.76-23.08,14.29-35,12.41-10.62-1.68-22-5.65-33.81-11.82a9.22,9.22,0,0,0-13.5,8.2Z"/><path class="cls-6" d="M1457.16,1318.17c8.44-15,9.81-36.61-29.51-55.49-56.75-27.24-68.28,24-53.81,56.82a12.59,12.59,0,0,1-11.58,17.62H1287v-81a11.28,11.28,0,0,0-15.56-10.49,95.33,95.33,0,0,1-32.91,7.43c-30.11,1.38-53-23.43-48.46-57.9s33.88-42.73,48.17-38.6c7.46,2.16,20.42,10.44,31.1,17.86a11.25,11.25,0,0,0,17.66-9.24v-92.71h85.9a8.46,8.46,0,0,1,7.79,11.8c-7.78,17.69-18,50,5.83,59.89,33.36,13.78,71.42,2.75,74.17-22.06,1.52-13.65-4.77-27.3-10.73-36.81a8.43,8.43,0,0,1,7.23-12.82H1540l-.52,84.21a12.59,12.59,0,0,1-19.75,10.23c-7.82-5.25-17.33-9.79-27.28-10.35-24.82-1.38-49.63,17.92-51.09,42.74s16.63,56.52,44.2,55.14c13-.65,26.37-7.46,36.81-14.47a12.55,12.55,0,0,1,19.55,10.5l-.52,86.68h-73.31A12.64,12.64,0,0,1,1457.16,1318.17Z"/><path class="cls-16" d="M1543.38,1339.12h-75.3a14.4,14.4,0,0,1-12.56-7.18,14.7,14.7,0,0,1-.11-14.75l1.75,1-1.75-1c4.6-8.2,5.75-16.12,3.4-23.54-3.41-10.79-14.18-20.6-32-29.17-20.59-9.88-36.73-10-46.67-.39-9.69,9.38-14.54,31.7-4.44,54.6a14.59,14.59,0,0,1-13.41,20.43H1285v-83a9.37,9.37,0,0,0-4.22-7.83,9,9,0,0,0-8.56-.82,97,97,0,0,1-33.6,7.59c-14.85.68-28.31-4.7-37.89-15.14-10.49-11.43-15-27.42-12.65-45,2.56-19.26,12.37-29.36,20.15-34.44,11.48-7.5,23.64-7.82,30.57-5.82,6.34,1.84,17,7.94,31.69,18.14a9.24,9.24,0,0,0,14.51-7.6v-94.71h87.9a10.5,10.5,0,0,1,8.8,4.77,10.36,10.36,0,0,1,.82,9.84c-4.93,11.21-12.38,32.07-6.86,45.81a20.37,20.37,0,0,0,11.63,11.42c19.66,8.13,42.85,7.68,57.71-1.1,8.09-4.79,12.83-11.47,13.7-19.33,1.48-13.25-4.86-26.63-10.43-35.53a10.16,10.16,0,0,1-.26-10.45,10.36,10.36,0,0,1,9.18-5.43H1542l-.53,86.22a14.25,14.25,0,0,1-7.67,12.71,14.79,14.79,0,0,1-15.19-.83c-9.22-6.19-18.06-9.55-26.28-10a48.55,48.55,0,0,0-32.93,11.1c-9.69,7.92-15.39,18.49-16.05,29.76-.87,14.72,5.51,31.64,15.87,42.09,5.28,5.32,14.11,11.53,26.23,10.93,10.56-.53,22.6-5.28,35.8-14.13a14.55,14.55,0,0,1,22.66,12.18ZM1399.14,1253c7.73,0,17.38,2.16,29.37,7.92,18.88,9.06,30.36,19.68,34.12,31.57,2.69,8.51,1.43,17.5-3.73,26.7a10.74,10.74,0,0,0,.07,10.77,10.44,10.44,0,0,0,9.11,5.2h71.32l.51-84.69a10.55,10.55,0,0,0-16.43-8.82c-13.81,9.25-26.54,14.23-37.83,14.8-10.76.53-20.88-3.65-29.27-12.12-11.28-11.38-18-29.1-17-45.14,1.48-25.26,26.34-46.11,53.19-44.61,8.94.49,18.46,4.09,28.29,10.68a10.66,10.66,0,0,0,11.08.62,10.3,10.3,0,0,0,5.55-9.2l.51-82.2h-80.75a6.41,6.41,0,0,0-5.68,3.37,6.19,6.19,0,0,0,.15,6.38c5.91,9.44,12.62,23.71,11,38.1-1,9.16-6.43,16.88-15.65,22.33-16.13,9.54-40.18,10.07-61.27,1.35a24.19,24.19,0,0,1-13.81-13.61c-5.77-14.35.57-34.52,6.91-48.92a6.26,6.26,0,0,0-.51-6,6.49,6.49,0,0,0-5.45-3H1289v90.71a13.21,13.21,0,0,1-7.11,11.74,13,13,0,0,1-13.69-.86c-14.12-9.81-24.67-15.89-30.52-17.58-6.59-1.9-17.58-1-27.26,5.33-7.08,4.62-16,13.86-18.37,31.62-2.18,16.4,2,31.25,11.62,41.79,8.77,9.55,21.11,14.46,34.77,13.84a93,93,0,0,0,32.22-7.27,13.06,13.06,0,0,1,12.33,1.16,13.38,13.38,0,0,1,6,11.17v79h73.22a10.63,10.63,0,0,0,8.93-4.84,10.31,10.31,0,0,0,.82-10c-8.08-18.33-9-45.27,5.31-59.09C1381.82,1256.86,1388.75,1253,1399.14,1253Z"/><path class="cls-6" d="M1202.15,1318.58a75.44,75.44,0,0,0,7.69-22.53c8-48.13-51.62-41.64-75.44-16.83-12.12,12.63-8.07,27.52-1.17,39.09a12.64,12.64,0,0,1-10.75,19.24h-81.07V1259.9a11.65,11.65,0,0,1,17.12-10.24,77.54,77.54,0,0,0,35.51,8.88c31.71,0,39.3-42.73,40.33-56.52.93-12.5-21.79-62.43-75.35-31.48a11.62,11.62,0,0,1-17.44-10v-90.12h83.21a8.42,8.42,0,0,0,6.72-13.46c-19.31-26.55-2.35-64.24,12.16-70.63,17.23-7.58,52.38-9.65,62.72,29,5.4,20.16.42,34.86-5.57,44.31a8.41,8.41,0,0,0,7.13,12.9H1287v92.71a11.25,11.25,0,0,1-17.66,9.24c-10.68-7.42-23.64-15.7-31.1-17.86-14.29-4.13-43.6,4.14-48.17,38.6s18.35,59.28,48.46,57.9a95.33,95.33,0,0,0,32.91-7.43,11.28,11.28,0,0,1,15.56,10.49v81h-73.75A12.62,12.62,0,0,1,1202.15,1318.58Z"/><path class="cls-16" d="M1122.48,1339.55h-83.07V1259.9a13.44,13.44,0,0,1,6.48-11.57,13.75,13.75,0,0,1,13.56-.45,74.89,74.89,0,0,0,34.59,8.66c33.86,0,38.17-52.43,38.33-54.66.5-6.62-6.43-24.45-20.88-33.52-14-8.8-31.81-7.45-51.47,3.91a13.63,13.63,0,0,1-20.44-11.78v-92.12h85.21a6.23,6.23,0,0,0,5.67-3.46,6.42,6.42,0,0,0-.57-6.82c-12-16.54-9.48-35.07-6.9-44.64,3.71-13.75,11.7-25.4,19.87-29,10.34-4.55,27.61-7.37,42.25-.35,11.43,5.49,19.24,15.79,23.22,30.62,5.71,21.33,0,36.73-5.82,45.89a6.41,6.41,0,0,0,5.44,9.83H1289v94.71a13.21,13.21,0,0,1-7.11,11.74,13,13,0,0,1-13.69-.86c-14.12-9.81-24.67-15.89-30.52-17.58-6.59-1.9-17.58-1-27.26,5.33-7.08,4.62-16,13.86-18.37,31.62-2.18,16.4,2,31.25,11.62,41.79,8.77,9.55,21.11,14.47,34.77,13.84a93,93,0,0,0,32.22-7.27,13.06,13.06,0,0,1,12.33,1.16,13.38,13.38,0,0,1,6,11.17v83h-75.75a14.62,14.62,0,0,1-12.92-21.47h0a72.89,72.89,0,0,0,7.5-21.93c2.43-14.76-1.6-25.23-11.66-30.27-15.91-8-45.25-.6-60.37,15.16-9.32,9.71-9.62,22.05-.89,36.68a14.67,14.67,0,0,1,.19,14.91A14.4,14.4,0,0,1,1122.48,1339.55Zm-79.07-4h79.07a10.43,10.43,0,0,0,9.18-5.33,10.69,10.69,0,0,0-.15-10.88c-9.62-16.14-9.12-30.49,1.45-41.5,16.46-17.16,47.46-24.76,65-16,14.89,7.46,15.73,22.87,13.81,34.5a76.84,76.84,0,0,1-7.89,23.12,10.62,10.62,0,0,0,.31,10.52,10.49,10.49,0,0,0,9.06,5.1H1285v-79a9.37,9.37,0,0,0-4.22-7.83,8.94,8.94,0,0,0-8.56-.82,97,97,0,0,1-33.6,7.59c-14.86.68-28.31-4.7-37.89-15.14-10.49-11.43-15-27.42-12.65-45,2.56-19.26,12.37-29.36,20.15-34.44,11.48-7.5,23.64-7.82,30.57-5.82,6.34,1.84,17,7.94,31.69,18.14a9.24,9.24,0,0,0,14.51-7.6v-90.71H1208a10.41,10.41,0,0,1-8.82-16c5.38-8.48,10.67-22.78,5.33-42.72-3.65-13.65-10.75-23.08-21.08-28-13.41-6.43-29.34-3.8-38.9.41-7,3.08-14.27,13.93-17.63,26.37-2.4,8.88-4.77,26,6.28,41.24a10.52,10.52,0,0,1,.9,11,10.19,10.19,0,0,1-9.24,5.64h-81.21v88.12a9.63,9.63,0,0,0,14.44,8.32c14.66-8.47,36.2-16,55.59-3.84,16,10,23.32,29.56,22.75,37.2-1.62,21.68-12.35,58.37-42.32,58.37a78.94,78.94,0,0,1-36.43-9.1,9.77,9.77,0,0,0-9.64.3,9.47,9.47,0,0,0-4.56,8.16Z"/><path class="cls-44" d="M932.91,934.91s-11,5.34-13,11.46c-1.62,4.92-13.75,5.55-14.94,15.22a11.11,11.11,0,0,1-9.29,9.76c-12.38,1.89-31.47,8.33-34.52,29.83-2.33,16.41,6,22.63,14.81,24.79a12.43,12.43,0,0,1,9.43,14.36c-1.25,6.25.62,13.47,11.44,19.18,24.24,12.79,48.46-30.31,48.46-30.31l5-75.26Z"/><path class="cls-45" d="M1081,937.79s-62,66-121.36,69.62c0,0,5,33.49,12.77,38.72,0,0,80.73-44.6,109.4-97.11Z"/><path class="cls-46" d="M833.25,1406.8l-1.57,12.9a5.31,5.31,0,0,1-4.67,4.66,81.69,81.69,0,0,1-17.26.27,4.55,4.55,0,0,1-3.83-5.91c1.58-5,4.48-12.46,8.65-16.86h14.31A4.41,4.41,0,0,1,833.25,1406.8Z"/><path class="cls-47" d="M945.32,1255.72l2.41,14.2s-8.09,81.92-9.53,114.68a25.74,25.74,0,0,0,3.8,14.59L956.07,1422l-35.74-21.09-.71-4.36,5.85-8-7.67-91.77A28.16,28.16,0,0,1,921,1281.2l7.39-13.89Z"/><path class="cls-48" d="M958.42,1425.34H947a6.86,6.86,0,0,1-5.45-2.67c-3.56-4.62-10.93-13.64-14.45-13.87-4.74-.32-4.13,16.54-4.13,16.54h-2.66L917,1404.39a12.4,12.4,0,0,1,6.51-13h0s1.08,8,7,11.56,23.92,16.24,23.92,16.24a16.34,16.34,0,0,1,4.63.13A3,3,0,0,1,958.42,1425.34Z"/><path class="cls-49" d="M896.37,1262.46s-47.38,89.87-54.91,110.39-10.17,37.63-10.27,39.26c-.16,2.53-3.31,5-12,5-4.49,0-6.68-1.8-7.75-3.54a5.06,5.06,0,0,1-.2-4.9c2.74-5.55,11.44-23.27,14.66-31.31,3.85-9.6,12.12-53.1,16.66-68.22s9.66-31.53,29.42-46.64C872,1262.46,885.55,1249.18,896.37,1262.46Z"/><path class="cls-30" d="M926.29,1115.21c12.23-51.79-18.73-81.08-18.73-81.08,19.53-18.75,55.12-27.28,55.12-27.28s34,24.83,29.94,44.26c-2.37,11.4-23.88,68.23-23.88,68.23S948.85,1128.76,926.29,1115.21Z"/><path class="cls-50" d="M899.2,1140.85c5-15,27.09-25.64,27.09-25.64,22.56,13.55,42.45,4.13,42.45,4.13s4.46,17.05,1.39,32.9-22.4,117.68-22.4,117.68c-30.44,6.17-77.25-6.2-77.25-6.2C889.87,1229.3,894.22,1155.83,899.2,1140.85Z"/><path class="cls-51" d="M940.48,972.63l-9.94,44.63c-.95,3.93,2.64,3.29,6.61,2.54,6.51-1.23,14.9-3.76,17.7-8.82a4.75,4.75,0,0,0,.51-1.68l4.27-30.95a5.55,5.55,0,0,0-3.25-5.84l-8.24-3.66A5.57,5.57,0,0,0,940.48,972.63Z"/><path class="cls-6" d="M1191,1017.63c6-9.45,11-24.15,5.57-44.31-10.33-38.6-45.49-36.53-62.72-29-14.51,6.39-31.47,44.08-12.16,70.63a8.43,8.43,0,0,1-6.72,13.47h-83.21V930.9A11.6,11.6,0,0,0,1015,920.47a93.47,93.47,0,0,1-34.2,9.43c-33.08,2.76-48.76-26.19-47.13-55.14,1.43-25.11,37.91-56.44,77.25-29.24a11.59,11.59,0,0,0,18.13-9.6V749.8h102c-31.7,26.68-23.43,65.68,8.28,80.85s60.65,2.75,63.41-31.71c1.42-17.75-4.88-29.64-11.32-37a5.92,5.92,0,0,1,4.42-9.86h82.31v84.57c0,9.27,10.74,14.77,18,9,6.3-5,14.24-9,23.77-9.48,27.57-1.38,53.77,19.3,56.52,46.87s-23.43,56.52-49.62,52.38c-12.42-2-24.22-6.93-33.2-11.61a11.23,11.23,0,0,0-16.43,10v96.76h-79.09A8.41,8.41,0,0,1,1191,1017.63Z"/><path class="cls-16" d="M1279.18,1032.53h-81.09a10.41,10.41,0,0,1-8.81-16h0c5.37-8.48,10.66-22.78,5.32-42.72-3.65-13.65-10.75-23.08-21.08-28-13.41-6.43-29.34-3.8-38.9.41-7,3.08-14.27,13.93-17.63,26.37-2.39,8.88-4.77,26.06,6.28,41.24a10.52,10.52,0,0,1,.9,11,10.2,10.2,0,0,1-9.24,5.65h-85.21V930.9a9.59,9.59,0,0,0-4.57-8.21,9.47,9.47,0,0,0-9.26-.43A95.43,95.43,0,0,1,981,931.89c-13.39,1.12-25.08-2.79-33.82-11.29-10.72-10.45-16.51-27.62-15.47-46,.8-14.22,11.91-29.3,27-36.69,9.8-4.79,29.77-10.39,53.35,5.92a9.37,9.37,0,0,0,9.83.58,9.49,9.49,0,0,0,5.17-8.54V747.8h109.5l-4.2,3.53c-14.22,12-21,27.07-19,42.52,1.88,14.77,11.92,27.85,26.85,35,15.9,7.61,31.58,8.2,43,1.62,10.15-5.85,16.38-17.1,17.54-31.68,1.41-17.53-5.11-29-10.83-35.53a7.94,7.94,0,0,1-1.28-8.56,7.83,7.83,0,0,1,7.21-4.62h84.31v86.57a9.3,9.3,0,0,0,5.33,8.43,8.74,8.74,0,0,0,9.42-1c7.71-6.13,16.09-9.47,24.91-9.91a57.1,57.1,0,0,1,38.93,13c11.32,9.24,18.31,21.9,19.68,35.64,1.48,14.72-5,30.87-17,42.15-10.33,9.76-23.08,14.29-35,12.41-10.62-1.68-22-5.65-33.8-11.82a9.23,9.23,0,0,0-13.51,8.2Zm-86.53-13.83a6.41,6.41,0,0,0,5.44,9.83h77.09V933.77A13.23,13.23,0,0,1,1294.54,922c11.42,6,22.39,9.81,32.58,11.42,10.64,1.68,22.16-2.46,31.58-11.37,11.06-10.44,17.09-25.33,15.74-38.84-2.58-25.78-27.5-46.42-54.43-45.07-8,.4-15.58,3.44-22.62,9a12.81,12.81,0,0,1-13.65,1.47,13.28,13.28,0,0,1-7.59-12V754.07h-80.31a3.79,3.79,0,0,0-3.56,2.28,3.87,3.87,0,0,0,.65,4.26c6.22,7.12,13.32,19.57,11.8,38.49-1.27,15.93-8.21,28.3-19.54,34.82-12.58,7.25-29.62,6.71-46.73-1.47-16.16-7.73-27-22-29.09-38.1-1.93-15.1,4.05-30.37,16.5-42.55H1031v84.12a13.61,13.61,0,0,1-7.32,12.09,13.3,13.3,0,0,1-14-.84c-21.91-15.15-40.31-10-49.33-5.61-13.86,6.77-24.05,20.47-24.78,33.31-1,17.19,4.36,33.21,14.27,42.86,7.88,7.68,18.49,11.19,30.7,10.18a91.51,91.51,0,0,0,33.47-9.23,13.6,13.6,0,0,1,19.62,12.22v95.57h81.21a6.24,6.24,0,0,0,5.67-3.47,6.42,6.42,0,0,0-.56-6.82c-12-16.54-9.49-35.07-6.91-44.64,3.71-13.75,11.7-25.4,19.88-29,10.34-4.55,27.6-7.37,42.24-.35,11.43,5.49,19.24,15.79,23.22,30.62,5.71,21.33,0,36.73-5.82,45.89Z"/><path class="cls-52" d="M902.06,1047.92s90.89,111,158.79-15.39a15.64,15.64,0,0,0,.49-7.89c-.41-2.35,1.14-10.71,2-15a2.35,2.35,0,0,0-2.09-2.8h0a3.21,3.21,0,0,0-2.84,1.21l-12.4,15.79a6.61,6.61,0,0,0,3.51,7.86h0a3.27,3.27,0,0,1,1.21,4.94c-51.64,67.69-138-6.59-139.59-5.72C905.53,1034.05,899.05,1037.47,902.06,1047.92Z"/><path class="cls-53" d="M952.14,930.13s11.76,5,19.77,22,2,24.85-5.48,25.93S947.7,979,935.83,968,936.84,924.24,952.14,930.13Z"/><path class="cls-54" d="M943.81,958.89S934.93,934,957,933.72l5.19,3.63s8.1-13.8-5.19-20.38-28.82-1.15-34.48,16.75-6.61,29.88,2.79,38.44S938.57,971,938.57,971s-5.12-8-3-12.29,6.9.88,6.9.88Z"/><path class="cls-55" d="M941.33,961.66s-4.49-12.81-10.47-7.71,4.86,11.84,9.11,14Z"/><path class="cls-56" d="M2019.17,804.89S1963.66,876,2027,948.25l23.81-2.22s-45.84-73.6-25.42-132.26l33.73,2.46,18.65-12.16Z"/><path class="cls-57" d="M2049.58,1152.86s45,98,68.57,138.62c0,0,4.68,25.55,0,33.58l-4,1.78,18.64-.56s1.66-34.36.37-36.28a4.74,4.74,0,0,0-3.88-1.79s-8-63.33-31.14-76.84l-22.44-77.27Z"/><path class="cls-58" d="M2106.19,1331.65c0,.45,14.56.24,22.48.1a6.29,6.29,0,0,0,6-5l6-31.43a5.65,5.65,0,0,0-4.3-6.56l-3.34-.77s-4.76,6.54-3.26,12.69,2.83,22.09-1,24-14.69,2.18-14.69,2.18S2106.44,1327.6,2106.19,1331.65Z"/><path class="cls-59" d="M2007,1332.22a1.65,1.65,0,0,0,.83,3.08c13.26-.14,43-.56,45.6-1.65,3.41-1.42-1.24-13.67-6.13-17.81l-27,8.82Z"/><path class="cls-60" d="M1998.56,1146.6s29.06,140.61,37.29,168l-19.45,12.21s9.74-1.66,17-2.18,13.88-8.82,13.88-8.82l-2.33-3.72s-7.29-139.84-5.52-155.71Z"/><path class="cls-30" d="M1986.68,923.68c11.14,3.09,48.88,13,72.44,12.62l-14.47,81.63,1.15,13.32-47.16-.22s-13.28-30.83-23.76-46.21c-3-4.44-.77-9.73.95-14.82l-2.36-1.57a6.41,6.41,0,0,1-2.54-7.33L1982.41,926A3.51,3.51,0,0,1,1986.68,923.68Z"/><path class="cls-61" d="M1994.86,1024.07l.93,8.06s-13.33,39.92,6.66,133.15c0,0,43.3,12.27,78.89-17.08,0,0-10-88-12.78-92.1-13.66-20.42-22.76-24.85-22.76-24.85l-.41-8.82S2007.33,1029.31,1994.86,1024.07Z"/><path class="cls-62" d="M2013.32,930.26c-.16-.22,9.85-30.23,9.85-30.23l14.34,1.31,5.6,34S2020.64,939.92,2013.32,930.26Z"/><path class="cls-63" d="M2034.08,852.71c-1,.59-30.65,12.86-24.27,43.69a5.79,5.79,0,0,0,3.29,4.12,50.37,50.37,0,0,0,25,4.13c15.55-1.58,25.74-28.72,25.31-36.62S2043.55,846.81,2034.08,852.71Z"/><path class="cls-64" d="M2043.11,840.72c-.78.11-17.16,5.81-9,17.68s11.16,18.85,7.32,24.06c-3.5,4.75-11.25,2-10.57,11.92a5.55,5.55,0,0,1-2.36,5c-7.31,4.94-25.13,20.16-7.47,41.87a5.54,5.54,0,0,1,.62,6.19c-5.17,9.28-16,36.45,23.3,51.53,38.86,14.89,52.9-10.51,56.82-20.67a5.42,5.42,0,0,1,5.36-3.43c4.27.2,10.32-.51,10-6.21-.17-3.47-2.33-6.58-4.89-9.07a5.4,5.4,0,0,1,1.05-8.52,10.63,10.63,0,0,0,5.24-6.59c2.35-8.73-2.35-34.83-27.37-39.25a5.9,5.9,0,0,1-4.57-4.42s0-.06,0-.09a5.41,5.41,0,0,1,2-5.32c4-2.93,9.12-8.83,5-18.29-3.69-8.39-10.77-11.22-16-12.12a5.46,5.46,0,0,1-4.46-6.52C2074.83,850.14,2073.29,836.77,2043.11,840.72Z"/><path class="cls-6" d="M1850.71,722.61a81.42,81.42,0,0,1-29.59,8c-27.24,2.17-33.77-18.52-33.77-40.31s21.78-34.86,38.12-32.68c7.83,1,16.9,6.15,24.23,11.2a8.88,8.88,0,0,0,13.9-7.34V593.38h65.2a8.55,8.55,0,0,0,7.42-12.9c-4-6.59-7.25-16.35-7.25-30.67,0-37,43.57-52.29,55.88-21.79,8.16,20.23,5.5,42.37,2.78,55a8.57,8.57,0,0,0,8.4,10.37h69.11v66.08a9.91,9.91,0,0,1-15.23,8.39c-8.15-5.23-17.86-10.77-24.56-12.37-13.65-3.27-38.65,12-39.74,38.13s12,37,38.13,39.21a45.56,45.56,0,0,0,26.7-6c6.55-3.75,14.7,1.22,14.7,8.76v70.89h-63.2a11.53,11.53,0,0,1-11-15c5.46-17.61,8-44.84-27.09-47.76-43-3.59-41.51,21.14-30,46.5a11.52,11.52,0,0,1-10.55,16.22H1863.6v-75.9A8.89,8.89,0,0,0,1850.71,722.61Z"/><path class="cls-16" d="M2067.14,808.44h-65.2A13.52,13.52,0,0,1,1989,790.89c3.12-10.07,5.48-24.1-1-33.76-4.45-6.6-12.63-10.45-24.31-11.42-16.33-1.36-27,1.36-31.77,8.08-5,7.1-3.76,19.08,3.72,35.61a13.36,13.36,0,0,1-1,12.83,13.51,13.51,0,0,1-11.4,6.21H1861.6v-77.9a6.7,6.7,0,0,0-3.22-5.82,7,7,0,0,0-6.79-.32h0a83.17,83.17,0,0,1-30.31,8.24c-10.42.83-18.73-1.54-24.69-7-7.46-6.89-11.24-18.75-11.24-35.26a33.28,33.28,0,0,1,11.73-25.29c8.07-7.07,19.05-10.66,28.66-9.38,6.86.92,15.3,4.8,25.1,11.54a6.87,6.87,0,0,0,10.76-5.69V591.38h67.2a6.59,6.59,0,0,0,5.8-3.4,6.34,6.34,0,0,0-.09-6.46c-5-8.25-7.54-18.92-7.54-31.71A42,42,0,0,1,1936.1,523a35.49,35.49,0,0,1,20.55-12.7c13.27-2.57,24.79,3.94,30,17,8.5,21.06,5.45,44.23,2.88,56.16a6.58,6.58,0,0,0,6.45,8h71.11v68.08a11.92,11.92,0,0,1-18.31,10.08c-10.39-6.66-18.67-10.85-23.95-12.12-5.9-1.41-14.33,1.16-21.47,6.56a39.29,39.29,0,0,0-15.8,29.71c-1,23.83,9.87,34.94,36.3,37.14a43.37,43.37,0,0,0,25.53-5.78,11.59,11.59,0,0,1,11.68.08,11.92,11.92,0,0,1,6,10.42Zm-111.07-67.06c2.49,0,5.14.11,7.92.35,13,1.07,22.13,5.5,27.3,13.16,7.4,11,4.92,26.28,1.54,37.18a9.53,9.53,0,0,0,9.11,12.37h61.2V735.55a8,8,0,0,0-4-7,7.62,7.62,0,0,0-7.68-.07,47.34,47.34,0,0,1-27.85,6.3c-28.73-2.4-41-15.13-40-41.3A43.24,43.24,0,0,1,2001,660.79c8.18-6.18,17.68-9,24.81-7.26,5.8,1.39,14.27,5.64,25.18,12.64a7.76,7.76,0,0,0,8,.27,7.86,7.86,0,0,0,4.14-7V595.38H1996a10.58,10.58,0,0,1-10.36-12.79c2.48-11.49,5.42-33.75-2.68-53.82-4.57-11.34-14.13-16.78-25.57-14.56-13.15,2.55-26.45,15.6-26.45,35.6,0,12,2.34,22,7,29.63a10.29,10.29,0,0,1,.15,10.51,10.52,10.52,0,0,1-9.28,5.43h-63.2v66.14a10.88,10.88,0,0,1-5.82,9.65,10.69,10.69,0,0,1-11.21-.67c-9.14-6.29-17.22-10-23.36-10.86-8.5-1.13-18.27,2.09-25.49,8.41a29.37,29.37,0,0,0-10.37,22.29c0,15.35,3.34,26.22,10,32.32,5.11,4.72,12.4,6.73,21.66,6a79.05,79.05,0,0,0,28.86-7.84h0a10.94,10.94,0,0,1,10.66.51,10.79,10.79,0,0,1,5.11,9.22v73.9h57.64a9.53,9.53,0,0,0,8-4.38,9.31,9.31,0,0,0,.69-9c-8.11-17.91-9.23-31.22-3.35-39.55C1933.36,744.77,1942.58,741.38,1956.07,741.38Z"/><path class="cls-65" d="M1926.41,814.51s-4,73.14,62.58,110.51l-16,36.57s-60.29-36.47-58.06-135.92a11.49,11.49,0,0,0-2.83-7.79L1899.26,803a23,23,0,0,1-4.89-20.6l1.69-6.74a3.48,3.48,0,0,1,5.14-2.17l1.34.78A23.44,23.44,0,0,1,1912.2,785l6.29,14.07A13.51,13.51,0,0,0,1932,807l3.89-.33Z"/><path class="cls-29" d="M1570.43,129.9s.29-.49.86-1.38a1.08,1.08,0,0,1,1.49-.32,1.11,1.11,0,0,1,.45.58c.46-.13,1-.26,1.56-.4a1.08,1.08,0,1,1,.51,2.09c-1.63.4-2.78.75-3.33.92l-.33.1-2.57.69Zm3.91-5.89c1-1.46,2.12-2.93,3.23-4.38a1.08,1.08,0,0,1,1.71,1.31c-1.09,1.43-2.16,2.88-3.17,4.32a1.09,1.09,0,0,1-1.51.25,1.42,1.42,0,0,1-.22-.2A1.1,1.1,0,0,1,1574.34,124Zm4.94,4.54a1.09,1.09,0,0,1,.91-1.23,53.2,53.2,0,0,1,5.49-.52,1.08,1.08,0,0,1,.09,2.15c-1.7.08-3.47.25-5.26.51a1.07,1.07,0,0,1-1-.4A1,1,0,0,1,1579.28,128.55Zm10.76-.67a1.09,1.09,0,0,1,1.17-1,36,36,0,0,1,5.48.87,1.07,1.07,0,1,1-.5,2.09A34.55,34.55,0,0,0,1591,129a1,1,0,0,1-.76-.4A1.11,1.11,0,0,1,1590,127.88ZM1581,115.37c1.16-1.41,2.35-2.8,3.53-4.13a1.08,1.08,0,0,1,1.62,1.43c-1.17,1.32-2.34,2.69-3.48,4.07a1.08,1.08,0,0,1-1.52.15,1.21,1.21,0,0,1-.16-.16A1.08,1.08,0,0,1,1581,115.37Zm19.61,14.73a1.08,1.08,0,0,1,1.42-.54,25.37,25.37,0,0,1,3.51,1.94c.43.28.86.55,1.28.8a1.09,1.09,0,0,1,.36,1.49,1.07,1.07,0,0,1-1.48.36c-.44-.27-.89-.55-1.35-.85a23.11,23.11,0,0,0-3.21-1.77,1.1,1.1,0,0,1-.39-.31A1.06,1.06,0,0,1,1600.56,130.1Zm14.69,15.27a1.06,1.06,0,0,1,1.14-.24,7.86,7.86,0,0,1,3.24-.22,1.08,1.08,0,1,1-.23,2.14,4.81,4.81,0,0,0-3.48.68l-1.37-1.66ZM1610,135.26a1.08,1.08,0,0,1,1.4-.6,20,20,0,0,0,4.92,1.31,1.08,1.08,0,0,1-.25,2.14,21.7,21.7,0,0,1-5.47-1.45,1,1,0,0,1-.44-.32A1.08,1.08,0,0,1,1610,135.26Zm-21.84-28c1.26-1.31,2.56-2.61,3.85-3.85a1.08,1.08,0,0,1,1.49,1.56c-1.27,1.22-2.54,2.49-3.78,3.79a1.09,1.09,0,0,1-1.53,0,.87.87,0,0,1-.09-.11A1.07,1.07,0,0,1,1588.17,107.24ZM1619,141.52c1.45-1.5,2.69-2.81,3.69-3.91a1.08,1.08,0,0,1,1.6,1.45c-1,1.12-2.28,2.45-3.74,4a1.07,1.07,0,0,1-1.52,0l-.1-.11A1.08,1.08,0,0,1,1619,141.52Zm4.71,5.33a1.08,1.08,0,0,1,1.3-.8c1.54.37,3.23.76,5.2,1.06a1.08,1.08,0,0,1,.9,1.23,1.07,1.07,0,0,1-1.23.9c-2.05-.31-3.79-.71-5.37-1.09a1.07,1.07,0,0,1-.59-.37A1.1,1.1,0,0,1,1623.73,146.85ZM1620.5,137a1.09,1.09,0,0,1,.75-1.34,13.52,13.52,0,0,0,3.66-1.72c.33-.21.6-.37.82-.48l.3-.13a1.06,1.06,0,0,1,1.34.69,1.1,1.1,0,0,1-.71,1.38c-.15.08-.36.21-.61.37a15.43,15.43,0,0,1-4.21,2,1.09,1.09,0,0,1-1.34-.74ZM1596,99.71c1.23-1.07,2.47-2.11,3.71-3.1l.48-.38a1.08,1.08,0,0,1,1.51.17h0a1.07,1.07,0,0,1-.18,1.51l-.48.38c-1.21,1-2.43,2-3.63,3a1.08,1.08,0,0,1-1.52-.1l0,0A1.09,1.09,0,0,1,1596,99.71Zm38.32,49a1.08,1.08,0,0,1,1.12-1,51.83,51.83,0,0,0,5.28,0,1.07,1.07,0,0,1,1.14,1,1.09,1.09,0,0,1-1,1.14,53.33,53.33,0,0,1-5.5,0,1.05,1.05,0,0,1-.8-.41A1,1,0,0,1,1634.35,148.66Zm10.75-.4A1.08,1.08,0,0,1,1646,147l1.13-.17a37.63,37.63,0,0,0,4-.9,1.08,1.08,0,1,1,.59,2.07,37.41,37.41,0,0,1-4.25,1l-1.16.18a1,1,0,0,1-1-.4A1,1,0,0,1,1645.1,148.26Zm-40.77-53.79a1.07,1.07,0,0,1,.26-1.5c1.51-1.07,3-2.08,4.56-3a1.08,1.08,0,0,1,1.13,1.84c-1.48.91-3,1.89-4.45,2.93a1.07,1.07,0,0,1-1.46-.21A.1.1,0,0,1,1604.33,94.47Zm51.19,51.11a1.08,1.08,0,0,1,.53-1.43,33.38,33.38,0,0,0,4.57-2.53,1.08,1.08,0,0,1,1.19,1.81,37.14,37.14,0,0,1-4.86,2.68,1.07,1.07,0,0,1-1.43-.53Zm-42.07-56.86a1.09,1.09,0,0,1,.45-1.46c1.64-.86,3.3-1.65,4.95-2.35a1.09,1.09,0,0,1,1.42.57,1.08,1.08,0,0,1-.57,1.41c-1.6.68-3.21,1.45-4.8,2.28a1.09,1.09,0,0,1-1.34-.28A1,1,0,0,1,1613.45,88.72Zm51.33,49.72a38.17,38.17,0,0,0,3.66-3.75,1.08,1.08,0,1,1,1.64,1.4,39.15,39.15,0,0,1-3.87,4,1.07,1.07,0,0,1-1.52-.09l0,0A1.08,1.08,0,0,1,1664.78,138.44Zm-41.49-54.11A1.08,1.08,0,0,1,1624,83c1.75-.58,3.53-1.07,5.29-1.47a1.08,1.08,0,0,1,.48,2.11c-1.69.38-3.41.86-5.1,1.41a1.08,1.08,0,0,1-1.18-.35A1.22,1.22,0,0,1,1623.29,84.33Zm48.27,46.15a22.51,22.51,0,0,0,2.26-4.32l.35-2.36a1.08,1.08,0,1,1,2.13.31l-.33,2.3h0c-.23,1.54-2.54,5.19-2.57,5.23a1.08,1.08,0,0,1-1.49.33,1.2,1.2,0,0,1-.26-.24A1.08,1.08,0,0,1,1671.56,130.48Zm-37.81-48.72a1.09,1.09,0,0,1,.94-1.2,50.93,50.93,0,0,1,5.49-.36,1.08,1.08,0,0,1,0,2.16,49.07,49.07,0,0,0-5.26.35,1.08,1.08,0,0,1-1-.4A1,1,0,0,1,1633.75,81.76Zm10.75-.35a1.08,1.08,0,0,1,1.18-1,50.74,50.74,0,0,1,5.44.84,1.08,1.08,0,1,1-.44,2.11,49.35,49.35,0,0,0-5.21-.8,1.09,1.09,0,0,1-.74-.4A1.16,1.16,0,0,1,1644.5,81.41Zm30.44,37.05.78-5.34a1.08,1.08,0,0,1,2.13.31l-.77,5.34a1.08,1.08,0,0,1-1.23.91,1.07,1.07,0,0,1-.68-.39A1.1,1.1,0,0,1,1674.94,118.46ZM1655.08,83.4a1.07,1.07,0,0,1,1.35-.7c1.71.55,3.44,1.2,5.14,1.94a1.08,1.08,0,0,1-.85,2c-1.65-.71-3.31-1.34-5-1.87a1,1,0,0,1-.51-.35A1.05,1.05,0,0,1,1655.08,83.4Zm21.41,24.38.77-5.34a1.09,1.09,0,0,1,1.23-.91,1.07,1.07,0,0,1,.91,1.22l-.77,5.34a1.08,1.08,0,0,1-1.23.91,1,1,0,0,1-.68-.39A1.09,1.09,0,0,1,1676.49,107.78ZM1665,87.47a1.08,1.08,0,0,1,1.46-.43c1.56.85,3.14,1.79,4.7,2.8a1.08,1.08,0,0,1-1.17,1.81c-1.51-1-3-1.89-4.56-2.71a1.12,1.12,0,0,1-.33-.28A1.07,1.07,0,0,1,1665,87.47Zm9.12,5.72a1.08,1.08,0,0,1,1.52-.21c1.38,1,2.78,2.16,4.15,3.33l.45.39-.1.72a1.08,1.08,0,0,1-2.06.27c-1.24-1-2.5-2-3.74-3a1.21,1.21,0,0,1-.2-.19A1.08,1.08,0,0,1,1674.16,93.19Z"/><path class="cls-66" d="M1675.3,114.29s-11,21.21-27.47,14.79-31.43-17-39-13.68c0,0,29-36.62,66.81-9.54Z"/><path class="cls-67" d="M1718.63,139.91s-2.85,23.3-10.26,26.19c-7,2.75-60-2-65.11-2.48a.44.44,0,0,1-.4-.45h0a6,6,0,0,1,2.53-4.83c7.56-5.38,30.3-21.25,38.71-23.84C1694.27,131.36,1718.63,139.91,1718.63,139.91Z"/><path class="cls-2" d="M1662.28,162.14a.55.55,0,0,0,.38.2c.3,0,29.32,2.13,41.85,2.55a5.65,5.65,0,0,0,5.27-3.18,83.84,83.84,0,0,0,5.88-16,.54.54,0,1,0-1.05-.25,83.07,83.07,0,0,1-5.8,15.78,4.58,4.58,0,0,1-4.26,2.57c-12.51-.42-41.52-2.52-41.81-2.54a.54.54,0,0,0-.58.5A.53.53,0,0,0,1662.28,162.14Z"/><path class="cls-68" d="M1719.34,85.4S1717.09,62,1709.76,59c-7-2.93-60,.46-65.16.8a.43.43,0,0,0-.41.43h0a6.06,6.06,0,0,0,2.4,4.9c7.43,5.57,29.75,22,38.09,24.84C1694.76,93.31,1719.34,85.4,1719.34,85.4Z"/><path class="cls-2" d="M1663.57,62.4a.55.55,0,0,0,.45.2c.29,0,29.34-1.36,41.86-1.46a4.57,4.57,0,0,1,4.19,2.68,83,83,0,0,1,5.39,15.92.54.54,0,0,0,1.06-.22,82.55,82.55,0,0,0-5.47-16.15,5.65,5.65,0,0,0-5.18-3.31c-12.54.1-41.61,1.45-41.9,1.46a.55.55,0,0,0-.52.57A.56.56,0,0,0,1663.57,62.4Z"/><path class="cls-69" d="M1797.45,140.63a121.19,121.19,0,0,1-37.44,5.54c-43.4-.44-75.23-8.27-84.22-10.73a4.61,4.61,0,0,1-3.25-3.4,81.22,81.22,0,0,1,.2-38.71,6.66,6.66,0,0,1,5-4.88c10.54-2.51,41.65-8.9,83.18-8.24a121.32,121.32,0,0,1,37,6.42C1803.64,108.22,1800.12,129,1797.45,140.63Z"/><path class="cls-66" d="M1797.9,86.63a125.64,125.64,0,0,1,44.29,26,2.26,2.26,0,0,1,0,3.34,125.56,125.56,0,0,1-44.69,24.71C1800.12,129,1803.64,108.22,1797.9,86.63Z"/><path class="cls-3" d="M1763.58,91.42c-11.24-.15-20.49,9.52-20.64,21.58s8.83,22,20.07,22.12,20.49-9.52,20.64-21.59S1774.82,91.57,1763.58,91.42Z"/><path class="cls-70" d="M1764.1,95.26c-9-.12-16.32,7.58-16.45,17.19s7,17.51,16,17.62,16.32-7.58,16.44-17.2S1773.06,95.37,1764.1,95.26Z"/><path class="cls-3" d="M1766.73,124.9a.55.55,0,0,0,.57.18,13.62,13.62,0,0,0,9.53-13,14.29,14.29,0,0,0-.64-4.42.54.54,0,1,0-1,.32,13.06,13.06,0,0,1,.59,4.09A12.53,12.53,0,0,1,1767,124a.53.53,0,0,0-.36.67A.66.66,0,0,0,1766.73,124.9Z"/><path class="cls-3" d="M1722.57,98.31c-7.43-.1-13.53,6.28-13.63,14.25s5.83,14.52,13.26,14.61,13.53-6.29,13.63-14.26S1730,98.4,1722.57,98.31Z"/><path class="cls-71" d="M1722.92,100.84c-5.92-.08-10.79,5-10.87,11.36s4.65,11.56,10.57,11.64,10.78-5,10.86-11.36S1728.83,100.92,1722.92,100.84Z"/><path class="cls-3" d="M1724.51,120.53a.54.54,0,0,0,.57.19,9.19,9.19,0,0,0,6.43-8.73,9.36,9.36,0,0,0-.44-3,.53.53,0,0,0-1,.32,8.71,8.71,0,0,1,.38,2.65,8.1,8.1,0,0,1-5.65,7.7.53.53,0,0,0-.36.67A.51.51,0,0,0,1724.51,120.53Z"/><path class="cls-29" d="M1555.93,129.08l-7.08,1.73a1.23,1.23,0,1,1-.58-2.39l.07,0,6.91-1.72.08,0a1.25,1.25,0,1,1,.6,2.42Z"/><path class="cls-29" d="M1541.68,132.06l-7.23.78a1.21,1.21,0,1,1-.26-2.4h.07l7.08-.79h.07a1.22,1.22,0,0,1,.27,2.43Z"/><path class="cls-29" d="M1527.19,133.19l-7.26-.06a1.18,1.18,0,0,1-1.17-1.19,1.19,1.19,0,0,1,1.19-1.17h.06l7.13,0h.06a1.2,1.2,0,0,1,0,2.39Z"/><path class="cls-29" d="M1512.69,132.71l-7.21-.76a1.16,1.16,0,1,1,.24-2.3h0l7.11.72h0a1.17,1.17,0,1,1-.23,2.32Z"/><path class="cls-29" d="M1498.31,130.88l-7.11-1.35a1.13,1.13,0,0,1-.9-1.32,1.14,1.14,0,0,1,1.32-.9h0l7,1.31h0a1.14,1.14,0,1,1-.42,2.24Z"/><path class="cls-29" d="M1484.14,127.93l-7-1.84a1.11,1.11,0,0,1,.56-2.14h0l6.93,1.8h0a1.11,1.11,0,1,1-.55,2.16Z"/><path class="cls-29" d="M1470.21,124l-6.87-2.25a1.07,1.07,0,1,1,.67-2h0l6.82,2.2h0a1.09,1.09,0,1,1-.67,2.07Z"/><path class="cls-29" d="M1456.54,119.36l-6.74-2.6a1,1,0,1,1,.75-2h0l6.7,2.55h0a1.07,1.07,0,0,1-.76,2Z"/><path class="cls-29" d="M1443.12,114l-6.62-2.88a1,1,0,0,1,.82-1.88h0l6.59,2.84h0a1,1,0,0,1-.82,1.91Z"/><path class="cls-29" d="M1429.94,108.11l-6.5-3.15a1,1,0,1,1,.87-1.79h0l6.48,3.11h0a1,1,0,0,1,.47,1.35,1,1,0,0,1-1.35.48Z"/><path class="cls-29" d="M1417,101.7l-6.38-3.36a1,1,0,0,1,.9-1.72h0l6.37,3.32h0a1,1,0,0,1-.92,1.75Z"/><path class="cls-29" d="M1404.29,94.87,1398,91.31a.94.94,0,1,1,.93-1.64h0l6.27,3.53h0a1,1,0,0,1-.94,1.66Z"/><path class="cls-29" d="M1391.78,87.66l-6.18-3.73a.93.93,0,0,1,1-1.59h0l6.16,3.71h0a.94.94,0,1,1-1,1.6Z"/><path class="cls-29" d="M1379.48,80.12l-6.08-3.89a.92.92,0,0,1,1-1.56h0l6.06,3.87h0a.92.92,0,1,1-1,1.56Z"/><path class="cls-29" d="M1367.37,72.27l-6-4a.92.92,0,1,1,1-1.52h0l6,4h0a.92.92,0,0,1-1,1.53Z"/><path class="cls-29" d="M1355.45,64.13,1349.57,60a.91.91,0,0,1,1-1.48h0l5.87,4.15h0a.92.92,0,0,1-1.06,1.5Z"/><path class="cls-29" d="M1343.66,55.93l-6.14-3.65,0,0a.89.89,0,0,1-.31-1.23.9.9,0,0,1,1.23-.32l6.25,3.7a.91.91,0,0,1,.32,1.24.92.92,0,0,1-1.25.32h0Z"/><path class="cls-29" d="M1331.16,49l-6.56-2.84,0,0a.9.9,0,0,1-.46-1.18.88.88,0,0,1,1.17-.46l6.66,2.87a.9.9,0,1,1-.71,1.65h0Z"/><path class="cls-29" d="M1317.88,43.79l-6.86-2,0,0a.88.88,0,1,1,.49-1.7l7,2a.89.89,0,0,1-.49,1.71h-.06Z"/><path class="cls-29" d="M1304.05,40.26,1297,39.17h-.06a.88.88,0,0,1-.73-1,.87.87,0,0,1,1-.73l7.17,1.11a.88.88,0,1,1-.27,1.74h0Z"/><path class="cls-29" d="M1289.87,38.52l-7.14-.2h0a.88.88,0,1,1,0-1.75l7.25.2a.88.88,0,0,1,0,1.75h-.06Z"/><path class="cls-29" d="M1275.6,38.58l-7.11.71h-.06a.87.87,0,0,1-.17-1.73l7.22-.73a.88.88,0,0,1,1,.78.86.86,0,0,1-.78,1h-.05Z"/><path class="cls-29" d="M1261.44,40.45l-7,1.61h-.06a.86.86,0,1,1-.38-1.67l7.06-1.64a.86.86,0,1,1,.39,1.68h0Z"/><path class="cls-29" d="M1247.63,44.11l-6.7,2.47,0,0a.85.85,0,1,1-.59-1.59l6.8-2.53a.86.86,0,0,1,.6,1.61h0Z"/><path class="cls-29" d="M1234.41,49.49l-6.29,3.36-.06,0a.84.84,0,0,1-1.14-.34.85.85,0,0,1,.35-1.15l6.39-3.43a.84.84,0,0,1,1.15.35.85.85,0,0,1-.34,1.15h0Z"/><path class="cls-29" d="M1222.08,56.66l-5.78,4.2,0,0a.84.84,0,0,1-1.17-.18.83.83,0,0,1,.19-1.17l5.86-4.27a.85.85,0,0,1,1.18.19.84.84,0,0,1-.19,1.17h0Z"/><path class="cls-29" d="M1210.78,65.41l-5.23,4.87,0,0a.83.83,0,1,1-1.14-1.21l5.3-4.94a.83.83,0,0,1,1.14,1.22h0Z"/><path class="cls-29" d="M1200.61,75.44,1196,80.88l0,0a.81.81,0,0,1-1.16.09.82.82,0,0,1-.09-1.16l4.7-5.51a.82.82,0,0,1,1.16-.1.84.84,0,0,1,.1,1.17h0Z"/><path class="cls-29" d="M1191.64,86.58l-4,5.94,0,0a.83.83,0,0,1-1.14.22.82.82,0,0,1-.22-1.13l4-6a.82.82,0,1,1,1.37.91h0Z"/><path class="cls-29" d="M1184,98.68l-3.23,6.38,0,0a.81.81,0,0,1-1.44-.74l3.27-6.47a.81.81,0,1,1,1.45.74h0Z"/><path class="cls-29" d="M1178,111.63l-2.34,6.75,0,.05a.8.8,0,0,1-1.52-.52l2.38-6.86a.8.8,0,1,1,1.52.53h0Z"/><path class="cls-29" d="M1173.81,125.28l-1.29,7v.07a.79.79,0,1,1-1.56-.29l1.3-7.14a.8.8,0,0,1,1.57.28h0Z"/><path class="cls-29" d="M1171.84,139.39l0,7.12v.08a.79.79,0,1,1-1.57,0l0-7.27a.79.79,0,0,1,.79-.79.79.79,0,0,1,.79.8h0Z"/><path class="cls-29" d="M1172.43,153.6l1.33,7,0,.07a.78.78,0,1,1-1.54.3l-1.37-7.15a.8.8,0,0,1,.62-.92.79.79,0,0,1,.92.63h0Z"/><path class="cls-29" d="M1175.8,167.42l2.72,6.57,0,.08a.76.76,0,0,1-.41,1,.76.76,0,0,1-1-.41l-2.79-6.72a.78.78,0,0,1,.41-1,.79.79,0,0,1,1,.42h0Z"/><path class="cls-29" d="M1182,180.16a36.51,36.51,0,0,0,4.48,5.44.76.76,0,1,1-1.08,1.08,38.37,38.37,0,0,1-4.68-5.65.78.78,0,0,1,.21-1.07.77.77,0,0,1,1.07.2Z"/><path class="cls-29" d="M1192,190a30.12,30.12,0,0,0,6.33,3,.77.77,0,0,1,.47,1,.75.75,0,0,1-1,.47,31.43,31.43,0,0,1-6.65-3.16.75.75,0,0,1-.24-1,.76.76,0,0,1,1-.24Z"/><path class="cls-29" d="M1205.15,194.48a33,33,0,0,0,7,0,.75.75,0,0,1,.16,1.5,34.63,34.63,0,0,1-7.34,0,.75.75,0,1,1,.15-1.5Z"/><path class="cls-29" d="M1219.07,193a38.66,38.66,0,0,0,6.52-2.71.74.74,0,0,1,1,.31.75.75,0,0,1-.31,1,40,40,0,0,1-6.76,2.82.75.75,0,0,1-.94-.49.76.76,0,0,1,.49-.94Z"/><path class="cls-29" d="M1231.53,186.46a41.29,41.29,0,0,0,5.22-4.76.74.74,0,0,1,1,0,.73.73,0,0,1,0,1,43.5,43.5,0,0,1-5.39,4.94.74.74,0,0,1-1-.14.75.75,0,0,1,.13-1Z"/><path class="cls-29" d="M1241.12,176.14l1.8-3c.63-1,1.1-2.09,1.63-3.15l0,0a.74.74,0,0,1,1-.33.72.72,0,0,1,.33,1,35.47,35.47,0,0,1-1.68,3.24l-1.85,3.16a.73.73,0,0,1-1.27-.74h0Z"/><path class="cls-29" d="M1247,163.3a40,40,0,0,0,1.35-6.94.72.72,0,0,1,.79-.65.73.73,0,0,1,.65.8,41.89,41.89,0,0,1-1.39,7.19.72.72,0,0,1-.9.5.73.73,0,0,1-.5-.9Z"/><path class="cls-29" d="M1248.41,149.31a36.51,36.51,0,0,0-1.31-6.93.72.72,0,0,1,1.38-.4,37.65,37.65,0,0,1,1.37,7.2.72.72,0,0,1-1.44.13Z"/><path class="cls-29" d="M1244.5,135.83a41.77,41.77,0,0,0-3.74-6,.71.71,0,0,1,1.14-.85,42.61,42.61,0,0,1,3.87,6.2.71.71,0,1,1-1.27.65Z"/><path class="cls-29" d="M1236.09,124.5a51.63,51.63,0,0,0-5.41-4.59.7.7,0,0,1,.83-1.13,53.14,53.14,0,0,1,5.57,4.71.72.72,0,0,1,0,1,.7.7,0,0,1-1,0Z"/><path class="cls-29" d="M1224.7,116.07a60.69,60.69,0,0,0-6.4-3.08.7.7,0,0,1,.52-1.29,62.73,62.73,0,0,1,6.56,3.15.7.7,0,0,1-.68,1.22Z"/><path class="cls-29" d="M1211.57,110.65c-2.28-.66-4.63-1.09-7-1.65h0a.7.7,0,1,1,.33-1.37h0c2.35.57,4.72,1,7,1.7a.7.7,0,0,1,.48.86.69.69,0,0,1-.85.47Z"/><path class="cls-29" d="M1197.57,107.85l-7.12-.69h0a.74.74,0,1,1,.14-1.48h0l7.21.73a.72.72,0,1,1-.15,1.44Z"/><path class="cls-29" d="M1183.3,106.92l-7.15.18h-.05a.79.79,0,0,1-.8-.77.78.78,0,0,1,.76-.8h0l7.24-.14a.77.77,0,0,1,0,1.53Z"/><path class="cls-29" d="M1169,107.67l-7.09,1h0a.83.83,0,1,1-.22-1.64h0l7.18-.94a.81.81,0,0,1,.22,1.6Z"/><path class="cls-29" d="M1154.9,110l-7,1.72h0a.87.87,0,0,1-1.05-.64.85.85,0,0,1,.63-1h0l7-1.7a.84.84,0,1,1,.4,1.64Z"/><path class="cls-29" d="M1141.11,113.77l-6.72,2.45-.05,0a.91.91,0,0,1-1.16-.55.9.9,0,0,1,.54-1.15h0l6.83-2.44a.89.89,0,0,1,1.13.54.88.88,0,0,1-.53,1.13Z"/><path class="cls-29" d="M1127.81,119l-6.39,3.18-.05,0a.95.95,0,0,1-.85-1.69h0l6.51-3.2a.93.93,0,1,1,.82,1.66Z"/><path class="cls-29" d="M1115.23,125.78l-6,3.94,0,0a1,1,0,0,1-1.08-1.64h0l6.07-4a1,1,0,1,1,1.06,1.62Z"/><path class="cls-29" d="M1103.55,134l-5.51,4.56,0,0a1,1,0,0,1-1.3-1.58h0l5.62-4.58a1,1,0,1,1,1.27,1.55Z"/><path class="cls-29" d="M1092.73,143.33l-5.11,5,0,0a1.06,1.06,0,0,1-1.49-1.52h0l5.19-5a1,1,0,1,1,1.46,1.5Z"/><path class="cls-29" d="M1082.7,153.54l-4.75,5.37,0,0a1.11,1.11,0,0,1-1.66-1.46h0l4.82-5.39a1.08,1.08,0,0,1,1.53-.09,1.1,1.1,0,0,1,.09,1.53Z"/><path class="cls-29" d="M1073.38,164.42l-4.41,5.65,0,0a1.15,1.15,0,0,1-1.6.2,1.14,1.14,0,0,1-.2-1.6h0l4.48-5.68a1.13,1.13,0,0,1,1.77,1.39Z"/><path class="cls-29" d="M1064.72,175.85l-4.09,5.88v0a1.18,1.18,0,0,1-1.94-1.34h0l4.16-5.92a1.16,1.16,0,0,1,1.9,1.33Z"/><path class="cls-29" d="M1056.7,187.73l-3.78,6.09,0,0a1.21,1.21,0,1,1-2.06-1.28h0l3.85-6.13a1.19,1.19,0,0,1,1.65-.37,1.2,1.2,0,0,1,.38,1.64Z"/><path class="cls-29" d="M1049.29,200l-3.47,6.28v0a1.26,1.26,0,0,1-2.2-1.21h0l3.53-6.31a1.24,1.24,0,0,1,2.16,1.21Z"/><path class="cls-29" d="M1042.51,212.63l-3.16,6.44,0,0A1.29,1.29,0,1,1,1037,218h0l3.22-6.48a1.27,1.27,0,1,1,2.28,1.12Z"/><path class="cls-29" d="M1036.36,225.58l-2.82,6.59v0a1.33,1.33,0,1,1-2.45-1.05h0l2.88-6.64a1.31,1.31,0,0,1,2.4,1Z"/><path class="cls-29" d="M1030.9,238.84l-2.44,6.73v0a1.37,1.37,0,1,1-2.57-.93h0l2.51-6.8a1.35,1.35,0,0,1,2.53.93Z"/><path class="cls-29" d="M1026.23,252.37l-2,6.87v.05a1.4,1.4,0,0,1-2.69-.79h0l2.06-7a1.39,1.39,0,0,1,2.66.79Z"/><path class="cls-29" d="M1022.48,266.17l-1.46,7v0a1.45,1.45,0,0,1-1.71,1.11,1.44,1.44,0,0,1-1.11-1.7c.48-2.37,1-4.73,1.52-7.1a1.41,1.41,0,0,1,1.68-1.09,1.43,1.43,0,0,1,1.1,1.69Z"/><path class="cls-29" d="M1019.85,280.19l-.84,7.09v.06a1.42,1.42,0,1,1-2.83-.33l.84-7.22a1.43,1.43,0,0,1,2.85.33h0Z"/><path class="cls-29" d="M1018.52,294.39l-.12,7.13v.07a1.41,1.41,0,1,1-2.82,0l.11-7.28a1.42,1.42,0,0,1,1.44-1.39,1.4,1.4,0,0,1,1.39,1.43h0Z"/><path class="cls-29" d="M1018.67,308.64l.65,7.09v.08a1.4,1.4,0,0,1-2.78.26l-.68-7.25a1.4,1.4,0,1,1,2.79-.26h0Z"/><path class="cls-29" d="M1020.38,322.77l1.46,7v.08a1.38,1.38,0,0,1-2.7.56l-1.5-7.11a1.39,1.39,0,1,1,2.71-.58h0Z"/><path class="cls-29" d="M1023.69,336.61l2.25,6.75,0,.08a1.36,1.36,0,1,1-2.59.86l-2.31-6.9a1.38,1.38,0,0,1,2.61-.87h0Z"/><path class="cls-29" d="M1028.56,350l3,6.48,0,.06a1.36,1.36,0,0,1-.67,1.8,1.35,1.35,0,0,1-1.79-.66l-3.06-6.6a1.36,1.36,0,1,1,2.47-1.14h0Z"/><path class="cls-29" d="M1034.87,362.76l3.64,6.13,0,.06a1.34,1.34,0,1,1-2.31,1.37l-3.72-6.24a1.35,1.35,0,0,1,.47-1.85,1.34,1.34,0,0,1,1.84.47h0Z"/><path class="cls-29" d="M1042.45,374.85l4.21,5.76,0,.05a1.32,1.32,0,1,1-2.14,1.56l-4.29-5.85a1.33,1.33,0,0,1,2.15-1.58h0Z"/><path class="cls-29" d="M1051.11,386.19l4.69,5.4,0,0a1.31,1.31,0,0,1-2,1.72l-4.76-5.47a1.32,1.32,0,0,1,2-1.73h0Z"/><path class="cls-29" d="M1060.69,396.81l5.07,5,0,0a1.29,1.29,0,0,1-1.82,1.84l-5.15-5.09a1.3,1.3,0,0,1,1.83-1.85h0Z"/><path class="cls-29" d="M1071,406.71l5.4,4.71,0,0a1.29,1.29,0,0,1-1.69,1.94l-5.46-4.75a1.29,1.29,0,1,1,1.69-1.94h0Z"/><path class="cls-29" d="M1081.93,416l5.66,4.39,0,0a1.27,1.27,0,0,1,.22,1.78,1.25,1.25,0,0,1-1.77.23l-5.73-4.42a1.28,1.28,0,0,1,1.56-2h0Z"/><path class="cls-29" d="M1093.37,424.6l5.87,4.11,0,0a1.25,1.25,0,1,1-1.44,2l-5.93-4.13a1.26,1.26,0,0,1,1.44-2.07h0Z"/><path class="cls-29" d="M1105.22,432.71l6,4a1.24,1.24,0,1,1-1.36,2.07l-6-4a1.25,1.25,0,1,1,1.37-2.08Z"/><path class="cls-29" d="M1117.24,440.63l6,3.94a1.22,1.22,0,1,1-1.34,2.05l-6-3.92a1.24,1.24,0,1,1,1.35-2.07Z"/><path class="cls-29" d="M1129.3,448.51l6,3.94a1.21,1.21,0,1,1-1.33,2l-6-3.92a1.22,1.22,0,0,1,1.33-2.05Z"/><path class="cls-29" d="M1141.34,456.4l6,4a1.2,1.2,0,0,1-1.33,2l-6-4a1.2,1.2,0,1,1,1.32-2Z"/><path class="cls-29" d="M1153.33,464.39l6,4a1.18,1.18,0,0,1-1.33,2h0l-6-4h0a1.2,1.2,0,0,1,1.34-2Z"/><path class="cls-29" d="M1165.22,472.53l5.89,4.15a1.17,1.17,0,1,1-1.34,1.91h0l-5.88-4.13h0a1.17,1.17,0,1,1,1.35-1.92Z"/><path class="cls-29" d="M1177,480.89l5.8,4.29a1.15,1.15,0,1,1-1.37,1.85h0l-5.79-4.26h0a1.16,1.16,0,1,1,1.38-1.87Z"/><path class="cls-29" d="M1188.5,489.54l5.68,4.45a1.14,1.14,0,1,1-1.4,1.8h0l-5.66-4.42h0a1.15,1.15,0,0,1,1.41-1.81Z"/><path class="cls-29" d="M1199.8,498.51l5.57,4.57a1.13,1.13,0,0,1,.15,1.59,1.12,1.12,0,0,1-1.58.15h0l-5.56-4.55h0a1.13,1.13,0,1,1,1.44-1.75Z"/><path class="cls-29" d="M1210.88,507.74l5.44,4.74a1.11,1.11,0,0,1-1.46,1.68h0l-5.42-4.71h0a1.13,1.13,0,0,1-.11-1.58,1.11,1.11,0,0,1,1.58-.11Z"/><path class="cls-29" d="M1221.68,517.33l5.25,4.95a1.08,1.08,0,0,1,0,1.55,1.1,1.1,0,0,1-1.55,0l0,0-5.23-4.91h0a1.11,1.11,0,0,1,1.52-1.62Z"/><path class="cls-29" d="M1232.08,527.36l5,5.21a1.09,1.09,0,0,1,0,1.54,1.08,1.08,0,0,1-1.53,0l0,0-5-5.16,0,0a1.1,1.1,0,0,1,0-1.54,1.08,1.08,0,0,1,1.54,0Z"/><path class="cls-29" d="M1241.94,537.93l4.68,5.52a1.07,1.07,0,1,1-1.63,1.38l0,0-4.65-5.45,0,0a1.08,1.08,0,1,1,1.64-1.4Z"/><path class="cls-29" d="M1251.1,549.14l4.26,5.85a1.07,1.07,0,0,1-.23,1.48,1,1,0,0,1-1.47-.24l0,0-4.22-5.78,0,0a1.06,1.06,0,1,1,1.71-1.26Z"/><path class="cls-29" d="M1259.37,561l3.72,6.22a1,1,0,0,1-1.79,1.07l0,0-3.68-6.13,0,0a1,1,0,0,1,1.8-1.08Z"/><path class="cls-29" d="M1266.49,573.65l3,6.59a1,1,0,0,1-.49,1.34,1,1,0,0,1-1.35-.49l0-.05-3-6.46,0-.05a1,1,0,1,1,1.87-.88Z"/><path class="cls-29" d="M1272.19,587l2.26,6.9a1,1,0,0,1-.63,1.23,1,1,0,0,1-1.22-.62l0-.06-2.25-6.77,0,0a1,1,0,1,1,1.88-.63Z"/><path class="cls-29" d="M1276.27,600.9l1.37,7.13a.94.94,0,0,1-1.84.36v-.06l-1.38-7,0-.06a1,1,0,0,1,1.88-.37Z"/><path class="cls-29" d="M1278.54,615.23l.45,7.24a.89.89,0,0,1-.84.95.9.9,0,0,1-1-.83v-.06l-.48-7.13v0a.91.91,0,1,1,1.82-.13Z"/><path class="cls-29" d="M1278.94,629.73l-.53,7.22a.84.84,0,0,1-.91.79.85.85,0,0,1-.79-.91v0l.48-7.13v0a.88.88,0,0,1,.94-.81.87.87,0,0,1,.81.93Z"/><path class="cls-29" d="M1277.54,644.14l-1.17,7.14a.82.82,0,0,1-1.61-.26v0l1.13-7.07v0a.84.84,0,0,1,1-.69.82.82,0,0,1,.69,1Z"/><path class="cls-29" d="M1274.87,658.36l-1.84,7a.77.77,0,0,1-.94.56.79.79,0,0,1-.56-.94v-.05l1.78-6.93v0a.8.8,0,0,1,1-.57.79.79,0,0,1,.57,1Z"/><path class="cls-29" d="M1270.8,672.26l-2.73,6.73a.74.74,0,0,1-1.37-.55l0-.06,2.64-6.63,0-.06a.76.76,0,0,1,1.41.56Z"/><path class="cls-29" d="M1264.72,685.45a48,48,0,0,1-4.15,6,.7.7,0,0,1-1.08-.88,48.06,48.06,0,0,0,4-5.86.72.72,0,0,1,1.24.73Z"/><path class="cls-29" d="M1255.37,696.63a24,24,0,0,1-6.42,3.65.66.66,0,0,1-.46-1.23,22.77,22.77,0,0,0,6-3.48.67.67,0,0,1,1,.11.68.68,0,0,1-.11,1Z"/></g></g></svg>